ply
format ascii 1.0
comment Created in Blender version 4.3.2
element vertex 333
property float x
property float y
property float z
property float s
property float t
element face 408
property list uchar uint vertex_indices
end_header
-0.0046507567 -0.95509744 0.19600445 0.111924 0.588218
0.010633975 -0.8311282 0.16127758 0.086002 0.706873
0.0066894144 -0.942447 0.16135503 0.085629 0.600326
-0.0046507567 -0.95509744 0.19600445 0.111924 0.588218
0.0021778047 -0.8285918 0.20163587 0.120881 0.709301
-0.0046507567 -0.95509744 0.19600445 0.111924 0.588218
0.006862074 -0.95509744 0.16073807 0.085145 0.588218
-0.0046507567 -0.95509744 0.19600445 0.111924 0.588218
0.053667724 -0.842371 0.21457663 0.160806 0.696112
-0.0046507567 -0.95509744 0.19600445 0.111924 0.588218
0.0068187863 -0.96563023 0.1597903 0.084234 0.578137
-0.0046507567 -0.95509744 0.19600445 0.111924 0.588218
-0.0054223984 -0.993049 0.18687753 0.102967 0.551894
0.032635614 -0.993049 0.19868477 0.134575 0.551894
0.010093287 -0.8263438 0.1605787 0.086741 0.711452
0.05598499 -0.8221854 0.21674305 0.164085 0.715433
-0.0023655146 -0.7440366 0.20891145 0.125236 0.790231
0.008421376 -0.7434306 0.13545325 0.062328 0.790811
0.022565931 -0.777973 0.14218116 0.058817 0.756102
0.050062373 -0.8032906 0.2236672 0.167364 0.733517
0.014968693 -0.744009 0.103040755 0.035537 0.790257
0.0025071055 -0.6997802 0.12732226 0.051524 0.83259
-0.0009339303 -0.6825994 0.15168059 0.072457 0.849034
0.044870093 -0.7660082 0.25047952 0.189648 0.769201
0.077033415 -0.7845298 0.28210163 0.236612 0.751474
0.030217305 -0.6331826 0.15588412 0.084122 0.940812
0.003943056 -0.6766358 0.204175 0.124211 0.854742
0.014869139 -0.6954358 0.23625556 0.160132 0.836748
-0.0030702204 -0.6983682 0.16022922 0.079303 0.833941
0.029810801 -0.673859 0.24842003 0.179586 0.8574
0.07652028 -0.6894358 0.31200162 0.264314 0.842491
0.104068354 -0.6894358 0.3714691 0.334839 0.842491
0.1481875 -0.60454416 0.35477772 0.343055 0.923744
0.111656114 -0.613149 0.29480267 0.266561 0.923502
0.08377448 -0.6081266 0.23127107 0.190241 0.933094
0.12611827 -0.611139 0.20682387 0.184551 0.988675
0.13361719 -0.6822958 0.46075237 0.434345 0.849325
0.19570147 -0.5978062 0.32734552 0.343629 0.988675
0.18090123 -0.602515 0.43882275 0.439369 0.925686
0.16153428 -0.6120346 0.26816618 0.267074 0.988675
0.18647155 -0.6917254 0.54359806 0.540415 0.840299
0.24027246 -0.5902858 0.40454474 0.452261 0.988675
0.22354954 -0.6236374 0.5036262 0.523044 0.905468
0.15011191 -0.72781503 0.4845829 0.465552 0.805758
0.17788345 -0.7473498 0.5546638 0.54613 0.787059
0.27899528 -0.6105394 0.4716146 0.543489 0.941525
0.188202 -0.7965114 0.5649936 0.56137 0.740006
0.24256569 -0.7923734 0.5725391 0.5978 0.743967
0.26537606 -0.6563606 0.53730786 0.573332 0.872615
0.2992236 -0.683973 0.55239034 0.609553 0.847719
0.31069365 -0.6594006 0.52651787 0.604193 0.885175
0.3649984 -0.7099954 0.6750068 0.762466 0.822928
0.3687618 -0.6803842 0.67283404 0.759819 0.851154
0.3838298 -0.681261 0.6989325 0.79238 0.850316
0.3800664 -0.7099954 0.70110536 0.793758 0.823169
0.40363544 -0.72612983 0.68749774 0.795546 0.79803
0.3966248 -0.7099954 0.7297853 0.828145 0.823435
0.42019385 -0.72612983 0.71617776 0.828538 0.79856
0.4003882 -0.6821362 0.72761256 0.828161 0.849478
0.4598776 -0.7072794 0.83934236 0.95948 0.82711
0.20533606 -0.852233 0.57420516 0.579246 0.686672
0.24593544 -0.8479382 0.5814293 0.607938 0.690784
0.24552362 -0.8285666 0.5797872 0.606179 0.709325
0.20792162 -0.8802718 0.57621384 0.582522 0.659836
0.24393383 -0.867309 0.57888806 0.604479 0.672243
0.1821329 -0.95509744 0.088164866 0.10653 0.588218
0.14503574 -0.96563023 0.079990715 0.07884 0.578137
0.1458349 -0.95509744 0.08050206 0.079751 0.588218
0.18359536 -0.8285918 0.09689394 0.115487 0.709301
0.16905764 -0.842371 0.14795625 0.155412 0.696112
0.14408128 -0.8263438 0.08322069 0.081346 0.711452
0.19216785 -0.7440366 0.096597105 0.119841 0.790231
0.12315796 -0.7434306 0.06921008 0.056933 0.790811
0.17873296 -0.8032906 0.1493792 0.16197 0.733517
0.20454925 -0.7660082 0.1582887 0.184254 0.769201
0.2072314 -0.6954358 0.12519515 0.154738 0.836748
0.18491152 -0.6766358 0.09969279 0.118817 0.854742
0.09181425 -0.744009 0.058673978 0.030143 0.790257
0.119073436 -0.6997802 0.060022652 0.04613 0.83259
0.21029533 -0.673859 0.14421725 0.174192 0.8574
0.1418889 -0.6825994 0.069221795 0.067063 0.849034
0.15036002 -0.6983682 0.07164621 0.073908 0.833941
0.24200386 -0.6894358 0.21645963 0.258919 0.842491
0.24321508 -0.60454416 0.29991353 0.33766 0.923744
0.27973017 -0.6894358 0.2700507 0.329445 0.842491
0.20954123 -0.613149 0.23828869 0.261167 0.923502
0.16846207 -0.6081266 0.18237667 0.184847 0.933094
0.34227735 -0.6822958 0.34028238 0.42895 0.849325
0.2996437 -0.602515 0.37026677 0.433975 0.925686
0.3875966 -0.6917254 0.42747843 0.535021 0.840299
0.33444098 -0.6236374 0.439603 0.51765 0.905468
0.3546678 -0.72781503 0.3664825 0.460158 0.805758
0.35093313 -0.7156626 0.5417842 0.630016 0.81639
0.40147388 -0.7473498 0.4255738 0.540736 0.787059
0.318076 -0.8107926 0.35092765 0.425836 0.726336
0.38461322 -0.7923734 0.49052793 0.592405 0.743967
0.34269688 -0.6563606 0.49266663 0.567938 0.872615
0.3388349 -0.683973 0.52952075 0.604159 0.847719
0.4121365 -0.7099954 0.6477916 0.757071 0.822928
0.4052605 -0.7965114 0.43967485 0.555976 0.740006
0.40837312 -0.6803842 0.64996445 0.754425 0.851154
0.38603348 -0.8104698 0.49192542 0.594479 0.726646
0.40467083 -0.852233 0.45911914 0.573852 0.686672
0.4234411 -0.681261 0.67606294 0.786986 0.850316
0.4272045 -0.7099954 0.6738902 0.788364 0.823169
0.4437629 -0.7099954 0.7025702 0.82275 0.823435
0.3906275 -0.8479382 0.4978913 0.602544 0.690784
0.4051177 -0.8802718 0.46236268 0.577127 0.659836
0.43999952 -0.6821362 0.70474297 0.822766 0.849478
0.5032523 -0.6817682 0.8143 0.959449 0.84983
0.5070157 -0.7072794 0.81212723 0.954086 0.82711
0.42019385 -0.6627354 0.71617776 0.823232 0.878704
0.38942748 -0.867309 0.49488723 0.599085 0.672243
0.012106359 -0.5378274 0.12220785 0.093069 0.373337
-0.017754003 -0.5378274 0.05768016 0.08376 0.245317
-0.062051788 -0.48724818 0.10661739 0.195914 0.312781
-0.033009246 -0.578713 0.044065356 0.098377 0.202767
-0.045745566 -0.6086402 0.120565355 0.183394 0.172682
0.002131492 -0.6419366 -0.007927537 0.003581 0.104665
-0.035899863 -0.643743 0.036556214 0.088975 0.101862
0.00096462667 -0.6978722 0.09121299 0.09316 0.013493
0.109844595 -0.5378274 0.06577864 0.093069 0.373337
0.09682967 -0.604921 0.15609452 0.003618 0.49583
0.12995364 -0.6331826 0.09830132 0.0652 0.494714
0.068892166 -0.5378274 0.007654935 0.08376 0.245317
0.025569081 -0.5378274 0.032667547 0.003618 0.310455
0.13342193 -0.48724818 -0.006239414 0.195951 0.312781
0.0053370744 -0.5681762 -0.0023753047 0.003618 0.24627
0.064729005 -0.578713 -0.012363851 0.098377 0.202767
-0.007984519 -0.652529 -0.025448978 0.003618 0.088229
0.059671238 -0.643743 -0.018621773 0.088975 0.101862
0.0053370744 -0.6996838 -0.0023753047 0.003618 0.01506
0.038842946 -0.95509744 0.16387141 0.845109 0.277221
0.03910725 -0.942447 0.20876276 0.806241 0.289925
0.037667498 -0.95509744 0.20664904 0.808782 0.277221
0.036215335 -0.96563023 0.20451063 0.81135 0.266642
0.13119683 -0.7949766 0.114800185 0.841478 0.43803
0.111918196 -0.7791306 0.086499035 0.884025 0.485158
0.12191202 -0.777973 0.08482322 0.886837 0.458056
0.06147088 -0.7904694 0.094851285 0.89343 0.535553
0.07735367 -0.8147418 0.12236112 0.861779 0.535553
0.13255799 -0.95509744 0.10976499 0.845109 0.277221
0.17019224 -0.95509744 0.13013583 0.808782 0.277221
0.1713029 -0.942447 0.13243955 0.806277 0.289925
0.3499409 -0.8854838 0.42904726 0.461338 0.347133
0.34739572 -0.8989126 0.4254813 0.465684 0.333647
0.3473405 -0.8809602 0.4911408 0.409054 0.351677
0.2635634 -0.8454474 0.5277066 0.419202 0.387343
0.19064832 -0.852171 0.48573 0.491749 0.38059
0.26505572 -0.8253318 0.5085754 0.434967 0.407544
0.26173285 -0.8809602 0.54056644 0.409017 0.351677
0.20665804 -0.8854838 0.5117716 0.461338 0.347133
0.2048424 -0.8989126 0.5077845 0.465647 0.333647
0.17836472 -0.993049 0.4770182 0.505387 0.239106
-0.0046507567 -0.95509744 0.19600445 0.111924 0.588218
0.03910725 -0.942447 0.20876276 0.147501 0.600326
-0.0046507567 -0.95509744 0.19600445 0.111924 0.588218
0.006989822 -0.993049 0.15779693 0.082461 0.551894
-0.0046507567 -0.95509744 0.19600445 0.111924 0.588218
0.037667498 -0.95509744 0.20664904 0.144745 0.588218
-0.0046507567 -0.95509744 0.19600445 0.111924 0.588218
-0.0046507567 -0.95509744 0.19600445 0.111924 0.588218
0.036215335 -0.96563023 0.20451063 0.14196 0.578137
-0.0046507567 -0.95509744 0.19600445 0.111924 0.588218
0.00096462667 -0.6978722 0.09121299 0.024523 0.834417
0.10968137 -0.7867818 0.35603434 0.323428 0.749318
0.13904466 -0.7903378 0.4030218 0.383257 0.745914
0.09682967 -0.604921 0.15609452 0.11474 0.988675
0.15493692 -0.8107926 0.44511604 0.43123 0.726336
0.303795 -0.7156626 0.5689994 0.63541 0.81639
0.32736406 -0.7236414 0.5553918 0.643573 0.795588
0.38856745 -0.72612983 0.66139925 0.765522 0.797547
0.24306585 -0.8104698 0.57446784 0.599874 0.726646
0.38856745 -0.6605114 0.66139925 0.760119 0.878151
0.18078934 -0.8352726 0.46949616 0.46801 0.702906
0.40363544 -0.6616234 0.68749774 0.792016 0.878814
0.42019385 -0.6627354 0.71617776 0.828626 0.878704
0.48344666 -0.7236414 0.8257348 0.959707 0.805169
0.20665804 -0.8854838 0.5117716 0.521541 0.654847
0.20500094 -0.8723426 0.5138503 0.52259 0.667425
0.19064832 -0.852171 0.48573 0.488525 0.686732
0.463641 -0.6817682 0.8371696 0.964844 0.84983
0.49201545 -0.6932638 0.8405764 0.990975 0.838416
0.2048424 -0.8989126 0.5077845 0.516829 0.641995
0.48344666 -0.6638474 0.8257348 0.968921 0.875366
0.20537727 -0.9921738 0.5254373 0.533636 0.552732
0.17836472 -0.993049 0.4770182 0.473737 0.551894
0.1700173 -0.993049 0.52807045 0.516997 0.551894
0.14645553 -0.942447 0.08066103 0.080234 0.600326
0.14441618 -0.8311282 0.08403838 0.080607 0.706873
0.14322393 -0.993049 0.07914212 0.077067 0.551894
0.1713029 -0.942447 0.13243955 0.142106 0.600326
0.17461458 -0.993049 0.08293316 0.097573 0.551894
0.17019224 -0.95509744 0.13013583 0.139351 0.588218
0.16581091 -0.993049 0.12179598 0.12918 0.551894
0.1690664 -0.96563023 0.12780902 0.136566 0.578137
0.16977517 -0.8221854 0.15104625 0.158691 0.715433
0.12191202 -0.777973 0.08482322 0.053423 0.756102
0.08857314 -0.6978722 0.04063219 0.019128 0.834417
0.21585312 -0.7845298 0.20195402 0.231218 0.751474
0.12995364 -0.6331826 0.09830132 0.078728 0.940812
0.26355642 -0.7867818 0.26719454 0.318034 0.749318
0.12611827 -0.611139 0.20682387 0.179156 0.988675
0.09682967 -0.604921 0.15609452 0.109346 0.988675
0.28956747 -0.7903378 0.31611744 0.377863 0.745914
0.16153428 -0.6120346 0.26816618 0.261679 0.988675
0.19570147 -0.5978062 0.32734552 0.338235 0.988675
0.24027246 -0.5902858 0.40454474 0.446866 0.988675
0.27899528 -0.6105394 0.4716146 0.538095 0.941525
0.31069365 -0.6594006 0.52651787 0.598799 0.885175
0.32736406 -0.7236414 0.5553918 0.638179 0.795588
0.3262636 -0.8352726 0.38550654 0.462615 0.702906
0.38856745 -0.6605114 0.66139925 0.754725 0.878151
0.335393 -0.852171 0.4021616 0.483131 0.686732
0.40363544 -0.72612983 0.68749774 0.790152 0.79803
0.38856745 -0.72612983 0.66139925 0.760128 0.797547
0.35256958 -0.8723426 0.42865148 0.517196 0.667425
0.3894113 -0.8285666 0.49671364 0.600785 0.709325
0.40363544 -0.6616234 0.68749774 0.786622 0.878814
0.3499409 -0.8854838 0.42904726 0.516147 0.654847
0.42019385 -0.72612983 0.71617776 0.823144 0.79856
0.34739572 -0.8989126 0.4254813 0.511435 0.641995
0.3339902 -0.993049 0.3871678 0.468342 0.551894
0.48344666 -0.7236414 0.8257348 0.954313 0.805169
0.48344666 -0.6638474 0.8257348 0.963527 0.875366
0.49201545 -0.6932638 0.8405764 0.985581 0.838416
0.38237643 -0.993049 0.40546483 0.511603 0.551894
0.3624161 -0.9921738 0.43477088 0.528241 0.552732
0.060975477 -0.5378274 0.09399325 0.003581 0.363005
0.030217305 -0.6331826 0.15588412 0.0652 0.494714
-0.045745566 -0.6086402 0.120565355 0.193202 0.482437
0.04125528 -0.720985 0.059836864 0.021101 0.000327
0.13734813 -0.6086402 0.01485616 0.193202 0.482437
0.13734813 -0.6086402 0.01485616 0.183394 0.172682
0.08857314 -0.6978722 0.04063219 0.09316 0.013493
0.0066894144 -0.942447 0.16135503 0.863299 0.289926
0.010633975 -0.8311282 0.16127758 0.862955 0.401723
0.006862074 -0.95509744 0.16073807 0.863745 0.277221
0.04723166 -0.8285918 0.16157866 0.842909 0.404271
0.0068187863 -0.96563023 0.1597903 0.864585 0.266642
0.006989822 -0.993049 0.15779693 0.86622 0.239106
0.03838046 -0.993049 0.16158794 0.847309 0.239106
0.010093287 -0.8263438 0.1605787 0.862273 0.406528
0.043884143 -0.7949766 0.16521017 0.841442 0.43803
0.022565931 -0.777973 0.14218116 0.886837 0.458056
0.029013947 -0.7791306 0.13436383 0.884025 0.485158
0.014968693 -0.744009 0.103040755 0.931953 0.474254
0.07735367 -0.8147418 0.12236112 0.861742 0.535553
0.04722567 -0.747413 0.07017788 0.940847 0.535553
0.00096462667 -0.6978722 0.09121299 0.987846 0.493792
0.04125528 -0.720985 0.059836864 0.971015 0.535553
0.053667724 -0.842371 0.21457663 0.79397 0.390433
0.032635614 -0.993049 0.19868477 0.818161 0.239106
0.05598499 -0.8221854 0.21674305 0.790946 0.410705
0.050062373 -0.8032906 0.2236672 0.787922 0.429681
0.114397675 -0.8342518 0.1865232 0.787922 0.535553
0.077033415 -0.7845298 0.28210163 0.724062 0.471959
0.15010567 -0.8340986 0.24837127 0.716763 0.5354
0.10968137 -0.7867818 0.35603434 0.644001 0.474221
0.21751927 -0.8082054 0.36513504 0.582424 0.5354
0.13904466 -0.7903378 0.4030218 0.588827 0.458882
0.18581387 -0.8167078 0.3102197 0.645605 0.5354
0.15493692 -0.8107926 0.44511604 0.544586 0.422146
0.14441618 -0.8311282 0.08403838 0.862955 0.401723
0.14645553 -0.942447 0.08066103 0.863299 0.289926
0.12637807 -0.8285918 0.11588347 0.842909 0.404271
0.1458349 -0.95509744 0.08050206 0.863781 0.277221
0.14503574 -0.96563023 0.079990715 0.864585 0.266642
0.14322393 -0.993049 0.07914212 0.866257 0.239106
0.1308117 -0.993049 0.10822275 0.847309 0.239106
0.14408128 -0.8263438 0.08322069 0.862273 0.406528
0.09181425 -0.744009 0.058673978 0.931953 0.474254
0.04722567 -0.747413 0.07017788 0.940883 0.535553
0.08857314 -0.6978722 0.04063219 0.987883 0.493792
0.04125528 -0.720985 0.059836864 0.971052 0.535553
0.16905764 -0.842371 0.14795625 0.79397 0.390433
0.1690664 -0.96563023 0.12780902 0.811387 0.266642
0.16581091 -0.993049 0.12179598 0.818161 0.239106
0.16977517 -0.8221854 0.15104625 0.790983 0.410705
0.17873296 -0.8032906 0.1493792 0.787959 0.429681
0.114397675 -0.8342518 0.1865232 0.787959 0.535553
0.21585312 -0.7845298 0.20195402 0.724062 0.471959
0.26355642 -0.7867818 0.26719454 0.644001 0.474221
0.28956747 -0.7903378 0.31611744 0.588863 0.458882
0.21751927 -0.8082054 0.36513504 0.58246 0.5354
0.318076 -0.8107926 0.35092765 0.544586 0.422146
0.26329586 -0.8070746 0.44442245 0.491237 0.5354
0.3262636 -0.8352726 0.38550654 0.510705 0.397561
0.3025567 -0.811453 0.4670666 0.452138 0.421484
0.31797403 -0.8253318 0.478023 0.434967 0.407544
0.335393 -0.852171 0.4021616 0.491786 0.38059
0.33528832 -0.8454474 0.48629624 0.419202 0.387343
0.35256958 -0.8723426 0.42865148 0.460371 0.360331
0.3339902 -0.993049 0.3871678 0.505387 0.239106
0.3267891 -0.9926114 0.43260637 0.469802 0.239545
0.3906275 -0.8479382 0.4978913 0.381663 0.384841
0.38942748 -0.867309 0.49488723 0.384854 0.365386
0.3624161 -0.9921738 0.43477088 0.450185 0.239985
0.3894113 -0.8285666 0.49671364 0.383286 0.404296
0.38603348 -0.8104698 0.49192542 0.3891 0.422471
0.38461322 -0.7923734 0.49052793 0.391013 0.440645
0.35093313 -0.7156626 0.5417842 0.363564 0.515593
0.32736406 -0.7236414 0.5553918 0.363564 0.5354
0.20500094 -0.8723426 0.5138503 0.460335 0.360331
0.18078934 -0.8352726 0.46949616 0.510705 0.397561
0.22131622 -0.9926114 0.4935012 0.469802 0.239545
0.26327586 -0.811453 0.48974538 0.452138 0.421484
0.24593544 -0.8479382 0.5814293 0.381627 0.384841
0.24393383 -0.867309 0.57888806 0.384817 0.365386
0.20537727 -0.9921738 0.5254373 0.450148 0.239985
0.24552362 -0.8285666 0.5797872 0.383249 0.404296
0.24306585 -0.8104698 0.57446784 0.3891 0.422471
0.24256569 -0.7923734 0.5725391 0.391013 0.440645
0.303795 -0.7156626 0.5689994 0.363527 0.515593
0.38237643 -0.993049 0.40546483 0.594854 0.125417
0.3624161 -0.9921738 0.43477088 0.623073 0.066891
0.3267891 -0.9926114 0.43260637 0.586996 0.012335
0.3339902 -0.993049 0.3871678 0.521484 0.065395
0.1700173 -0.993049 0.52807045 0.594817 0.125417
0.22131622 -0.9926114 0.4935012 0.586996 0.012335
0.20537727 -0.9921738 0.5254373 0.623037 0.066891
0.17836472 -0.993049 0.4770182 0.521447 0.065395
0.03838046 -0.993049 0.16158794 0.571856 0.011248
-0.0054223984 -0.993049 0.18687753 0.571856 0.12154
0.006989822 -0.993049 0.15779693 0.53047 0.066394
0.032635614 -0.993049 0.19868477 0.635645 0.062545
0.1308117 -0.993049 0.10822275 0.571856 0.011248
0.14322393 -0.993049 0.07914212 0.53047 0.066394
0.17461458 -0.993049 0.08293316 0.571856 0.12154
0.16581091 -0.993049 0.12179598 0.635682 0.062545
0.32736406 -0.7236414 0.5553918 0.363527 0.5354
0.030217305 -0.6331826 0.15588412 0.240446 0.124809
0.12995364 -0.6331826 0.09830132 0.240483 0.124809
3 0 1 2
3 3 4 1
3 5 2 6
3 7 8 4
3 9 6 10
3 11 12 13
3 1 4 14
3 8 15 4
3 14 4 16
3 14 16 17
3 14 17 18
3 15 19 4
3 4 19 16
3 17 20 18
3 17 21 20
3 17 22 21
3 19 23 16
3 19 24 23
3 22 25 21
3 22 26 25
3 16 23 27
3 16 26 28
3 16 27 26
3 24 29 23
3 24 30 29
3 24 31 30
3 26 29 25
3 26 27 29
3 27 23 29
3 30 31 32
3 30 33 29
3 30 32 33
3 25 29 34
3 25 34 35
3 29 33 34
3 32 31 36
3 32 37 33
3 32 36 38
3 32 38 37
3 35 34 39
3 39 33 37
3 39 34 33
3 38 36 40
3 38 41 37
3 38 40 42
3 38 42 41
3 40 36 43
3 40 43 44
3 41 42 45
3 44 46 47
3 48 49 50
3 51 52 49
3 51 53 52
3 51 54 53
3 51 55 54
3 54 55 56
3 54 56 53
3 55 57 56
3 53 56 58
3 57 59 56
3 60 61 62
3 60 63 61
3 61 63 64
3 65 66 67
3 65 68 69
3 70 71 68
3 70 72 71
3 68 71 73
3 71 74 73
3 71 75 74
3 71 76 75
3 77 78 72
3 75 76 79
3 75 79 74
3 72 78 80
3 72 80 81
3 82 83 84
3 82 79 85
3 82 85 83
3 79 86 85
3 83 87 84
3 83 88 87
3 88 89 87
3 88 90 89
3 89 91 87
3 89 90 92
3 89 93 91
3 89 92 93
3 91 93 94
3 91 94 87
3 92 95 93
3 92 90 96
3 92 96 97
3 92 97 98
3 94 93 99
3 93 95 99
3 97 100 98
3 95 101 99
3 99 101 102
3 98 100 103
3 98 103 104
3 104 103 105
3 102 106 107
3 105 103 108
3 105 109 110
3 105 108 109
3 108 103 111
3 108 111 109
3 106 112 107
3 113 114 115
3 114 116 117
3 118 119 116
3 116 119 117
3 117 119 120
3 121 122 123
3 121 124 125
3 121 126 124
3 125 124 127
3 124 128 127
3 129 130 131
3 132 133 134
3 132 134 135
3 136 137 138
3 136 139 137
3 136 140 139
3 141 142 143
3 144 145 146
3 147 148 149
3 147 150 151
3 150 152 151
3 150 153 152
3 154 155 8
3 156 10 157
3 158 159 155
3 160 157 12
3 161 162 159
3 163 13 162
3 17 16 28
3 17 28 22
3 20 21 164
3 22 28 26
3 21 25 164
3 24 165 31
3 165 166 31
3 25 35 167
3 31 166 36
3 166 168 36
3 40 169 42
3 40 44 169
3 36 168 43
3 43 168 44
3 169 48 42
3 169 44 47
3 169 49 48
3 169 51 49
3 169 170 51
3 45 42 50
3 44 168 46
3 48 50 42
3 51 171 55
3 51 170 171
3 47 46 172
3 49 52 173
3 52 53 173
3 46 60 172
3 46 174 60
3 46 168 174
3 173 53 175
3 172 60 62
3 53 176 175
3 53 58 176
3 57 177 59
3 60 178 63
3 60 179 178
3 60 180 179
3 60 174 180
3 58 181 176
3 58 56 181
3 56 59 181
3 177 182 59
3 59 182 181
3 178 183 63
3 176 181 184
3 184 181 182
3 64 63 185
3 183 186 63
3 185 63 187
3 187 63 186
3 65 188 189
3 65 67 188
3 65 189 68
3 65 190 66
3 65 69 191
3 65 192 190
3 65 191 193
3 65 194 192
3 65 193 195
3 65 195 194
3 189 70 68
3 69 68 196
3 70 197 72
3 196 68 73
3 197 77 72
3 71 72 81
3 71 81 76
3 77 198 78
3 73 74 199
3 74 79 199
3 198 200 78
3 78 200 80
3 76 200 79
3 76 80 200
3 76 81 80
3 199 79 82
3 199 82 84
3 199 84 201
3 200 86 79
3 200 202 86
3 200 203 202
3 201 84 204
3 202 205 86
3 86 205 85
3 83 85 206
3 83 206 88
3 85 205 206
3 84 87 204
3 88 206 207
3 88 207 90
3 204 87 94
3 207 208 90
3 208 209 90
3 92 98 210
3 94 99 211
3 90 209 96
3 97 96 209
3 97 212 100
3 211 99 102
3 211 102 213
3 98 104 214
3 98 214 215
3 98 215 210
3 100 212 103
3 213 102 216
3 101 217 102
3 104 105 214
3 212 218 103
3 216 102 219
3 217 106 102
3 214 105 220
3 218 111 103
3 219 102 107
3 219 107 221
3 105 110 220
3 221 107 222
3 220 110 223
3 111 224 109
3 109 225 110
3 109 224 225
3 225 223 110
3 222 107 226
3 112 227 107
3 107 227 226
3 113 122 228
3 113 229 122
3 113 228 125
3 113 230 229
3 113 125 114
3 113 115 230
3 125 127 114
3 127 116 114
3 127 118 116
3 114 117 115
3 118 129 119
3 129 131 119
3 119 131 120
3 131 231 120
3 121 228 122
3 121 125 228
3 121 123 232
3 121 232 126
3 124 233 128
3 124 126 233
3 127 128 118
3 233 130 128
3 233 234 130
3 128 130 118
3 234 131 130
3 234 231 131
3 118 130 129
3 132 235 236
3 132 237 235
3 132 236 238
3 132 239 237
3 132 240 239
3 132 241 240
3 236 242 238
3 242 243 238
3 242 244 243
3 244 245 243
3 244 246 245
3 243 245 139
3 243 139 247
3 245 246 139
3 246 248 139
3 246 249 248
3 249 250 248
3 132 251 133
3 132 238 251
3 132 135 252
3 132 252 241
3 238 253 251
3 238 254 253
3 238 243 254
3 243 247 254
3 247 255 254
3 254 255 256
3 256 257 258
3 258 259 260
3 258 261 259
3 260 259 262
3 141 263 264
3 141 265 263
3 141 264 266
3 141 266 267
3 141 267 268
3 141 268 269
3 265 270 263
3 265 136 270
3 136 138 270
3 138 137 271
3 137 139 271
3 139 272 271
3 272 273 271
3 272 274 273
3 141 143 275
3 141 275 265
3 141 276 142
3 141 277 276
3 141 269 277
3 275 278 265
3 278 279 265
3 279 136 265
3 279 140 136
3 279 280 140
3 279 281 280
3 281 282 257
3 282 283 284
3 282 284 261
3 283 285 284
3 285 286 284
3 285 287 288
3 285 288 286
3 287 289 288
3 287 290 289
3 290 291 289
3 290 292 291
3 292 144 291
3 144 146 291
3 145 293 146
3 293 294 146
3 146 295 291
3 146 296 295
3 146 297 296
3 146 294 297
3 291 295 298
3 291 298 299
3 291 299 289
3 299 300 289
3 300 288 289
3 300 301 288
3 301 302 288
3 147 303 148
3 147 151 303
3 148 304 149
3 150 305 153
3 304 306 149
3 150 147 307
3 150 307 308
3 150 308 309
3 150 309 305
3 147 310 307
3 147 311 310
3 147 149 311
3 149 312 311
3 149 306 312
3 312 306 313
3 314 315 316
3 314 316 317
3 318 319 320
3 318 321 319
3 322 323 324
3 322 325 323
3 326 327 328
3 326 328 329
3 302 286 288
3 262 259 286
3 261 258 257
3 262 306 304
3 286 306 262
3 261 257 282
3 330 313 306
3 330 306 286
3 49 173 50
3 97 209 212
3 257 256 255
3 120 331 117
3 234 233 332
3 257 280 281
