P3
56 56
255
195 198 69  199 201 74  200 201 82  203 203 91  179 176 71  202 198 98  211 207 110 206 202 103 203 198 98  202 197 93  205 199 89  204 198 84  199 192 78  192 185 69  194 187 71  203 196 80  204 196 85  203 195 84  206 198 91  211 202 97  212 203 100 209 200 99  210 200 103 215 205 108 209 199 102 203 193 95  200 190 92  199 190 87  199 190 87  205 196 91  208 200 93  204 198 88  205 199 87  204 201 86  208 205 92  206 203 90  202 198 90  208 204 96  212 207 103 204 199 95  204 199 97  204 199 97  208 203 99  205 201 94  197 193 86  200 196 88  206 202 92  206 200 90  206 197 92  208 197 92  207 198 93  209 200 95  206 197 92  202 193 88  202 195 89  206 199 93  
193 195 68  195 197 72  193 194 75  192 192 80  189 186 81  203 199 99  208 204 105 204 200 101 200 195 95  198 193 89  200 194 84  200 194 82  207 200 86  201 194 80  201 194 80  204 197 83  206 198 87  205 197 88  208 200 93  213 204 99  214 205 102 210 201 100 209 199 101 211 201 103 215 205 108 210 200 102 206 197 96  203 194 91  202 193 88  207 198 93  211 203 96  208 202 92  204 198 86  204 201 86  204 201 88  200 196 86  197 193 85  204 200 93  209 204 100 206 201 97  208 203 101 207 202 100 206 201 97  201 196 92  196 192 85  199 195 87  202 198 90  203 196 89  205 196 91  203 194 89  202 193 88  203 194 89  203 194 89  199 192 86  200 193 87  203 196 90  
187 189 64  187 188 68  183 184 67  181 181 71  199 196 93  205 201 101 206 202 103 206 202 102 201 196 94  201 197 90  200 196 88  195 192 79  209 203 91  202 196 84  199 193 81  198 192 82  200 194 84  201 194 87  205 198 91  211 204 98  212 205 101 209 201 100 207 199 98  208 200 99  219 211 112 214 206 105 210 202 101 205 198 94  202 195 89  206 199 93  210 203 96  208 202 92  206 200 88  209 203 89  204 198 86  196 190 80  196 189 82  201 194 88  206 199 95  208 201 97  208 200 99  210 202 101 205 198 94  200 193 89  202 195 89  205 198 91  206 199 92  206 199 92  206 199 93  205 198 92  205 198 92  204 197 91  199 192 86  193 189 82  198 194 87  205 201 94  
187 188 68  186 187 68  186 186 74  189 188 80  203 200 97  206 202 102 206 202 103 208 204 104 207 202 100 209 205 98  207 203 95  197 193 83  208 204 94  201 197 87  201 194 87  198 194 86  199 192 85  199 195 88  205 198 92  208 201 95  207 200 96  206 199 95  206 199 95  208 201 97  214 206 105 211 204 100 209 202 98  205 198 92  201 194 88  202 195 89  204 197 90  201 195 85  208 202 90  212 206 94  204 198 88  194 187 80  197 190 84  199 192 86  199 192 88  202 195 91  201 193 92  208 200 99  204 197 93  199 192 88  203 196 92  206 199 93  204 197 91  206 199 92  209 202 96  203 199 92  203 196 90  200 196 89  199 195 88  197 194 87  202 198 91  207 204 97  
195 193 80  194 192 81  199 197 88  207 204 99  203 200 97  205 201 101 207 203 103 208 204 104 209 206 103 207 204 97  202 200 91  196 194 85  207 205 96  206 204 95  207 203 96  203 200 93  202 198 91  204 201 96  206 201 97  203 198 94  199 194 90  198 193 89  202 197 93  205 201 94  203 198 94  202 198 91  204 200 93  203 199 91  199 195 87  200 196 88  200 196 88  195 191 83  206 200 90  208 202 92  201 195 85  195 188 81  198 191 85  198 191 85  193 186 82  193 186 82  195 187 86  207 199 98  206 198 97  200 193 89  201 194 90  201 194 88  199 192 86  201 194 88  204 200 93  194 191 84  189 185 78  191 188 81  198 195 88  200 199 91  201 198 91  200 199 91  
192 190 81  192 189 82  199 196 91  209 206 103 202 199 96  205 201 101 208 204 104 209 206 103 202 199 94  194 191 84  188 185 78  191 188 81  198 195 88  204 201 96  202 199 94  197 194 89  198 195 92  201 198 93  200 197 92  194 191 86  191 188 83  193 190 85  200 196 89  202 199 92  196 192 85  195 193 84  200 196 88  202 198 90  201 197 89  203 199 91  203 199 91  197 193 85  199 193 83  202 196 86  200 193 86  198 191 84  199 192 86  198 191 85  192 185 81  189 182 78  195 187 86  207 199 98  211 203 102 204 196 95  200 193 89  201 194 90  202 195 91  201 197 90  197 194 87  194 191 84  193 190 83  194 191 84  194 193 85  193 192 84  195 194 86  199 198 90  
189 184 80  190 185 81  192 189 86  194 191 88  207 204 101 205 202 99  205 202 99  206 203 98  192 191 85  184 183 75  182 181 73  194 193 87  185 184 78  194 192 89  192 190 87  189 187 84  191 189 88  193 191 88  191 189 86  186 184 81  186 185 79  191 190 84  197 194 87  196 196 86  194 192 83  192 192 80  196 194 83  199 197 86  200 198 87  204 202 91  204 202 91  199 197 86  196 192 84  198 194 86  202 198 90  203 199 91  199 195 88  198 194 87  196 191 87  191 186 82  200 195 93  209 204 102 213 208 106 206 201 99  198 193 91  202 197 95  208 203 101 207 202 98  196 193 88  197 194 89  201 198 93  203 200 95  199 198 92  195 194 88  198 197 91  204 203 97  
193 188 88  194 189 89  190 187 84  182 179 76  213 210 107 205 202 97  201 198 93  200 197 92  187 186 78  184 183 75  189 188 82  206 205 99  183 181 78  190 188 85  192 190 89  196 194 93  192 190 89  190 191 89  189 187 84  185 183 80  186 185 79  192 191 85  193 192 84  190 190 80  194 194 84  192 192 80  193 193 81  195 195 83  198 196 85  202 200 89  203 201 90  198 196 85  200 196 88  201 197 89  209 205 97  210 206 98  202 198 91  200 196 89  202 197 93  198 193 89  210 205 103 214 209 107 216 211 109 207 202 100 196 191 89  201 196 94  209 204 102 206 201 99  199 196 91  193 190 85  193 190 85  203 200 95  212 211 105 214 213 107 211 210 104 208 207 101 
199 195 96  193 189 90  193 189 89  195 192 89  213 210 107 211 208 103 204 203 97  193 192 84  192 191 83  203 202 94  205 207 100 203 204 100 193 194 92  197 198 96  184 184 84  185 185 85  193 194 92  186 189 86  183 184 82  189 190 86  191 193 86  195 197 90  188 190 81  197 199 89  195 197 87  182 184 74  192 195 82  189 192 79  200 200 88  208 208 96  200 200 88  189 187 76  190 186 78  201 197 90  206 202 95  212 208 101 193 189 82  205 201 94  201 197 90  195 191 84  201 196 92  218 213 109 216 211 107 203 198 94  200 195 93  210 205 103 203 198 98  221 216 114 214 211 106 188 185 80  203 200 95  187 184 79  211 208 103 211 208 103 209 206 101 204 201 96  
193 189 92  193 189 90  198 194 94  199 196 93  201 198 93  198 195 88  196 195 87  191 190 82  193 192 84  197 196 90  196 197 93  195 196 92  189 190 88  196 197 95  187 188 86  186 187 85  188 191 88  179 182 79  175 178 75  184 187 82  189 190 86  192 194 87  181 183 76  188 190 81  188 190 81  180 182 72  192 194 84  188 191 78  198 198 86  201 201 89  194 194 82  188 188 76  193 191 82  203 200 93  211 207 100 215 212 105 191 187 80  198 195 88  200 196 89  197 194 87  202 198 91  214 211 106 210 205 101 197 194 89  196 191 89  202 199 96  195 190 90  208 204 104 207 204 101 187 184 79  204 201 96  196 193 88  194 191 86  204 201 96  205 202 97  195 192 87  
187 183 84  190 186 87  196 194 93  200 198 95  189 188 80  189 189 79  190 190 80  190 189 81  191 193 84  190 192 85  191 192 88  185 186 84  178 179 75  188 189 85  188 189 85  188 189 85  189 192 87  174 180 74  167 173 67  179 185 79  187 190 85  187 190 85  171 174 69  174 177 72  178 179 75  177 179 72  191 193 84  186 188 78  193 193 81  190 190 78  185 185 71  191 191 79  195 195 85  198 197 89  206 203 96  211 210 102 188 186 77  193 193 83  197 195 86  194 194 84  197 195 86  204 203 95  202 199 94  194 193 87  193 190 87  197 195 92  193 189 89  202 198 98  203 200 97  188 185 82  201 198 95  203 200 97  183 180 77  203 200 97  205 202 99  191 188 85  
186 182 83  184 182 81  190 188 85  200 199 93  187 187 77  191 191 81  192 192 82  189 188 80  192 194 87  191 192 88  191 192 90  178 179 77  166 167 63  176 178 71  184 186 79  190 193 86  194 197 90  177 183 77  168 174 68  180 186 80  187 190 87  185 188 85  166 168 67  169 172 69  175 176 74  177 178 74  190 192 85  182 184 75  187 187 77  181 181 69  179 179 65  194 194 82  194 194 84  187 186 78  192 191 83  202 202 92  187 187 77  193 193 83  193 193 83  185 185 75  189 189 79  195 195 85  197 196 88  194 193 87  192 190 87  193 191 88  193 191 90  198 196 95  198 196 93  185 183 80  188 185 82  194 192 89  180 177 74  197 195 92  200 197 94  188 186 83  
187 185 84  184 182 81  190 189 83  199 201 92  187 189 79  191 194 81  191 193 83  188 190 81  193 195 88  190 191 87  188 189 87  171 172 70  165 166 62  174 176 69  183 185 75  190 194 83  197 201 91  181 187 79  173 179 73  182 188 82  189 192 89  188 190 89  172 174 75  177 179 80  182 182 84  183 183 83  193 194 90  181 183 76  183 183 73  178 178 66  178 178 64  195 195 81  192 194 84  183 185 76  186 188 78  196 198 88  187 189 79  189 192 79  187 190 77  177 180 67  183 186 73  187 189 79  194 196 87  195 197 90  188 189 85  183 184 80  189 190 88  191 192 90  191 192 88  185 186 82  177 175 72  180 181 77  181 179 76  182 183 79  187 185 82  186 187 83  
189 187 86  189 187 84  194 196 87  200 202 92  191 194 81  188 191 78  189 191 81  188 190 81  193 195 88  189 190 86  183 184 82  168 169 65  176 178 71  183 185 76  184 187 74  185 189 76  194 198 87  182 188 78  175 181 73  183 189 83  190 192 91  193 195 96  183 185 88  190 192 95  192 192 96  188 188 90  195 196 94  181 182 78  183 182 74  181 181 69  181 181 67  193 193 79  192 194 84  189 191 82  192 194 84  195 197 87  187 190 77  185 188 75  185 188 73  182 185 70  182 185 72  184 187 74  194 196 86  197 199 90  187 189 82  177 178 74  190 191 89  190 191 89  193 194 90  197 200 95  183 184 80  185 186 82  193 194 90  181 182 78  183 184 80  193 194 90  
187 188 84  187 189 82  194 196 86  197 200 87  196 199 86  187 190 77  186 188 78  186 188 79  191 193 86  192 193 89  185 186 84  171 172 68  188 190 83  189 191 81  180 183 68  180 185 69  190 194 81  181 188 76  176 182 74  181 187 81  186 191 89  194 199 99  189 190 96  195 196 102 194 193 100 185 185 89  193 193 93  181 182 78  185 184 76  188 188 76  187 187 73  189 189 75  188 190 80  191 195 85  191 195 84  186 190 79  183 187 74  181 186 70  184 189 73  188 193 77  186 191 75  183 187 74  193 197 86  197 201 91  184 187 80  170 173 68  187 190 87  185 188 85  190 193 90  201 206 103 187 190 87  194 197 94  203 206 103 190 193 90  189 192 89  190 193 90  
189 188 82  186 185 77  191 191 81  193 193 81  202 202 90  192 192 80  188 188 78  186 185 77  191 190 84  199 198 92  195 193 90  180 178 75  196 195 89  188 190 81  175 178 65  177 180 67  189 193 82  184 188 77  177 181 71  180 183 76  186 189 86  196 198 97  188 190 91  194 194 96  190 190 92  179 179 79  189 190 88  182 180 77  186 185 79  194 193 85  191 191 81  185 185 75  183 185 76  189 191 82  185 187 78  177 179 69  180 183 70  181 185 72  184 188 75  191 195 82  193 197 84  185 189 78  193 197 86  194 198 88  180 182 73  163 165 58  180 182 75  174 177 72  178 181 76  191 197 91  176 179 74  193 196 91  202 205 100 197 200 95  189 192 89  177 180 75  
192 189 82  187 185 76  189 187 78  199 197 88  199 195 87  199 195 87  209 205 97  209 205 97  196 192 85  198 194 87  198 195 90  191 188 83  193 190 85  189 188 82  205 204 98  171 170 64  196 198 91  175 177 70  195 197 88  177 179 70  184 186 77  183 185 76  193 195 86  193 192 84  184 183 75  190 189 81  194 193 87  184 181 76  197 194 91  200 197 94  190 186 86  181 177 77  189 185 85  195 192 89  189 188 82  187 186 78  188 187 79  174 176 66  187 189 80  177 179 70  193 195 88  179 181 74  185 187 80  184 186 79  192 191 83  177 177 67  170 170 60  184 184 74  187 189 80  188 191 84  187 189 82  194 196 89  199 201 94  197 199 92  196 197 93  189 191 84  
190 186 78  188 184 76  191 187 79  201 197 89  200 193 86  198 191 84  208 201 94  209 202 95  200 193 86  201 194 87  200 196 89  194 190 83  199 196 91  191 188 83  196 195 89  173 171 68  197 195 92  184 183 77  199 198 90  185 184 76  190 190 80  187 187 75  195 195 83  196 196 82  188 188 74  196 196 84  202 200 91  192 189 84  203 200 97  205 201 101 197 193 96  190 186 89  200 195 95  194 189 87  192 189 84  201 198 93  198 195 88  189 188 80  197 196 90  188 190 83  194 195 91  183 184 80  184 182 79  191 190 84  204 203 95  195 195 85  186 184 73  194 192 81  194 193 85  190 192 83  184 186 77  193 195 86  201 203 96  201 203 96  198 200 93  188 190 83  
191 187 79  190 186 78  193 189 81  201 197 89  200 194 84  197 191 81  206 200 90  208 202 92  203 197 87  202 196 86  203 199 91  197 193 85  208 205 98  194 191 84  189 186 79  182 179 74  196 195 89  192 191 85  198 197 89  192 191 83  196 196 86  190 190 78  198 196 85  201 199 88  194 192 81  203 201 92  210 207 100 200 197 92  210 207 104 210 206 106 203 199 100 199 195 96  203 198 96  197 192 88  203 198 94  212 209 102 199 196 89  189 188 80  194 193 87  201 200 94  193 194 90  197 198 94  193 191 88  202 201 95  207 206 98  197 197 87  191 189 80  200 198 89  200 199 91  202 201 95  200 199 93  204 203 97  203 201 98  198 196 93  200 198 95  199 197 94  
195 191 83  195 191 83  195 191 83  202 198 90  203 197 87  199 193 83  206 200 90  209 203 93  203 197 87  203 197 87  206 202 92  198 194 86  214 210 102 195 193 84  187 184 77  195 192 85  196 193 86  195 194 86  194 193 85  195 194 86  200 200 90  192 192 82  200 198 89  204 202 93  197 195 86  204 201 94  210 207 100 202 199 94  213 210 105 212 209 106 202 198 98  197 194 91  204 199 95  203 199 92  205 201 94  212 208 101 202 199 92  197 194 87  191 190 84  208 207 101 190 191 87  203 204 100 195 193 90  205 204 98  205 204 98  195 194 86  192 189 82  201 198 91  201 200 94  205 204 98  205 204 98  209 208 102 203 200 97  192 190 87  199 196 93  205 203 100 
200 198 89  199 197 88  195 191 83  201 197 89  204 200 90  200 196 86  206 200 88  209 203 91  202 196 84  203 197 85  207 201 89  195 191 81  209 205 95  193 189 79  190 186 78  199 197 88  199 197 88  197 195 86  195 193 84  197 195 86  203 201 92  194 192 83  200 198 89  205 202 95  199 195 88  201 196 92  206 201 97  200 195 91  213 208 104 210 205 101 196 191 89  189 184 80  205 201 93  209 205 95  197 193 83  201 197 89  213 211 102 216 214 105 198 197 89  211 210 102 192 191 85  199 198 92  187 186 80  201 200 94  206 205 99  202 201 93  199 196 89  202 199 92  201 198 93  199 196 93  197 194 91  204 201 98  204 199 97  194 191 88  199 194 94  203 199 99  
201 199 90  200 198 89  195 191 83  200 196 86  205 201 91  200 197 84  204 198 86  207 201 89  199 193 81  201 195 83  204 198 86  192 186 74  198 195 82  189 185 75  193 189 79  192 188 78  201 199 88  193 191 80  198 196 85  197 195 86  202 200 91  193 191 82  200 197 90  206 203 96  199 194 90  198 193 89  200 195 91  195 190 86  210 205 101 206 202 95  191 187 80  182 178 70  198 195 82  208 205 90  193 190 77  192 189 76  209 207 96  210 208 99  196 196 86  205 204 96  197 196 88  199 198 90  196 195 87  204 203 95  203 202 94  198 197 89  198 195 88  202 199 92  202 199 94  200 197 94  201 196 94  210 205 103 206 201 99  193 188 86  198 193 91  207 202 100 
196 194 85  198 196 87  192 190 79  197 195 84  204 200 90  196 193 80  196 193 80  201 198 83  193 190 75  197 194 79  197 194 79  186 183 68  191 188 73  188 185 72  200 197 84  179 176 63  198 196 83  184 182 69  203 201 90  196 194 85  200 196 88  190 186 79  200 195 91  208 203 99  201 196 94  197 192 90  197 192 88  193 188 84  211 204 98  207 200 93  193 186 79  186 180 68  191 188 71  201 199 80  192 189 72  190 187 70  195 194 78  186 184 71  190 188 77  191 189 80  201 199 90  195 193 84  206 204 95  207 205 96  198 196 87  189 186 79  192 189 82  199 196 89  203 198 94  204 199 95  209 202 98  218 211 107 211 204 100 195 188 84  202 195 91  214 207 103 
190 188 79  195 193 84  191 189 78  196 194 83  201 198 85  192 189 76  191 188 73  197 194 79  190 187 72  195 192 77  194 191 76  184 181 66  188 185 70  190 187 72  206 203 90  170 167 52  192 191 75  175 174 58  205 203 90  195 193 82  198 194 86  187 183 76  199 194 90  210 205 101 203 198 96  198 193 89  197 192 88  193 189 82  211 204 97  208 202 92  195 189 79  191 185 71  194 192 71  193 191 68  188 186 65  191 189 70  191 190 72  179 178 62  191 189 76  179 177 64  198 196 83  180 178 65  197 195 82  199 197 84  198 196 85  192 190 81  193 191 82  195 192 85  200 196 89  195 191 84  197 190 84  213 206 100 213 206 100 201 194 88  205 196 91  214 205 100 
195 193 82  196 194 83  186 184 73  198 196 85  202 200 87  193 191 78  181 180 64  181 180 64  196 195 77  198 197 79  191 190 72  188 187 69  191 190 74  191 190 74  209 206 91  167 164 49  194 193 77  201 200 84  197 196 80  193 191 78  191 187 79  193 189 81  198 194 87  194 190 83  191 186 82  185 180 76  188 184 77  195 191 83  208 202 92  192 186 74  194 188 76  208 203 86  213 212 86  195 194 67  186 184 61  188 186 65  191 188 71  197 194 79  197 194 79  189 186 71  185 184 68  192 191 75  198 197 79  192 191 73  194 193 77  195 193 80  176 176 64  177 175 66  197 193 85  198 194 86  192 185 78  209 202 95  208 200 93  206 198 91  209 198 92  210 199 93  
203 201 90  199 197 86  182 180 69  188 186 73  192 190 77  191 189 76  184 183 67  185 186 69  195 194 76  203 204 85  202 201 83  197 196 78  190 189 73  187 186 70  201 200 84  170 169 53  196 195 77  195 194 76  187 186 70  186 185 69  188 184 74  189 185 77  195 191 83  192 188 81  193 189 82  192 188 81  196 192 84  198 194 84  204 198 86  199 193 79  202 196 82  210 205 87  207 206 80  200 199 72  196 194 71  196 194 73  197 194 77  198 195 80  194 191 76  187 184 69  185 184 66  192 192 72  196 196 76  191 191 71  196 195 77  196 195 79  178 178 64  174 174 62  197 195 84  200 196 86  195 189 79  207 201 91  207 199 90  209 201 92  212 201 93  211 200 92  
207 205 94  206 204 93  188 186 73  187 185 72  186 186 72  191 192 75  191 192 75  191 194 77  191 192 73  202 206 86  209 210 93  204 205 88  194 195 78  192 193 76  198 198 84  178 177 61  201 200 82  198 198 78  190 189 71  192 191 75  190 188 75  184 182 71  186 184 73  185 183 74  192 188 80  198 194 84  202 198 88  202 199 86  196 193 80  202 199 84  205 202 87  205 203 84  200 199 73  204 203 76  204 202 79  201 199 80  200 197 82  198 195 82  192 189 76  189 186 71  190 187 70  194 192 73  195 195 75  190 190 70  199 198 80  199 198 82  185 185 71  181 181 69  202 200 87  205 203 90  200 197 84  206 203 90  208 202 90  212 204 93  214 204 93  211 201 90  
202 200 89  208 206 93  197 195 82  195 193 80  188 189 72  192 195 78  195 198 81  193 196 79  185 189 69  195 200 80  201 204 87  199 202 85  193 196 79  196 199 82  189 192 77  177 178 61  193 194 75  201 201 81  201 200 82  203 202 84  197 196 80  188 186 73  189 187 74  188 186 73  193 190 77  201 198 85  205 202 87  206 203 88  192 189 74  200 197 80  201 198 81  198 196 77  197 196 70  205 204 78  202 200 81  196 193 78  197 194 81  197 193 83  195 191 81  197 194 81  198 195 78  199 197 78  196 194 75  190 190 70  201 200 82  202 201 85  198 198 86  198 198 86  207 207 93  209 207 94  207 205 92  209 206 93  208 205 92  211 205 93  210 202 91  210 200 89  
196 193 80  201 198 85  190 188 75  188 187 71  182 183 66  190 193 76  191 194 77  182 187 69  180 185 67  184 192 73  188 193 75  184 189 71  178 183 67  189 194 78  173 177 64  175 178 63  185 186 69  195 196 77  197 198 79  197 198 79  194 195 76  193 194 75  198 197 79  194 193 75  190 189 71  195 194 76  201 200 82  206 205 87  191 190 72  193 193 73  193 193 73  193 193 73  200 200 78  203 203 83  196 193 78  188 184 74  195 188 82  200 193 89  203 196 90  209 202 95  208 202 90  202 199 82  195 193 74  189 187 68  202 201 83  199 197 84  204 204 94  210 210 100 205 205 93  205 205 91  208 208 94  207 205 92  207 204 91  206 200 88  204 196 85  205 197 86  
194 191 78  189 186 73  172 171 55  171 172 55  173 174 57  186 189 72  185 190 72  168 176 57  172 180 61  178 186 67  180 188 69  172 180 61  162 169 53  181 188 72  163 170 56  185 190 74  191 194 77  195 196 77  187 188 69  182 183 64  184 185 66  188 189 69  194 194 74  186 186 64  179 179 59  181 181 61  188 188 68  197 197 77  191 191 71  188 188 68  191 191 71  197 197 77  206 205 87  201 200 84  192 188 78  188 184 77  196 188 87  204 196 97  210 202 101 215 208 102 211 205 95  201 195 81  190 187 70  188 185 68  204 203 87  193 191 78  201 200 92  207 206 98  193 196 83  196 199 84  207 207 95  200 200 86  201 199 88  200 197 84  200 194 84  202 194 83  
192 189 76  185 182 69  170 169 53  172 173 56  176 177 60  192 195 78  192 197 79  174 182 63  172 180 61  177 186 67  181 190 73  172 181 64  162 171 56  185 194 79  161 169 57  193 200 86  196 199 82  196 197 78  184 185 65  181 182 62  182 183 63  183 185 62  186 188 65  180 182 57  178 180 57  178 180 57  183 183 61  187 187 65  190 190 70  183 183 63  189 189 69  200 199 81  204 203 87  195 193 80  192 188 81  197 192 90  204 196 98  209 200 105 214 206 108 215 207 106 205 198 91  191 185 73  182 179 62  190 187 70  210 208 95  190 188 77  192 191 85  195 194 88  185 187 77  195 199 86  209 211 101 194 194 82  195 193 84  201 197 87  203 196 89  200 194 84  
190 186 79  188 186 77  182 180 69  188 188 74  187 190 75  202 205 88  204 209 91  189 197 78  177 184 68  181 190 73  186 193 77  178 185 69  169 176 60  192 199 83  158 165 49  189 197 78  187 191 71  187 191 71  186 187 67  190 192 69  190 192 69  186 188 65  190 192 69  189 191 68  194 194 74  192 192 72  191 191 71  185 185 65  190 190 70  178 179 59  183 185 62  195 196 76  198 197 81  188 186 75  192 189 82  205 200 98  209 204 104 211 206 106 213 208 108 211 206 102 196 192 82  181 178 63  177 174 57  191 190 72  216 214 101 189 187 76  186 185 77  185 184 76  184 186 76  200 203 90  215 218 105 192 192 80  192 190 79  204 200 90  207 203 93  199 195 85  
215 211 114 189 187 86  187 185 82  196 195 87  193 196 83  189 192 77  204 209 93  190 195 79  184 188 75  192 199 87  172 176 65  179 183 70  171 176 58  179 185 63  195 201 75  175 181 55  185 191 69  193 198 78  172 176 55  170 174 51  170 174 51  199 201 78  179 180 60  188 187 69  187 184 71  206 203 90  186 183 70  197 195 82  193 194 75  188 192 69  197 203 77  179 185 59  188 189 70  219 219 105 191 191 79  184 182 73  194 191 84  202 200 91  200 198 89  185 183 70  213 212 96  179 178 60  175 175 55  199 200 81  195 196 79  197 197 83  178 178 66  190 190 80  181 181 69  196 196 82  189 190 73  188 189 72  195 196 77  181 180 62  197 196 78  200 199 81  
195 192 95  186 184 84  184 182 79  187 186 80  180 182 72  183 186 73  200 204 91  183 187 74  175 179 68  190 194 83  178 182 69  187 192 76  171 175 55  184 188 67  201 206 80  183 188 62  188 194 72  191 197 75  176 182 60  182 188 64  177 183 57  196 200 77  180 181 61  184 183 67  187 183 73  197 193 85  183 179 71  199 197 86  193 194 75  181 185 62  188 197 68  182 191 64  193 197 77  209 210 93  187 187 73  186 186 72  190 190 78  201 201 87  197 197 83  183 187 67  204 208 88  178 182 61  168 172 51  195 199 78  186 189 72  194 197 80  179 182 69  189 192 79  183 183 69  193 194 77  180 181 64  176 180 60  192 193 73  185 189 66  200 201 81  197 201 80  
181 180 72  190 189 81  185 184 76  185 184 78  171 173 66  178 180 71  193 197 87  175 179 68  169 176 62  186 193 77  181 189 70  185 193 72  168 173 53  180 185 67  196 201 83  180 185 67  182 187 67  184 190 68  171 179 57  182 191 66  174 183 58  182 188 64  177 181 60  189 190 73  194 192 79  192 188 78  181 177 69  200 198 87  190 191 74  175 179 58  183 189 63  187 193 67  196 200 80  195 198 81  181 184 69  186 189 74  183 186 73  198 201 86  189 192 77  184 189 69  190 195 75  183 189 67  166 172 50  192 198 76  166 174 55  178 186 67  174 181 67  188 192 79  176 179 64  186 189 72  177 180 63  173 178 58  183 187 66  180 186 64  190 194 73  190 196 74  
178 178 64  190 190 78  185 185 75  189 191 81  177 179 70  179 183 73  187 191 80  173 180 66  175 182 66  186 194 75  181 189 70  172 180 61  170 177 61  179 184 68  188 192 79  176 180 67  177 182 64  183 188 68  167 175 53  174 183 58  167 176 51  159 167 45  167 172 52  194 197 80  205 205 91  194 192 81  184 182 73  196 194 83  188 187 71  181 182 62  181 185 62  183 187 64  186 190 70  187 190 73  181 184 69  184 187 72  178 181 68  193 198 82  180 185 69  186 194 73  177 185 64  188 198 75  169 179 56  186 196 73  147 156 37  157 168 48  168 178 63  183 192 77  171 178 64  177 182 66  176 181 63  178 186 65  186 192 70  180 188 66  180 186 64  176 184 62  
181 181 69  185 185 73  181 184 69  196 199 84  189 192 75  183 188 70  181 186 70  182 189 73  185 192 78  182 191 76  176 184 72  160 168 56  180 188 76  181 188 74  185 192 78  176 183 67  185 190 72  195 200 80  167 175 53  169 179 56  172 182 59  149 159 36  154 164 42  185 193 74  202 205 90  191 191 79  190 188 77  193 191 80  187 186 70  195 194 76  185 185 65  175 176 56  173 174 55  186 187 70  186 189 74  181 184 69  174 178 65  186 191 75  174 179 63  187 195 74  175 185 63  192 204 80  173 185 61  177 192 67  138 152 31  148 162 41  167 182 65  179 192 76  179 188 73  165 172 58  167 174 58  181 190 71  189 197 76  187 197 74  172 180 58  158 168 45  
193 193 83  187 187 75  189 192 77  198 202 82  194 200 78  181 187 65  169 177 56  185 194 75  191 199 87  173 181 70  174 182 73  162 170 61  181 189 78  177 186 71  180 189 72  176 184 65  190 195 75  195 203 82  166 174 52  171 181 58  183 195 71  152 163 41  153 164 44  169 178 59  186 191 75  180 183 70  196 196 84  196 194 81  189 186 73  204 201 86  186 185 67  172 171 53  169 168 52  183 184 67  193 193 79  183 186 71  173 176 63  178 182 69  172 179 63  183 192 73  180 190 68  189 201 77  171 186 61  165 181 56  142 158 36  148 166 44  171 189 71  174 189 72  178 188 75  153 163 50  162 171 56  175 186 66  172 182 60  178 188 65  163 173 50  148 158 35  
202 201 93  194 194 84  202 205 90  191 195 75  185 191 67  171 177 51  156 164 42  182 191 72  188 196 84  159 168 59  175 184 79  179 188 81  169 178 69  166 176 61  172 183 63  173 183 61  185 193 72  187 195 74  164 172 51  171 182 60  179 193 70  150 164 41  160 174 53  161 172 52  170 177 61  170 175 59  203 203 89  204 202 89  188 185 72  199 196 81  183 180 65  180 179 63  177 176 60  178 178 64  197 197 85  189 192 79  173 176 63  171 175 62  179 186 70  176 185 66  181 191 69  180 191 69  170 185 60  150 166 41  138 156 34  140 160 37  165 184 66  161 179 61  166 179 65  141 154 40  160 170 55  167 180 62  152 163 43  173 184 62  170 182 58  155 167 43  
199 198 90  192 194 84  207 210 97  178 183 65  171 176 56  160 168 46  147 157 35  179 188 71  179 189 76  147 157 45  178 187 78  198 207 98  159 169 57  161 171 56  173 184 64  176 186 64  184 192 71  182 190 69  164 173 54  171 182 60  168 182 61  142 158 36  168 182 61  158 172 51  166 175 58  164 171 55  206 209 94  209 209 95  184 182 69  190 187 74  178 175 62  190 187 74  188 186 73  175 173 60  198 198 86  198 198 86  172 175 62  167 170 57  188 192 79  170 177 61  178 187 68  173 184 62  169 183 60  138 154 30  132 150 28  127 147 26  154 173 55  150 167 52  161 175 62  133 145 33  154 167 53  164 177 59  151 165 44  189 203 80  194 206 82  172 184 60  
215 218 105 218 221 108 176 178 68  185 189 78  171 175 64  165 172 60  183 191 79  149 158 43  179 189 74  154 164 49  177 188 70  161 172 54  161 171 56  159 169 54  152 161 46  187 196 79  194 201 85  165 173 54  162 171 54  157 168 48  169 182 64  134 149 30  150 165 46  163 176 58  174 183 64  162 170 51  187 190 73  195 196 79  191 191 77  187 185 72  195 193 80  168 166 55  182 180 69  192 190 79  196 196 86  192 192 82  182 184 74  185 188 75  200 204 91  174 181 65  187 196 77  169 180 60  179 193 72  150 166 44  117 133 11  143 161 41  143 161 43  148 165 50  167 181 68  140 154 41  164 178 64  172 187 68  148 162 41  189 203 80  189 204 79  177 192 67  
198 201 88  207 210 97  180 184 74  191 195 85  182 188 80  178 184 76  197 205 94  166 174 62  161 171 56  183 194 76  165 176 56  163 174 54  161 172 54  154 164 49  164 173 58  172 179 65  179 183 70  179 186 72  173 182 67  171 181 66  187 200 84  146 161 44  149 164 45  154 167 49  159 170 50  170 178 59  198 203 85  194 197 80  192 195 80  186 189 74  193 193 81  175 175 63  183 183 71  180 180 70  185 185 75  187 189 79  188 190 81  199 203 92  200 204 93  181 188 74  200 209 92  186 195 76  171 182 62  140 153 35  107 120 2   142 157 40  140 154 40  146 160 47  172 186 75  146 160 47  170 184 70  196 211 92  143 157 36  169 184 59  179 194 69  170 185 60  
190 194 84  201 205 95  193 197 87  193 197 87  192 198 88  184 190 80  194 202 91  175 183 71  146 154 42  207 216 101 154 163 48  161 170 55  153 162 47  150 159 44  183 190 76  178 185 71  179 183 70  190 197 85  176 184 72  184 194 81  180 193 79  151 164 50  149 162 46  139 152 34  150 161 41  172 180 59  199 204 84  184 189 71  187 192 76  182 187 71  177 184 70  171 175 64  185 189 78  180 182 73  190 192 83  184 188 78  178 181 74  202 206 96  186 190 80  178 185 73  188 197 82  192 201 84  169 178 61  156 167 49  118 128 13  143 156 42  143 155 43  163 175 65  166 178 68  151 163 53  167 180 66  198 211 93  150 161 39  146 158 34  175 187 63  184 196 70  
186 189 84  190 193 86  199 203 93  178 185 73  191 198 86  184 191 77  175 184 69  184 192 80  162 170 59  202 210 99  167 175 66  173 181 72  164 172 61  167 174 62  179 186 72  185 189 76  181 185 74  177 183 73  177 183 73  192 200 89  161 170 61  147 159 47  160 170 57  152 163 45  165 174 55  170 178 57  189 197 76  173 181 60  181 189 70  175 184 67  164 174 61  159 169 56  184 192 81  179 185 75  192 198 90  170 176 68  159 165 57  196 202 94  169 177 68  165 173 62  153 161 49  176 185 70  161 170 55  179 188 73  145 155 42  156 166 54  158 167 58  190 199 90  162 171 64  154 166 56  154 164 51  174 185 67  167 178 56  136 148 24  165 177 51  177 189 63  
174 179 76  168 174 68  188 194 84  157 164 50  184 192 73  184 194 72  160 169 50  194 203 88  198 206 97  183 190 86  201 206 106 198 203 103 191 196 93  196 199 92  159 163 50  181 185 72  181 185 75  156 162 54  179 185 77  182 190 81  171 178 72  155 164 55  180 188 76  186 195 80  186 196 74  168 176 54  185 193 71  171 179 57  174 185 65  165 178 60  150 164 50  148 162 49  177 189 79  158 170 60  174 186 78  153 165 57  151 160 53  188 197 88  164 173 64  161 171 59  144 154 41  168 178 65  157 165 53  176 184 72  156 164 52  163 171 60  176 184 75  201 208 102 173 180 74  167 176 67  151 159 47  165 174 57  174 184 62  142 152 29  157 167 42  152 163 35  
173 179 73  160 166 58  183 190 78  150 157 41  172 182 60  183 193 71  155 164 47  184 192 80  205 212 106 169 176 73  217 221 124 198 202 105 190 192 93  198 201 98  155 157 50  201 203 94  200 203 96  160 163 56  177 183 77  157 164 58  195 202 96  168 176 67  187 195 84  194 203 88  187 195 74  162 170 48  178 187 62  157 167 44  156 170 47  149 164 45  130 149 33  136 155 40  168 185 73  139 156 44  165 181 72  152 168 59  151 164 56  162 175 67  159 172 64  165 177 67  168 180 68  192 202 89  184 192 80  167 175 63  148 156 45  156 164 55  189 196 90  198 205 99  180 187 81  181 189 80  170 178 66  180 189 72  159 169 47  153 163 38  168 179 51  159 170 42  
183 190 74  167 174 58  188 195 79  163 170 54  167 176 59  181 190 75  163 171 59  155 163 52  173 179 73  168 173 70  206 208 107 184 186 85  178 178 80  189 189 91  166 163 66  204 204 104 206 209 106 176 179 74  182 187 84  162 167 64  199 204 101 173 179 73  183 189 79  176 183 69  179 184 64  163 171 49  172 181 56  134 146 22  141 157 33  144 162 42  123 144 27  133 156 40  157 177 64  130 150 39  170 189 81  160 179 71  155 173 65  142 158 49  163 179 70  170 184 73  179 191 79  198 210 98  212 222 109 171 181 68  157 165 54  155 163 54  202 208 102 191 197 91  174 180 74  186 192 82  190 197 85  191 198 82  165 173 51  173 182 57  182 191 64  179 188 59  
185 194 77  171 180 63  191 200 81  177 186 67  167 176 59  184 193 78  179 187 75  137 145 33  136 145 30  174 181 69  185 191 85  180 182 81  185 187 88  189 190 96  167 166 74  168 167 74  181 181 81  181 184 79  197 203 97  195 202 96  185 192 86  168 175 69  180 186 76  164 171 57  178 186 65  175 184 59  171 183 57  117 133 8   138 156 34  153 174 53  129 153 33  144 167 50  146 169 53  121 144 28  168 188 75  161 179 69  165 183 71  146 163 51  182 196 85  173 185 73  167 176 67  176 186 74  211 221 109 178 188 76  182 190 79  171 177 69  211 218 114 180 187 83  168 174 66  184 190 80  193 200 88  185 192 76  193 201 82  195 203 81  178 187 62  168 177 52  
160 169 60  172 182 69  185 196 74  152 164 40  157 168 46  189 200 80  181 192 74  149 160 38  173 186 55  172 182 57  140 148 39  186 191 91  158 163 63  200 204 109 166 166 78  161 161 71  201 201 103 200 203 98  186 192 82  148 158 46  158 167 58  185 194 85  166 172 62  181 188 74  178 186 64  189 201 73  149 168 40  118 140 13  134 158 36  150 174 54  141 162 41  135 156 35  143 167 43  153 175 51  156 173 58  184 198 84  144 162 44  146 164 44  201 212 94  187 194 80  157 163 55  150 156 50  188 197 90  166 175 66  186 192 82  197 203 95  182 191 86  170 181 76  155 164 55  161 171 59  189 199 87  187 195 83  204 213 98  187 196 79  174 183 66  153 162 43  
170 181 76  175 187 75  176 190 67  129 144 17  154 169 44  173 187 64  170 181 61  146 158 32  168 182 45  169 182 50  159 167 56  208 214 114 180 187 84  210 216 118 194 197 106 172 172 82  192 192 94  204 205 101 197 205 93  170 180 65  147 159 47  172 182 70  190 196 86  173 180 64  195 205 80  169 185 53  164 185 54  129 156 27  109 137 16  137 162 42  138 159 38  99  121 0   116 138 11  146 166 41  174 187 71  153 166 52  144 162 42  169 185 63  189 198 79  183 188 72  161 163 56  167 170 67  178 187 80  187 196 87  187 191 81  191 197 87  174 185 80  163 176 71  146 160 49  157 171 58  189 201 89  165 177 65  172 182 69  136 146 33  202 212 97  141 151 36  
172 184 76  158 170 58  166 180 57  145 160 33  166 181 56  172 186 63  171 182 62  152 164 40  154 168 33  156 169 37  161 169 58  200 207 104 175 182 78  197 204 101 224 228 133 195 196 102 195 195 95  203 205 98  184 192 80  174 187 71  143 156 42  182 192 79  201 209 97  176 183 67  188 198 73  146 163 31  157 180 48  136 163 34  130 158 37  110 138 17  123 147 25  111 133 9   132 154 28  128 148 25  156 169 55  150 160 48  135 150 33  176 192 70  165 174 55  182 186 73  174 176 69  179 182 79  163 172 65  198 210 100 194 201 89  200 206 96  180 191 86  163 179 72  152 169 57  157 174 60  176 190 77  137 151 38  142 155 41  113 126 12  201 214 98  123 136 20  
163 175 67  134 147 33  159 174 49  181 196 69  161 176 51  159 173 52  170 181 63  165 176 54  154 168 33  164 177 46  168 176 64  184 191 87  163 170 64  170 177 71  218 223 123 193 195 96  175 176 74  188 192 82  167 177 62  170 183 65  146 159 43  190 203 89  180 188 76  185 194 75  158 170 42  150 167 35  148 171 39  143 173 43  145 175 53  113 141 22  128 152 32  151 172 51  151 173 49  135 153 33  145 155 43  144 154 42  130 144 30  158 171 53  161 168 52  188 192 79  184 185 81  174 179 76  162 174 66  183 195 85  194 201 89  195 203 91  173 186 80  159 177 69  158 176 64  163 183 68  171 190 75  139 158 43  149 166 51  167 184 69  197 214 99  158 176 58  
167 179 69  137 150 36  162 177 52  183 198 71  145 159 36  139 153 32  166 176 61  174 185 65  175 188 56  195 208 77  189 197 85  182 189 83  170 178 67  159 167 56  187 193 87  161 167 61  144 147 40  172 179 67  169 180 60  174 190 68  154 169 50  180 195 78  164 174 59  176 185 66  151 163 35  154 174 41  155 181 48  154 184 54  123 153 31  139 168 49  148 173 53  159 180 59  134 155 34  162 180 62  165 174 65  136 144 35  154 166 54  143 156 40  182 189 73  196 199 86  177 178 74  161 166 63  179 191 83  156 170 59  182 190 78  171 179 67  147 160 54  147 165 57  143 166 50  157 180 63  166 187 70  135 156 39  128 147 32  178 197 82  154 173 58  148 167 51  
179 191 81  157 170 56  166 181 56  166 181 54  160 174 51  160 173 55  182 192 79  176 187 67  183 196 64  204 217 86  183 192 77  164 172 63  165 174 59  167 176 61  170 177 65  156 162 52  159 163 52  169 178 63  163 177 54  167 186 60  157 175 55  174 189 70  177 188 70  151 162 40  163 178 49  128 148 14  151 177 42  142 173 43  121 153 30  137 166 47  150 175 55  154 178 56  145 165 44  164 178 64  173 180 74  170 177 71  185 197 85  155 168 54  197 201 88  196 198 88  174 175 71  158 163 60  183 194 89  140 154 43  181 189 77  162 172 59  134 150 41  141 160 52  137 160 44  147 172 54  161 184 67  141 164 47  133 156 40  184 204 89  163 183 68  154 174 59  
172 184 72  159 172 56  166 181 56  168 183 56  175 189 68  185 198 82  193 203 91  164 175 57  168 181 50  192 205 74  172 181 66  153 161 50  155 164 47  180 189 70  166 173 57  170 177 61  187 194 80  169 178 59  152 167 42  151 170 42  136 154 32  163 181 59  169 183 62  147 159 35  161 177 45  114 136 1   130 158 22  123 154 24  122 154 31  118 149 29  152 180 59  138 162 42  178 197 79  148 162 49  170 177 73  190 195 92  188 200 90  178 191 77  191 195 82  191 193 83  184 187 82  180 185 82  167 178 73  135 149 38  170 180 67  154 164 51  127 143 34  140 162 51  137 162 45  128 156 37  144 169 51  137 162 44  146 171 54  160 183 67  152 175 61  149 172 58  
151 163 51  145 158 42  163 178 53  182 197 70  156 170 49  173 186 70  180 190 78  145 155 40  157 170 39  191 204 73  187 196 81  172 180 68  162 171 52  192 202 79  159 167 48  168 176 57  183 190 74  163 172 53  151 168 40  145 164 36  100 120 0   139 157 35  133 147 26  163 178 53  143 159 27  137 159 24  120 148 12  120 153 22  90  122 0   120 151 31  173 202 83  102 127 7   181 200 84  151 165 52  188 193 91  154 159 57  172 184 74  192 205 91  184 188 77  187 189 79  197 200 97  207 214 110 154 165 60  134 148 37  143 153 40  124 137 23  109 125 16  135 157 46  136 161 44  117 145 26  141 166 48  147 172 54  175 200 83  160 185 68  157 180 66  186 209 95  
