ply
format ascii 1.0
comment Created in Blender version 4.3.2
element vertex 63
property float x
property float y
property float z
property float s
property float t
element face 80
property list uchar uint vertex_indices
end_header
0 0.7629687 -0.2 0.181819 0
0.08506454 0.70116645 -0.17013083 0.2272735 0.0787305
-0.032491114 0.66296965 -0.1701309 0.1363645 0.0787305
0.14472146 0.6578237 -0.08944391 0.272728 0.157461
0.08506454 0.70116645 -0.17013083 0.3181825 0.0787305
0.17012958 0.7629687 -0.10514718 0.363637 0.157461
0 0.7629687 -0.2 0.909091 0
-0.032491114 0.66296965 -0.1701309 0.9545455 0.0787305
-0.10514595 0.7629687 -0.17013034 0.8636365 0.0787305
0 0.7629687 -0.2 0.727273 0
-0.10514595 0.7629687 -0.17013034 0.7727275 0.0787305
-0.032491114 0.8629678 -0.1701309 0.6818185 0.0787305
0 0.7629687 -0.2 0.545455 0
-0.032491114 0.8629678 -0.1701309 0.5909095 0.0787305
0.08506454 0.824771 -0.17013083 0.5000005 0.0787305
0.19021158 0.7011662 0 0.3181825 0.236191
-0.055277605 0.5928389 -0.089443974 0.09091 0.157461
0.052573767 0.60116637 -0.10514753 0.18181899 0.157461
0 0.56296873 0 0.1363645 0.236191
-0.17888525 0.7629687 -0.089443125 0.818182 0.157461
-0.13763788 0.66296935 -0.10514724 0.909091 0.157461
-0.19021158 0.7011662 0 0.8636365 0.236191
-0.055277605 0.93309855 -0.089443974 0.636364 0.157461
-0.13763788 0.8629681 -0.10514724 0.727273 0.157461
-0.11755712 0.9247721 0 0.6818185 0.236191
0.14472146 0.86811376 -0.08944391 0.454546 0.157461
0.052573767 0.9247711 -0.10514753 0.545455 0.157461
0.11755712 0.9247721 0 0.5000005 0.236191
0.11755712 0.60116535 0 0.2272735 0.236191
-0.11755712 0.60116535 0 0.045455 0.236191
-0.19021158 0.8247712 0 0.7727275 0.236191
0 0.9629687 0 0.5909095 0.236191
0.19021158 0.8247712 0 0.4090915 0.236191
0.055277605 0.5928389 0.089443974 0.181819 0.314921
0.13763788 0.66296935 0.10514724 0.272728 0.314921
0.032491114 0.66296965 0.17013088 0.2272735 0.3936515
-0.14472146 0.6578237 0.08944391 0 0.314921
-0.052573767 0.60116637 0.10514753 0.0909095 0.314921
-0.08506454 0.70116645 0.17013083 0.045455 0.3936515
-0.14472146 0.86811376 0.08944391 0.727273 0.314921
-0.17012958 0.7629687 0.10514718 0.818182 0.314921
-0.08506454 0.824771 0.17013083 0.7727275 0.3936515
0.055277605 0.93309855 0.089443974 0.545455 0.314921
-0.052573767 0.9247711 0.10514753 0.636364 0.314921
0.032491114 0.8629678 0.17013088 0.5909095 0.3936515
0.17888525 0.7629687 0.089443125 0.363637 0.314921
0.13763788 0.8629681 0.10514724 0.45454597 0.314921
0.10514595 0.7629687 0.17013034 0.4090915 0.3936515
0.032491114 0.8629678 0.17013088 0.5000005 0.3936515
0 0.7629687 0.2 0.454546 0.472382
-0.08506454 0.824771 0.17013083 0.6818185 0.3936515
0 0.7629687 0.2 0.636364 0.472382
-0.08506454 0.70116645 0.17013083 0.8636365 0.3936515
0 0.7629687 0.2 0.818182 0.472382
-0.14472146 0.6578237 0.08944391 0.909091 0.314921
0.032491114 0.66296965 0.17013088 0.1363645 0.3936515
0 0.7629687 0.2 0.09091 0.472382
0.10514595 0.7629687 0.17013034 0.3181825 0.3936515
0 0.7629687 0.2 0.272728 0.472382
-0.11755712 0.60116535 0 0.9545455 0.236191
-0.055277605 0.5928389 -0.089443974 1 0.157461
0.08506454 0.824771 -0.17013083 0.4090915 0.0787305
0 0.7629687 -0.2 0.363637 0
3 0 1 2
3 3 4 5
3 6 7 8
3 9 10 11
3 12 13 14
3 3 5 15
3 16 17 18
3 19 20 21
3 22 23 24
3 25 26 27
3 3 15 28
3 16 18 29
3 19 21 30
3 22 24 31
3 25 27 32
3 33 34 35
3 36 37 38
3 39 40 41
3 42 43 44
3 45 46 47
3 47 48 49
3 47 46 48
3 46 42 48
3 44 50 51
3 44 43 50
3 43 39 50
3 41 52 53
3 41 40 52
3 40 54 52
3 38 55 56
3 38 37 55
3 37 33 55
3 35 57 58
3 35 34 57
3 34 45 57
3 32 46 45
3 32 27 46
3 27 42 46
3 31 43 42
3 31 24 43
3 24 39 43
3 30 40 39
3 30 21 40
3 21 54 40
3 29 37 36
3 29 18 37
3 18 33 37
3 28 34 33
3 28 15 34
3 15 45 34
3 27 31 42
3 27 26 31
3 26 22 31
3 24 30 39
3 24 23 30
3 23 19 30
3 21 59 54
3 21 20 59
3 20 60 59
3 18 28 33
3 18 17 28
3 17 3 28
3 15 32 45
3 15 5 32
3 5 25 32
3 14 26 25
3 14 13 26
3 13 22 26
3 11 23 22
3 11 10 23
3 10 19 23
3 8 20 19
3 8 7 20
3 7 60 20
3 5 61 25
3 5 4 61
3 4 62 61
3 2 17 16
3 2 1 17
3 1 3 17
