ply
format ascii 1.0
comment Created in Blender version 4.3.2
element vertex 389
property float x
property float y
property float z
property float s
property float t
element face 494
property list uchar uint vertex_indices
end_header
-0.45972198 -0.5443391 0.49134958 0.956 0.9087
-0.4308245 -0.5402681 0.5661018 0.9632 0.8425
-0.41591328 -0.57630384 0.5326257 0.9299 0.8577
-0.4103843 -0.5754131 0.59854466 0.9307 0.788
-0.4768667 -0.53611106 0.6543456 0.9868 0.6996
-0.4620278 -0.5782775 0.68645936 0.9267 0.6826
-0.5570081 -0.57396233 0.7298568 0.9492 0.6036
-0.4437638 -0.6748226 0.70701 0.8438 0.6549
-0.5570078 -0.66448766 0.7562214 0.871 0.5583
-0.43673328 -0.75195116 0.70777076 0.7915 0.6414
-0.5570075 -0.7452164 0.754761 0.8121 0.5352
-0.43707168 -0.84285384 0.6982254 0.7425 0.6291
-0.5570075 -0.8352128 0.74223745 0.774 0.5203
-0.5570075 -0.8643594 0.80427086 0.6955 0.4849
-0.6769433 -0.84285355 0.6982254 0.7425 0.6291
-0.6273494 -0.92079204 0.73000526 0.6489 0.5876
-0.7249562 -0.9170685 0.6523281 0.6327 0.6689
-0.6640847 -0.95674974 0.66524816 0.5879 0.6994
-0.6925175 -0.9592917 0.5466084 0.5922 0.7789
-0.3474278 -0.8098842 0.53916144 0.4801 0.59
-0.36856788 -0.8136305 0.46335986 0.3464 0.6097
-0.36185056 -0.74972725 0.51900715 0.3994 0.6945
-0.42675918 -0.7174748 0.41611376 0.2298 0.7239
-0.41250378 -0.81842005 0.41018456 0.2511 0.6091
-0.4731248 -0.77333516 0.38876277 0.151 0.6581
-0.5089289 -0.8407773 0.39901766 0.0977 0.5688
-0.5570075 -0.77594936 0.37969708 0.0222 0.6454
-0.5570075 -0.8458077 0.39110577 0.0222 0.5547
-0.6050861 -0.8407773 0.39901766 0.0977 0.5688
-0.5934407 -0.91920984 0.44856086 0.0838 0.4402
-0.6945749 -0.9157572 0.44870245 0.2643 0.4594
-0.6925175 -0.9592917 0.5466084 0.3574 0.3508
-0.7357799 -0.91527444 0.49797988 0.366 0.4213
-0.7515416 -0.9151709 0.56178266 0.4925 0.4047
-0.7665872 -0.80988383 0.5391618 0.4801 0.59
-0.677282 -0.75195146 0.70777076 0.7915 0.6414
-0.6702521 -0.6748229 0.7070097 0.8438 0.6549
-0.6519881 -0.5782778 0.68645906 0.9267 0.6826
-0.6371492 -0.53611135 0.6543453 0.9868 0.6996
-0.7036316 -0.57541347 0.59854436 0.9307 0.788
-0.6831911 -0.5402684 0.5661015 0.9632 0.8425
-0.6981023 -0.57630414 0.5326254 0.9299 0.8577
-0.6542936 -0.5443394 0.49134928 0.956 0.9087
-0.68975 -0.5990375 0.48132417 0.9078 0.9077
-0.6016217 -0.9587177 0.53958505 0.1015 0.352
-0.5570075 -0.9217782 0.44158527 0.0222 0.4416
-0.5205743 -0.91920984 0.44856086 0.0838 0.4402
-0.4194404 -0.9157572 0.44870245 0.2643 0.4594
-0.3782354 -0.91527444 0.49797988 0.366 0.4213
-0.7796633 -0.6534581 0.49481067 0.6711 0.9868
-0.8367851 -0.709325 0.48875487 0.6184 0.9925
-0.8002982 -0.631385 0.5128833 0.6609 0.9577
-0.8867576 -0.70460963 0.516423 0.5966 0.9532
-0.87596035 -0.75795835 0.50141335 0.5665 0.9745
-0.92560637 -0.77095103 0.54735535 0.5508 0.9348
-0.90092146 -0.8025042 0.53311527 0.5323 0.9374
-0.9320075 -0.80911493 0.58386296 0.529 0.8871
-0.9153047 -0.8390235 0.5787192 0.5083 0.8748
-0.9258887 -0.80555606 0.6227013 0.5301 0.8657
-0.9090842 -0.83348036 0.6236175 0.5209 0.8544
-0.8936525 -0.8023428 0.6557838 0.5336 0.834
-0.6016217 -0.9587177 0.53958505 0.5165 0.7429
-0.5570075 -0.95618755 0.53272915 0.5132 0.6489
-0.6125864 -0.95779526 0.66699237 0.5723 0.6673
-0.5570075 -0.9279249 0.7295133 0.5695 0.5634
-0.5014286 -0.95779526 0.66699237 0.5723 0.6673
-0.48666558 -0.92079204 0.73000526 0.6489 0.5876
-0.44993028 -0.95674974 0.66524816 0.5879 0.6994
-0.38905877 -0.9170685 0.6523278 0.6327 0.6689
-0.4214978 -0.9592917 0.5466081 0.5922 0.7789
-0.36247367 -0.91517127 0.56178266 0.6332 0.7719
-0.6976112 -1.0010501 0.46841848 0.4502 0.9587
-0.7526102 -1.0010535 0.44167587 0.4931 0.9789
-0.6931886 -0.9824877 0.4903164 0.4475 0.9176
-0.6925175 -0.9592917 0.54875845 0.4503 0.8672
-0.6731333 -1.0010469 0.6721248 0.4685 0.7703
-0.6640847 -0.95674974 0.66524816 0.4532 0.7989
-0.6040547 -1.0010442 0.6726501 0.3825 0.7724
-0.6125864 -0.95779526 0.66699237 0.3958 0.7987
-0.6016217 -0.9587177 0.53958505 0.3933 0.8679
-0.3878156 -0.67741406 0.5020776 0.3405 0.81
-0.4430633 -0.6462563 0.43027347 0.203 0.8489
-0.5570075 -0.7067565 0.38879007 0.0222 0.7525
-0.5570075 -0.631376 0.41298747 0.0222 0.8726
-0.670952 -0.6462566 0.43027347 0.203 0.8489
-0.6405461 -0.55756104 0.47019207 0.1575 0.9856
-0.68975 -0.5990375 0.48132417 0.2621 0.9273
-0.7261997 -0.67741436 0.5020773 0.3405 0.81
-0.6872561 -0.7174748 0.41611376 0.2298 0.7239
-0.6408902 -0.77333516 0.38876277 0.151 0.6581
-0.7665872 -0.80988383 0.5391618 0.7177 0.8254
-0.7469645 -0.75331974 0.6213264 0.7751 0.7386
-0.7521644 -0.74972755 0.5190072 0.7741 0.8652
-0.72451997 -0.67457634 0.6231195 0.8366 0.7518
-0.7017842 -0.6040667 0.6175005 0.8997 0.7659
-0.4214978 -0.9592917 0.5466081 0.3574 0.3508
-0.5123936 -0.9587177 0.53958476 0.1015 0.352
-0.5570075 -0.95618755 0.53272915 0.0205 0.3537
-0.42426527 -0.59903723 0.48132446 0.2621 0.9273
-0.4734695 -0.55756104 0.47019237 0.1575 0.9856
-0.5570078 -0.5487902 0.4649526 0.0222 0.9989
-0.7521644 -0.74972755 0.5190072 0.3994 0.6945
-0.7454474 -0.8136305 0.46335986 0.3464 0.6097
-0.7015112 -0.81842005 0.41018456 0.2511 0.6091
-0.7526102 -1.0010535 0.44167587 0.4766 0.2048
-0.6976112 -1.0010501 0.46841848 0.473 0.2214
-0.6731333 -1.0010469 0.6721248 0.3823 0.2265
-0.6040547 -1.0010442 0.6726501 0.3821 0.257
-0.62504447 -1.0010471 0.46325007 0.4749 0.2463
-0.57676727 -1.0010457 0.42630717 0.484 0.2644
-0.7036316 -0.57541347 0.59854436 0.7669 0.8942
-0.6981023 -0.57630414 0.5326254 0.7667 0.9465
-0.80436707 -0.62780005 0.6061389 0.6641 0.8669
-0.7024493 -0.60308754 0.51515996 0.7376 0.9721
-0.5570078 -0.5487902 0.4649526 0.9542 0.9765
-0.45972198 -0.5443391 0.49134958 0.956 0.9087
-0.4734695 -0.55756104 0.47019237 0.9462 0.9362
-0.45972198 -0.5443391 0.49134958 0.956 0.9087
-0.42426527 -0.59903723 0.48132446 0.9078 0.9077
-0.45972198 -0.5443391 0.49134958 0.956 0.9087
-0.4115663 -0.60308725 0.51516026 0.9071 0.8673
-0.7515416 -0.9151709 0.56178266 0.6332 0.7719
-0.7523543 -0.8445488 0.6402759 0.6981 0.7162
-0.7796633 -0.6534581 0.49481067 0.5175 0.3135
-0.8032706 -0.73277515 0.56947887 0.5745 0.2707
-0.8367851 -0.709325 0.48875487 0.514 0.2682
-0.8486405 -0.7878767 0.57862437 0.5822 0.232
-0.8320172 -0.71347797 0.6651228 0.6321 0.2702
-0.8675543 -0.7602956 0.6683898 0.6347 0.2245
-0.7024493 -0.60308754 0.51515996 0.5274 0.3731
-0.7528046 -0.66283584 0.56751776 0.5684 0.3066
-0.7784744 -0.65564096 0.63675535 0.6212 0.3075
-0.57676727 -1.0010457 0.42630717 0.3503 0.9793
-0.6244676 -0.9843564 0.47970566 0.395 0.9177
-0.62504447 -1.0010471 0.46325007 0.3891 0.961
-0.6643268 -1.0010499 0.4038036 0.419 0.997
-0.41640407 -1.0010501 0.46841848 0.4502 0.9587
-0.4496885 -1.0010499 0.40380388 0.419 0.997
-0.42082667 -0.9824874 0.49031666 0.4475 0.9176
-0.48954767 -0.9843564 0.47970566 0.395 0.9177
-0.4889705 -1.0010471 0.46325007 0.3891 0.961
-0.537248 -1.0010457 0.42630747 0.3503 0.9793
-0.5123936 -0.9587177 0.53958476 0.3933 0.8679
-0.4214978 -0.9592917 0.54875845 0.4503 0.8672
-0.36140507 -1.0010531 0.44167617 0.4931 0.9789
-0.36705077 -0.75331944 0.6213267 0.7751 0.7386
-0.3894956 -0.67457604 0.6231198 0.8366 0.7518
-0.36185056 -0.74972725 0.51900715 0.7741 0.8652
-0.3878156 -0.67741406 0.5020776 0.8372 0.8905
-0.3474278 -0.8098842 0.53916144 0.7177 0.8254
-0.36166066 -0.8445488 0.6402759 0.6981 0.7162
-0.8899724 -0.70225406 0.6244938 0.6047 0.856
-0.9217466 -0.76834315 0.6280653 0.5519 0.8567
-0.7117358 -0.6248822 0.5638512 0.8998 0.8229
-0.7024493 -0.60308754 0.51515996 0.9071 0.8673
-0.7261997 -0.67741436 0.5020773 0.8372 0.8905
-0.7017842 -0.6040667 0.6175005 0.7494 0.8696
-0.7784744 -0.65564096 0.63675535 0.6641 0.834
-0.8320172 -0.71347797 0.6651228 0.6212 0.8179
-0.5099603 -1.0010442 0.6726501 0.3825 0.7724
-0.5014286 -0.95779526 0.66699237 0.3958 0.7987
-0.44993028 -0.95674974 0.66524816 0.4532 0.7989
-0.440882 -1.0010469 0.6721248 0.4685 0.7703
-0.7017842 -0.6040667 0.6175005 0.5981 0.3826
-0.7117358 -0.6248822 0.5638512 0.5636 0.3788
-0.537248 -1.0010457 0.42630747 0.484 0.2644
-0.4889705 -1.0010471 0.46325007 0.4749 0.2463
-0.5099603 -1.0010442 0.6726501 0.3821 0.257
-0.41640407 -1.0010501 0.46841848 0.473 0.2214
-0.4496885 -1.0010499 0.40380388 0.4924 0.2333
-0.8675543 -0.7602956 0.6683898 0.5702 0.8142
-0.41223168 -0.60406643 0.6175008 0.8997 0.7659
-0.5570081 -0.52945554 0.68553627 0.99 0.6437
-0.36140507 -1.0010531 0.44167617 0.4766 0.2048
-0.440882 -1.0010469 0.6721248 0.3823 0.2265
-0.8936525 -0.8023428 0.6557838 0.6218 0.1942
-0.9090842 -0.83348036 0.6236175 0.6075 0.1826
-0.9153047 -0.8390235 0.5787192 0.5938 0.1716
-0.90092146 -0.8025042 0.53311527 0.551 0.1934
-0.87596035 -0.75795835 0.50141335 0.5261 0.2222
-0.6405461 -0.55756104 0.47019207 0.9462 0.9362
-0.36247367 -0.91517127 0.56178266 0.4925 0.4047
-0.4022798 -0.6248819 0.5638515 0.8998 0.8229
-0.6643268 -1.0010499 0.4038036 0.4924 0.2333
-0.5123936 -0.9587177 0.53958476 0.5165 0.7429
-0.48624018 -0.48581514 0.4163229 0.6778 0.4491
-0.5570078 -0.5487902 0.4649526 0.5693 0.4385
-0.5570078 -0.50256777 0.41102368 0.6327 0.4867
-0.6277754 -0.48581514 0.4163229 0.6778 0.4491
-0.6542936 -0.5443394 0.49134928 0.6207 0.3853
-0.682088 -0.5154005 0.48291868 0.6692 0.3699
-0.6831911 -0.5402684 0.5661015 0.6439 0.2899
-0.7235576 -0.49212083 0.5593695 0.7007 0.2738
-0.7127954 -0.49524474 0.6240861 0.7036 0.211
-0.7309778 -0.43015945 0.56001925 0.738 0.2748
-0.7152434 -0.43556935 0.6273975 0.7307 0.2118
-0.6902294 -0.37601092 0.63715374 0.7873 0.2081
-0.6511085 -0.42155033 0.7061742 0.7595 0.1529
-0.6439436 -0.34848893 0.6544218 0.843 0.2219
-0.5570081 -0.40246284 0.73308146 0.8427 0.1049
-0.5570081 -0.33372742 0.6723192 0.9 0.1913
-0.4700729 -0.34848863 0.6544221 0.843 0.2219
-0.4685768 -0.3245435 0.57485247 0.8468 0.2817
-0.4112609 -0.36223644 0.5678952 0.7981 0.2784
-0.47739887 -0.32641312 0.50934595 0.8516 0.3396
-0.4186964 -0.3640142 0.50777006 0.7954 0.3403
-0.44064048 -0.36486593 0.47294667 0.807 0.3842
-0.42103338 -0.37984315 0.48239577 0.7834 0.3763
-0.6371492 -0.53611135 0.6543453 0.6402 0.1443
-0.6618506 -0.49894193 0.6860463 0.6886 0.1516
-0.5570081 -0.52945554 0.68553627 0.6202 0.0887
-0.6163214 -0.47685263 0.759564 0.698 0.1008
-0.5570081 -0.48659545 0.7627302 0.6614 0.0602
-0.5570081 -0.41003183 0.8148864 0.7882 0.0227
-0.4976948 -0.47685233 0.759564 0.698 0.1008
-0.46290797 -0.42155004 0.7061742 0.7595 0.1529
-0.4521656 -0.49894166 0.6860466 0.6886 0.1516
-0.39877278 -0.43556905 0.6273978 0.7307 0.2118
-0.4012205 -0.49524444 0.6240864 0.7036 0.211
-0.3830381 -0.43015912 0.56001955 0.738 0.2748
-0.3904583 -0.49212053 0.55936974 0.7007 0.2738
-0.39735228 -0.42399055 0.5013897 0.7412 0.3421
-0.4775357 -0.44326162 0.38994658 0.3887 0.0876
-0.506207 -0.44817504 0.35820776 0.3611 0.0714
-0.5123813 -0.4576547 0.40410987 0.3446 0.1062
-0.5252234 -0.44980404 0.34727454 0.3275 0.0531
-0.5238149 -0.44000936 0.33095366 0.3344 0.0084
-0.5361731 -0.44306815 0.33368218 0.3088 0.0267
-0.5570081 -0.43548983 0.31664068 0.2831 0.0017
-0.5570081 -0.44242644 0.32841986 0.2831 0.0192
-0.57784307 -0.44306815 0.33368248 0.3088 0.0267
-0.5800394 -0.44915542 0.40592515 0.3136 0.1208
-0.5887931 -0.4498037 0.34727487 0.3275 0.0531
-0.6016343 -0.45765504 0.40410957 0.3446 0.1062
-0.6078095 -0.44817442 0.35820806 0.3611 0.0714
-0.6364799 -0.44326162 0.38994628 0.3887 0.0876
-0.46040988 -0.46830505 0.42127645 0.6957 0.4399
-0.4556597 -0.44386315 0.42340106 0.7217 0.4414
-0.42756858 -0.43230236 0.45280826 0.7316 0.4141
-0.44653308 -0.4314767 0.43534768 0.7396 0.4326
-0.46913028 -0.42411172 0.42073286 0.7474 0.4508
-0.46583748 -0.41917133 0.42499498 0.7529 0.4439
-0.5084828 -0.41510153 0.40841907 0.7728 0.473
-0.4759205 -0.39712194 0.42702177 0.7764 0.4434
-0.49560168 -0.35212073 0.44497168 0.8345 0.4113
-0.47384688 -0.37564704 0.43675286 0.804 0.4276
-0.46030188 -0.3635564 0.45346197 0.8119 0.4058
-0.4556597 -0.44386315 0.42340106 0.3275 0.3048
-0.4775357 -0.44326162 0.38994658 0.3044 0.1956
-0.46913028 -0.42411172 0.42073286 0.3056 0.297
-0.5084828 -0.41510153 0.40841907 0.2218 0.2705
-0.5251874 -0.43037695 0.33460197 0.1969 0.0679
-0.5570078 -0.39660174 0.40761805 0.1091 0.2723
-0.5570078 -0.42504716 0.3208443 0.1059 0.0308
-0.5888279 -0.43037724 0.33460164 0.1969 0.0679
-0.59066117 -0.44001865 0.33035725 0.2099 0.0455
-0.6081305 -0.4481657 0.35777426 0.2619 0.1267
-0.5570081 -0.33812273 0.44436297 0.8924 0.421
-0.5570081 -0.31094062 0.5127258 0.9052 0.3515
-0.636617 -0.32641345 0.50934565 0.8516 0.3396
-0.6454394 -0.32454383 0.57485217 0.8468 0.2817
-0.7027553 -0.36223704 0.5678949 0.7981 0.2784
-0.27722988 -0.709325 0.48875546 0.6184 0.9925
-0.22725737 -0.70460963 0.5164236 0.5966 0.9532
-0.2380544 -0.75795835 0.50141394 0.5665 0.9745
-0.18840888 -0.77095103 0.54735595 0.5508 0.9348
-0.19226867 -0.76834315 0.6280659 0.5519 0.8567
-0.18200749 -0.8091161 0.58386385 0.529 0.8871
-0.18812656 -0.80555606 0.6227019 0.5301 0.8657
-0.19871026 -0.8390235 0.5787201 0.5083 0.8748
-0.20493078 -0.83348036 0.62361807 0.5209 0.8544
-0.45972198 -0.5443391 0.49134958 0.6207 0.3853
-0.4319276 -0.51540023 0.48291868 0.6692 0.3699
-0.4308245 -0.5402681 0.5661018 0.6439 0.2899
-0.4091231 -0.47545043 0.48620757 0.6989 0.3808
-0.41475618 -0.4205408 0.47130418 0.7422 0.3914
-0.41218698 -0.40026233 0.48141417 0.7595 0.38
-0.6055328 -0.41510153 0.40841907 0.7728 0.473
-0.6448856 -0.42411202 0.42073256 0.7474 0.4508
-0.6481781 -0.41917163 0.42499465 0.7529 0.4439
-0.6674825 -0.4314767 0.43534768 0.7396 0.4326
-0.6583559 -0.44386342 0.42340106 0.7217 0.4414
-0.686447 -0.43230265 0.45280796 0.7316 0.4141
-0.6536057 -0.46830535 0.42127615 0.6957 0.4399
-0.7048925 -0.47545072 0.48620757 0.6989 0.3808
-0.7166636 -0.42399085 0.5013894 0.7412 0.3421
-0.6953195 -0.36401454 0.50777006 0.7954 0.3403
-0.33435166 -0.65345937 0.49481067 0.6711 0.9868
-0.31371707 -0.631385 0.51288354 0.6609 0.9577
-0.22404289 -0.70225406 0.6244944 0.6047 0.856
-0.24646097 -0.7602956 0.6683904 0.5702 0.8142
-0.22036248 -0.8023428 0.65578467 0.5336 0.834
-0.5570078 -0.39660174 0.40761805 0.8462 0.4901
-0.61841416 -0.35212073 0.44497168 0.8345 0.4113
-0.653714 -0.3635567 0.45346168 0.8119 0.4058
-0.67337537 -0.36486623 0.47294638 0.807 0.3842
-0.4768667 -0.53611106 0.6543456 0.6402 0.1443
-0.4775357 -0.44326162 0.38994658 0.3686 0.1237
-0.5110154 -0.45896065 0.35819006 0.428 0.0852
-0.506207 -0.44817504 0.35820776 0.3983 0.0953
-0.5238149 -0.44000936 0.33095366 0.4352 0.0221
-0.5570084 -0.45067343 0.31951076 0.4929 0.0299
-0.5570081 -0.43548983 0.31664068 0.4929 0.0038
-0.5902016 -0.44000906 0.33095396 0.4352 0.0221
-0.5570081 -0.30898583 0.5833176 0.9072 0.2873
-0.2819981 -0.71347797 0.6651234 0.6212 0.8179
-0.30964816 -0.62780005 0.6061395 0.6641 0.8669
-0.41591328 -0.57630384 0.5326257 0.7667 0.9465
-0.4115663 -0.60308725 0.51516026 0.7376 0.9721
-0.4556597 -0.44386315 0.42340106 0.3234 0.1874
-0.46040988 -0.46830505 0.42127645 0.3663 0.1954
-0.48624018 -0.48581514 0.4163229 0.4003 0.1902
-0.5570078 -0.50256777 0.41102368 0.4929 0.1896
-0.4237868 -0.37601063 0.6371541 0.7873 0.2081
-0.6583559 -0.44386342 0.42340106 0.3234 0.1874
-0.6364799 -0.44326162 0.38994628 0.3686 0.1237
-0.6536057 -0.46830535 0.42127615 0.3663 0.1954
-0.6030011 -0.45896032 0.35819036 0.428 0.0852
-0.6078095 -0.44817442 0.35820806 0.3983 0.0953
-0.6277754 -0.48581514 0.4163229 0.4003 0.1902
-0.27722988 -0.709325 0.48875546 0.514 0.2682
-0.31074437 -0.73277515 0.56947917 0.5745 0.2707
-0.33435166 -0.65345937 0.49481067 0.5175 0.3135
-0.36121067 -0.66283584 0.56751806 0.5684 0.3066
-0.3355409 -0.65564096 0.63675535 0.6212 0.3075
-0.41223168 -0.60406643 0.6175008 0.5981 0.3826
-0.2819981 -0.71347797 0.6651234 0.6321 0.2702
-0.26537448 -0.7878767 0.57862496 0.5822 0.232
-0.2380544 -0.75795835 0.50141394 0.5261 0.2222
-0.5123813 -0.4576547 0.40410987 0.4665 0.7256
-0.5339762 -0.44915542 0.40592515 0.4796 0.7283
-0.4775357 -0.44326162 0.38994658 0.4365 0.7095
-0.5058851 -0.44816542 0.35777426 0.4526 0.6908
-0.5233544 -0.44001865 0.33035725 0.4628 0.6559
-0.5339762 -0.44915542 0.40592515 0.3136 0.1208
-0.5570078 -0.44572014 0.40801796 0.2831 0.122
-0.4115663 -0.60308725 0.51516026 0.5274 0.3731
-0.4022798 -0.6248819 0.5638515 0.5636 0.3788
-0.21309316 -0.8025042 0.53311586 0.5323 0.9374
-0.3355409 -0.65564096 0.63675535 0.6641 0.834
-0.41223168 -0.60406643 0.6175008 0.7494 0.8696
-0.4103843 -0.5754131 0.59854466 0.7669 0.8942
-0.6055328 -0.41510153 0.40841907 0.2218 0.2705
-0.6364799 -0.44326162 0.38994628 0.3044 0.1956
-0.6380954 -0.39712223 0.42702147 0.7764 0.4434
-0.47384688 -0.37564704 0.43675286 0.8877 0.0981
-0.44047338 -0.39511523 0.44526657 0.9346 0.0634
-0.4759205 -0.39712194 0.42702177 0.8763 0.0634
-0.46583748 -0.41917133 0.42499498 0.8876 0.0293
-0.44653308 -0.4314767 0.43534768 0.9171 0.01
-0.42756858 -0.43230236 0.45280826 0.9505 0.0096
-0.41475618 -0.4205408 0.47130418 0.9803 0.0293
-0.41218698 -0.40026233 0.48141417 0.9923 0.0634
-0.42103338 -0.37984315 0.48239577 0.9801 0.0979
-0.44064048 -0.36486593 0.47294667 0.9514 0.1176
-0.46030188 -0.3635564 0.45346197 0.9165 0.1176
-0.6380954 -0.39712223 0.42702147 0.8763 0.0634
-0.6735425 -0.39511552 0.44526628 0.9346 0.0634
-0.64016867 -0.37564734 0.43675256 0.8877 0.0981
-0.653714 -0.3635567 0.45346168 0.9165 0.1176
-0.67337537 -0.36486623 0.47294638 0.9514 0.1176
-0.5570078 -0.43539894 0.31582016 0.4955 0.6446
-0.5570078 -0.44572014 0.40801796 0.4955 0.7288
-0.5233544 -0.44001865 0.33035725 0.2099 0.0455
-0.5570078 -0.43539894 0.31582016 0.1059 0.0034
-0.5058851 -0.44816542 0.35777426 0.2619 0.1267
-0.5902016 -0.44000906 0.33095396 0.3344 0.0084
-0.6929825 -0.37984344 0.48239547 0.7834 0.3763
-0.7018289 -0.40026262 0.48141387 0.7595 0.38
-0.6583559 -0.44386342 0.42340106 0.3275 0.3048
-0.6448856 -0.42411202 0.42073256 0.3056 0.297
-0.64016867 -0.37564734 0.43675256 0.804 0.4276
-0.6081305 -0.4481657 0.35777426 0.4526 0.6908
-0.59066117 -0.44001865 0.33035725 0.4628 0.6559
-0.5800394 -0.44915542 0.40592515 0.4796 0.7283
-0.6016343 -0.45765504 0.40410957 0.4665 0.7256
-0.6364799 -0.44326162 0.38994628 0.4365 0.7095
-0.6992597 -0.42054114 0.47130388 0.7422 0.3914
-0.22036248 -0.8023428 0.65578467 0.6218 0.1942
-0.24646097 -0.7602956 0.6683904 0.6347 0.2245
-0.19871026 -0.8390235 0.5787201 0.5938 0.1716
-0.20493078 -0.83348036 0.62361807 0.6075 0.1826
-0.21309316 -0.8025042 0.53311586 0.551 0.1934
-0.6481781 -0.41917163 0.42499465 0.8876 0.0293
-0.6674825 -0.4314767 0.43534768 0.9171 0.01
-0.686447 -0.43230265 0.45280796 0.9505 0.0096
-0.6992597 -0.42054114 0.47130388 0.9803 0.0293
-0.7018289 -0.40026262 0.48141387 0.9923 0.0634
-0.6929825 -0.37984344 0.48239547 0.9801 0.0979
3 0 1 2
3 1 3 2
3 1 4 3
3 4 5 3
3 4 6 5
3 6 7 5
3 6 8 7
3 8 9 7
3 8 10 9
3 10 11 9
3 10 12 11
3 12 13 11
3 12 14 13
3 14 15 13
3 14 16 15
3 16 17 15
3 16 18 17
3 19 20 21
3 20 22 21
3 20 23 22
3 23 24 22
3 23 25 24
3 25 26 24
3 25 27 26
3 27 28 26
3 27 29 28
3 29 30 28
3 29 31 30
3 31 32 30
3 31 33 32
3 33 34 32
3 12 10 14
3 10 35 14
3 10 8 35
3 8 36 35
3 8 6 36
3 6 37 36
3 6 38 37
3 38 39 37
3 38 40 39
3 40 41 39
3 40 42 41
3 42 43 41
3 31 29 44
3 29 45 44
3 29 27 45
3 27 46 45
3 27 25 46
3 25 47 46
3 25 23 47
3 23 48 47
3 23 20 48
3 20 19 48
3 49 50 51
3 50 52 51
3 50 53 52
3 53 54 52
3 53 55 54
3 55 56 54
3 55 57 56
3 57 58 56
3 57 59 58
3 59 60 58
3 61 62 63
3 62 64 63
3 62 65 64
3 65 66 64
3 65 67 66
3 67 68 66
3 67 69 68
3 69 70 68
3 71 72 73
3 72 74 73
3 72 75 74
3 75 76 74
3 75 77 76
3 77 78 76
3 77 79 78
3 21 22 80
3 22 81 80
3 22 82 81
3 82 83 81
3 82 84 83
3 84 85 83
3 84 86 85
3 86 84 87
3 84 88 87
3 84 82 88
3 82 89 88
3 82 26 89
3 26 28 89
3 90 91 92
3 91 93 92
3 91 36 93
3 36 94 93
3 36 37 94
3 37 39 94
3 48 95 47
3 95 46 47
3 95 96 46
3 96 45 46
3 96 97 45
3 97 44 45
3 80 81 98
3 81 99 98
3 81 83 99
3 83 100 99
3 83 85 100
3 87 88 101
3 88 102 101
3 88 103 102
3 103 32 102
3 103 30 32
3 104 105 106
3 105 107 106
3 105 108 107
3 108 109 107
3 110 111 112
3 111 51 112
3 111 113 51
3 113 49 51
3 114 115 116
3 117 118 116
3 119 2 118
3 2 120 118
3 18 16 121
3 16 122 121
3 16 14 122
3 14 35 122
3 121 122 90
3 122 91 90
3 122 35 91
3 35 36 91
3 123 124 125
3 124 126 125
3 124 127 126
3 127 128 126
3 129 130 123
3 130 124 123
3 130 131 124
3 131 127 124
3 77 132 79
3 132 133 79
3 132 134 133
3 134 135 133
3 79 133 74
3 133 73 74
3 133 135 73
3 135 71 73
3 136 137 138
3 137 139 138
3 137 140 139
3 140 141 139
3 142 143 139
3 143 138 139
3 143 144 138
3 144 136 138
3 9 145 7
3 145 146 7
3 145 147 146
3 147 148 146
3 147 145 149
3 145 150 149
3 145 9 150
3 9 11 150
3 51 52 151
3 52 152 151
3 52 54 152
3 54 56 152
3 153 154 155
3 154 43 155
3 154 41 43
3 110 112 156
3 112 157 156
3 112 158 157
3 149 150 70
3 150 68 70
3 150 11 68
3 142 159 160
3 159 161 160
3 159 162 161
3 131 130 163
3 130 164 163
3 130 129 164
3 165 166 167
3 166 168 167
3 166 169 168
3 92 93 155
3 93 153 155
3 93 94 153
3 51 151 112
3 151 158 112
3 151 170 158
3 144 143 162
3 143 161 162
3 3 5 171
3 5 7 171
3 139 141 142
3 141 159 142
3 22 24 82
3 24 26 82
3 38 6 172
3 6 4 172
3 173 174 168
3 174 167 168
3 13 66 11
3 66 68 11
3 15 64 13
3 64 66 13
3 88 89 103
3 89 28 103
3 17 63 15
3 63 64 15
3 128 175 126
3 175 176 126
3 176 177 126
3 177 178 126
3 178 179 126
3 179 125 126
3 101 102 34
3 102 32 34
3 114 180 42
3 180 43 42
3 19 181 48
3 181 95 48
3 148 182 146
3 182 171 146
3 118 120 148
3 120 182 148
3 56 58 152
3 58 60 152
3 60 170 152
3 170 151 152
3 183 108 105
3 184 65 62
3 103 28 30
3 7 146 171
3 185 186 187
3 186 188 187
3 186 189 188
3 189 190 188
3 189 191 190
3 191 192 190
3 191 193 192
3 193 194 192
3 193 195 194
3 195 196 194
3 195 197 196
3 197 198 196
3 197 199 198
3 199 200 198
3 199 201 200
3 201 202 200
3 201 203 202
3 203 204 202
3 203 205 204
3 205 206 204
3 205 207 206
3 191 208 193
3 208 209 193
3 208 210 209
3 210 211 209
3 210 212 211
3 212 213 211
3 212 214 213
3 214 215 213
3 214 216 215
3 216 217 215
3 216 218 217
3 218 219 217
3 218 220 219
3 220 221 219
3 222 223 224
3 223 225 224
3 223 226 225
3 226 227 225
3 226 228 227
3 228 229 227
3 228 230 229
3 230 231 229
3 230 232 231
3 232 233 231
3 232 234 233
3 234 235 233
3 236 237 238
3 237 239 238
3 237 240 239
3 240 241 239
3 240 242 241
3 242 243 241
3 242 244 243
3 244 245 243
3 244 246 245
3 247 248 249
3 248 250 249
3 248 251 250
3 251 252 250
3 251 253 252
3 253 254 252
3 253 255 254
3 255 256 254
3 244 257 204
3 257 258 204
3 257 259 258
3 259 260 258
3 259 261 260
3 261 198 260
3 261 196 198
3 262 263 264
3 263 265 264
3 263 266 265
3 266 267 265
3 266 268 267
3 268 269 267
3 268 270 269
3 271 272 273
3 272 220 273
3 272 274 220
3 274 221 220
3 274 275 221
3 275 276 221
3 277 278 279
3 278 280 279
3 278 281 280
3 281 282 280
3 281 283 282
3 283 284 282
3 188 190 283
3 190 284 283
3 190 192 284
3 192 285 284
3 192 194 285
3 194 286 285
3 287 288 262
3 288 263 262
3 288 289 263
3 289 266 263
3 289 290 266
3 290 291 266
3 185 271 186
3 272 271 185
3 185 236 272
3 236 274 272
3 236 238 274
3 238 275 274
3 242 292 244
3 292 257 244
3 292 293 257
3 293 259 257
3 293 294 259
3 294 295 259
3 220 218 273
3 218 296 273
3 218 216 296
3 216 210 296
3 216 214 210
3 214 212 210
3 297 298 299
3 298 300 299
3 298 301 300
3 301 302 300
3 301 303 302
3 204 258 202
3 258 304 202
3 258 260 304
3 260 200 304
3 260 198 200
3 290 289 305
3 289 306 305
3 289 288 306
3 288 307 306
3 288 308 307
3 309 310 297
3 310 298 297
3 310 311 298
3 311 312 298
3 199 215 201
3 215 313 201
3 215 217 313
3 217 219 313
3 314 315 316
3 315 317 316
3 315 318 317
3 318 303 317
3 298 312 301
3 312 317 301
3 312 319 317
3 319 316 317
3 196 261 194
3 261 286 194
3 261 259 286
3 259 295 286
3 193 209 195
3 209 197 195
3 209 211 197
3 211 213 197
3 320 321 322
3 321 323 322
3 321 324 323
3 324 325 323
3 324 321 326
3 321 327 326
3 321 320 327
3 320 328 327
3 329 330 331
3 330 332 331
3 330 333 332
3 227 229 334
3 229 335 334
3 229 231 335
3 322 323 336
3 323 337 336
3 323 325 337
3 269 338 267
3 338 265 267
3 338 264 265
3 305 306 339
3 306 340 339
3 306 341 340
3 252 254 342
3 254 343 342
3 254 256 343
3 292 277 293
3 277 344 293
3 277 279 344
3 345 346 347
3 346 348 347
3 346 349 348
3 349 346 350
3 346 351 350
3 346 352 351
3 352 346 353
3 346 354 353
3 346 355 354
3 356 357 358
3 357 359 358
3 357 360 359
3 206 246 204
3 246 244 204
3 333 330 361
3 330 362 361
3 251 363 253
3 363 364 253
3 248 365 251
3 365 363 251
3 234 232 366
3 232 230 366
3 295 367 286
3 367 368 286
3 270 268 291
3 268 266 291
3 369 370 343
3 370 342 343
3 294 293 371
3 293 344 371
3 197 213 199
3 213 215 199
3 372 373 374
3 373 361 374
3 201 313 203
3 313 219 203
3 203 219 205
3 219 221 205
3 375 376 374
3 376 372 374
3 282 284 377
3 284 285 377
3 377 285 368
3 285 286 368
3 207 205 276
3 205 221 276
3 378 379 327
3 379 326 327
3 380 381 327
3 381 378 327
3 328 382 327
3 382 380 327
3 224 225 334
3 225 227 334
3 356 383 357
3 383 384 357
3 384 385 357
3 385 386 357
3 386 387 357
3 387 388 357
3 301 317 303
3 364 255 253
3 362 374 361
3 228 366 230
3 287 308 288
3 306 307 341
3 202 304 200
3 355 346 345
3 388 360 357
