ply
format ascii 1.0
comment Created by Open Asset Import Library - http://assimp.sf.net (v5.2.3481089591)
element vertex 454
property float x
property float y
property float z
property float nx
property float ny
property float nz
property float s
property float t
element face 556
property list uchar int vertex_index
end_header
-0.628482461 0.395715117 3.68321419 -0.588554442 0.808137 0.0227669999 0.125 0.5
-1.01415527 0.217326045 3.2689929 -0.81587261 0.210918933 0.538391113 0.125 0.5625
-0.640423238 0.16457656 3.64454031 -0.988977849 0.143104985 0.0379965268 0.125 0.5625
-0.713710666 0.581200778 3.07474995 -0.087315239 0.950701475 0.297561556 0.375 0.25
-1.22525692 0.575175405 2.60964155 -0.686043739 0.66886133 0.286301702 0.375 0.25
-0.935658574 0.499087006 3.20450926 -0.56753695 0.706399798 0.422967017 0.375 0.25
-0.935658574 0.499087006 3.20450926 -0.56753695 0.706399798 0.422967017 0.125 0.5
-1.26683521 0.276305526 2.69360447 -0.897393703 0.218885452 0.383110583 0.125 0.5625
-0.628482461 0.395715117 3.68321419 -0.588554442 0.808137 0.0227669999 0.375 0.25
-0.880612671 0.816987574 1.70080769 -0.197181553 0.980353355 -0.00518818479 0.375 0.25
-0.935721278 0.628315389 1.0559628 -0.673870385 0.663035929 -0.326009214 0.375 0.25
-1.35575485 0.505811512 2.05348659 -0.811172545 0.582125187 -0.0559418797 0.375 0.25
-0.935721278 0.628315389 1.0559628 -0.673870385 0.663035929 -0.326009214 0.125 0.5
-0.657260299 0.325545758 0.401120901 -0.831812799 0.167980105 -0.529027462 0.125 0.5625
-1.17797697 0.302522391 1.10541177 -0.843370199 0.32936424 -0.424553931 0.125 0.5625
-1.35575485 0.505811512 2.05348659 -0.811172545 0.582125187 -0.0559418797 0.125 0.5
-1.44894004 0.24796693 2.15352201 -0.957370639 0.288370907 0.0168463048 0.125 0.5625
-1.22525692 0.575175405 2.60964155 -0.686043739 0.66886133 0.286301702 0.125 0.5
-0.96637845 0.723785222 2.29977131 -0.447537333 0.887261689 0.11170122 0.375 0.25
-0.13299489 0.781524301 0.227804542 -0.080203332 0.995919049 -0.0413834527 0.375 0.25
-0.283010632 0.61565727 -0.124511719 -0.670050621 0.499417394 -0.549194336 0.375 0.25
-0.549418092 0.651091516 0.320020676 -0.683973312 0.593696535 -0.42391634 0.375 0.25
-0.549418092 0.651091516 0.320020676 -0.683973312 0.593696535 -0.42391634 0.125 0.5
-0.340980113 0.307828635 -0.097946167 -0.698433042 0.0511502586 -0.713845193 0.125 0.5625
-0.581641376 0.811328709 0.945628405 -0.105380796 0.992434978 -0.062990427 0.375 0.25
-0.166214198 0.641970992 -0.238243937 -0.480047613 0.529489875 -0.699424684 0.125 0.5
-0.10045065 0.442895234 -0.286465168 -0.340406686 0.0369582623 -0.939551651 0.125 0.5625
-0.187192932 0.407977879 -0.202171683 -0.683053493 0.0203869231 -0.730083823 0.125 0.5625
0.157993913 0.453505009 -0.222849607 0.971740901 0.00589026324 -0.235976756 0.125 0.5625
0.11364729 0.340443075 -0.275468111 0.455227703 -0.502715886 -0.734877169 0.125 0.625
0.11227379 0.44143647 -0.275468111 0.806840897 0.0241408329 -0.590275347 0.125 0.5625
0.155582279 0.717720628 -0.196506143 0.708960712 0.449700207 -0.543272018 0.375 0.25
-0.0624246337 0.571883082 -0.285382748 -0.0844452083 0.266428143 -0.960148454 0.375 0.25
-0.166214198 0.641970992 -0.238243937 -0.480047613 0.529489875 -0.699424684 0.375 0.25
0.128661811 0.201810166 -0.119679332 0.307690889 -0.148687765 -0.939796925 0 0
-0.13847667 0.313907355 -0.287547708 -0.377245307 -0.265576303 -0.88721776 0 0
0.158481658 0.28786701 -0.227887273 0.767490447 -0.453786224 -0.452809602 0 0
0.142122045 0.459765375 -0.158092737 0.978339791 -0.0162359793 0.206367835 0.125 0.5625
0.158481658 0.28786701 -0.227887273 0.767490447 -0.453786224 -0.452809602 0.125 0.625
0.11090029 0.542429864 -0.275468111 0.502745509 0.334034473 -0.797287941 0.375 0.25
-0.0115836598 0.507923067 -0.287294388 -0.184608504 0.536033034 -0.823764741 0.375 0.25
-0.0421834625 0.378142178 -0.284881115 -0.260112792 -0.641874015 -0.721345246 0 0
0.11364729 0.340443075 -0.275468111 0.455227703 -0.502715886 -0.734877169 0 0
-0.0115836598 0.507923067 -0.287294388 -0.184608504 0.536033034 -0.823764741 0.125 0.5
-0.0268835612 0.443032622 -0.286087751 -0.926926553 0.181466654 -0.328446686 0.125 0.5625
0.139636442 0.809748352 -0.0928230286 0.261429578 0.890069067 -0.373405397 0.125 0.5
0.155582279 0.717720628 -0.196506143 0.708960712 0.449700207 -0.543272018 0.125 0.5
-0.174393252 0 -0.169362187 -0.1115776 0.00711093564 -0.993730366 0 0
-0.208171666 0.173984736 -0.166099429 -0.285139084 -0.153846323 -0.946058691 0 0
0.139636442 0.809748352 -0.0928230286 0.261429578 0.890069067 -0.373405397 0.375 0.25
-0.283010632 0.61565727 -0.124511719 -0.670050621 0.499417394 -0.549194336 0.125 0.5
-0.208171666 0.173984736 -0.166099429 -0.285139084 -0.153846323 -0.946058691 0.125 0.625
-0.398949564 0 -0.0713806152 -0.682046592 0.0578646995 -0.729015887 0.125 0.625
-0.0421834625 0.378142178 -0.284881115 -0.260112792 -0.641874015 -0.721345246 0.125 0.625
-0.13847667 0.313907355 -0.287547708 -0.377245307 -0.265576303 -0.88721776 0.125 0.625
0.157506183 0.619143009 -0.217811942 0.860430956 0.162210122 -0.483059645 0.125 0.5
0.11090029 0.542429864 -0.275468111 0.502745509 0.334034473 -0.797287941 0.125 0.5
-0.765102565 0 0.482221127 -0.811660111 0.122229695 -0.571198702 0.125 0.625
-1.51515281 0 2.23460102 -0.960797489 0.255657226 0.107274093 0.125 0.625
-1.28348017 0 2.76877856 -0.900346816 0.15744853 0.405691683 0.125 0.625
-1.30331147 0 1.23432827 -0.910798728 0.216903344 -0.351281494 0.125 0.625
-1.02280939 0 3.30668688 -0.79855752 0.133581221 0.586908937 0.125 0.625
-0.714208603 0 3.61134958 -0.834219873 0.274736494 0.47811842 0.125 0.625
-0.431524694 0.450057477 3.56391764 -0.027345432 0.991851807 0.124427825 0.375 0.25
-0.0624246337 0.571883082 -0.285382748 -0.0844452083 0.266428143 -0.960148454 0.125 0.5
0.157506183 0.619143009 -0.217811942 0.860430956 0.162210122 -0.483059645 0.375 0.25
0.128661811 0.201810166 -0.119679332 0.307690889 -0.148687765 -0.939796925 0.125 0.625
-0.398949564 0 -0.0713806152 -0.682046592 0.0578646995 -0.729015887 0 0
-0.640423238 -0.16457656 3.64454031 -0.988977849 -0.143104985 0.0379965268 0.125 0.5625
-1.01415527 -0.217326045 3.2689929 -0.81587261 -0.210918933 0.538391113 0.125 0.5625
-0.628482461 -0.395715117 3.68321419 -0.588554442 -0.808137 0.0227669999 0.125 0.5
-0.935658574 -0.499087006 3.20450926 -0.56753695 -0.706399798 0.422967017 0.375 0.25
-1.22525692 -0.575175405 2.60964155 -0.686043739 -0.66886133 0.286301702 0.375 0.25
-0.713710666 -0.581200778 3.07474995 -0.087315239 -0.950701475 0.297561556 0.375 0.25
-1.26683521 -0.276305526 2.69360447 -0.897393703 -0.218885452 0.383110583 0.125 0.5625
-0.935658574 -0.499087006 3.20450926 -0.56753695 -0.706399798 0.422967017 0.125 0.5
-0.628482461 -0.395715117 3.68321419 -0.588554442 -0.808137 0.0227669999 0.375 0.25
-1.35575485 -0.505811512 2.05348659 -0.811172545 -0.582125187 -0.0559418797 0.375 0.25
-0.935721278 -0.628315389 1.0559628 -0.673870385 -0.663035929 -0.326009214 0.375 0.25
-0.880612671 -0.816987574 1.70080769 -0.197181553 -0.980353355 -0.00518818479 0.375 0.25
-1.17797697 -0.302522391 1.10541177 -0.843370199 -0.32936424 -0.424553931 0.125 0.5625
-0.657260299 -0.325545758 0.401120901 -0.831812799 -0.167980105 -0.529027462 0.125 0.5625
-0.935721278 -0.628315389 1.0559628 -0.673870385 -0.663035929 -0.326009214 0.125 0.5
-1.44894004 -0.24796693 2.15352201 -0.957370639 -0.288370907 0.0168463048 0.125 0.5625
-1.35575485 -0.505811512 2.05348659 -0.811172545 -0.582125187 -0.0559418797 0.125 0.5
-1.22525692 -0.575175405 2.60964155 -0.686043739 -0.66886133 0.286301702 0.125 0.5
-0.96637845 -0.723785222 2.29977131 -0.447537333 -0.887261689 0.11170122 0.375 0.25
-0.549418092 -0.651091516 0.320020676 -0.683973312 -0.593696535 -0.42391634 0.375 0.25
-0.283010632 -0.61565727 -0.124511719 -0.670050621 -0.499417394 -0.549194336 0.375 0.25
-0.13299489 -0.781524301 0.227804542 -0.080203332 -0.995919049 -0.0413834527 0.375 0.25
-0.340980113 -0.307828635 -0.097946167 -0.698433042 -0.0511502586 -0.713845193 0.125 0.5625
-0.549418092 -0.651091516 0.320020676 -0.683973312 -0.593696535 -0.42391634 0.125 0.5
-0.581641376 -0.811328709 0.945628405 -0.105380796 -0.992434978 -0.062990427 0.375 0.25
-0.187192932 -0.407977879 -0.202171683 -0.683053493 -0.0203869231 -0.730083823 0.125 0.5625
-0.10045065 -0.442895234 -0.286465168 -0.340406686 -0.0369582623 -0.939551651 0.125 0.5625
-0.166214198 -0.641970992 -0.238243937 -0.480047613 -0.529489875 -0.699424684 0.125 0.5
0.11227379 -0.44143647 -0.275468111 0.806840897 -0.0241408329 -0.590275347 0.125 0.5625
0.11364729 -0.340443075 -0.275468111 0.455227703 0.502715886 -0.734877169 0.125 0.625
0.157993913 -0.453505009 -0.222849607 0.971740901 -0.00589026324 -0.235976756 0.125 0.5625
-0.166214198 -0.641970992 -0.238243937 -0.480047613 -0.529489875 -0.699424684 0.375 0.25
-0.0624246337 -0.571883082 -0.285382748 -0.0844452083 -0.266428143 -0.960148454 0.375 0.25
0.155582279 -0.717720628 -0.196506143 0.708960712 -0.449700207 -0.543272018 0.375 0.25
0.158481658 -0.28786701 -0.227887273 0.767490447 0.453786224 -0.452809602 0 0
-0.13847667 -0.313907355 -0.287547708 -0.377245307 0.265576303 -0.88721776 0 0
0.128661811 -0.201810166 -0.119679332 0.307690889 0.148687765 -0.939796925 0 0
0.158481658 -0.28786701 -0.227887273 0.767490447 0.453786224 -0.452809602 0.125 0.625
0.142122045 -0.459765375 -0.158092737 0.978339791 0.0162359793 0.206367835 0.125 0.5625
-0.0115836598 -0.507923067 -0.287294388 -0.184608504 -0.536033034 -0.823764741 0.375 0.25
0.11090029 -0.542429864 -0.275468111 0.502745509 -0.334034473 -0.797287941 0.375 0.25
0.11364729 -0.340443075 -0.275468111 0.455227703 0.502715886 -0.734877169 0 0
-0.0421834625 -0.378142178 -0.284881115 -0.260112792 0.641874015 -0.721345246 0 0
-0.0268835612 -0.443032622 -0.286087751 -0.926926553 -0.181466654 -0.328446686 0.125 0.5625
-0.0115836598 -0.507923067 -0.287294388 -0.184608504 -0.536033034 -0.823764741 0.125 0.5
0.155582279 -0.717720628 -0.196506143 0.708960712 -0.449700207 -0.543272018 0.125 0.5
0.139636442 -0.809748352 -0.0928230286 0.261429578 -0.890069067 -0.373405397 0.125 0.5
-0.208171666 -0.173984736 -0.166099429 -0.285139084 0.153846323 -0.946058691 0 0
-0.174393252 0 -0.169362187 -0.1115776 -0.00711093564 -0.993730366 0 0
0.139636442 -0.809748352 -0.0928230286 0.261429578 -0.890069067 -0.373405397 0.375 0.25
-0.283010632 -0.61565727 -0.124511719 -0.670050621 -0.499417394 -0.549194336 0.125 0.5
-0.398949564 0 -0.0713806152 -0.682046592 -0.0578646995 -0.729015887 0.125 0.625
-0.208171666 -0.173984736 -0.166099429 -0.285139084 0.153846323 -0.946058691 0.125 0.625
-0.13847667 -0.313907355 -0.287547708 -0.377245307 0.265576303 -0.88721776 0.125 0.625
-0.0421834625 -0.378142178 -0.284881115 -0.260112792 0.641874015 -0.721345246 0.125 0.625
0.157506183 -0.619143009 -0.217811942 0.860430956 -0.162210122 -0.483059645 0.125 0.5
0.11090029 -0.542429864 -0.275468111 0.502745509 -0.334034473 -0.797287941 0.125 0.5
-0.765102565 0 0.482221127 -0.811660111 -0.122229695 -0.571198702 0.125 0.625
-1.28348017 0 2.76877856 -0.900346816 -0.15744853 0.405691683 0.125 0.625
-1.51515281 0 2.23460102 -0.960797489 -0.255657226 0.107274093 0.125 0.625
-1.30331147 0 1.23432827 -0.910798728 -0.216903344 -0.351281494 0.125 0.625
-1.02280939 0 3.30668688 -0.79855752 -0.133581221 0.586908937 0.125 0.625
-0.714208603 0 3.61134958 -0.834219873 -0.274736494 0.47811842 0.125 0.625
-0.431524694 -0.450057477 3.56391764 -0.027345432 -0.991851807 0.124427825 0.375 0.25
-0.0624246337 -0.571883082 -0.285382748 -0.0844452083 -0.266428143 -0.960148454 0.125 0.5
0.157506183 -0.619143009 -0.217811942 0.860430956 -0.162210122 -0.483059645 0.375 0.25
0.128661811 -0.201810166 -0.119679332 0.307690889 0.148687765 -0.939796925 0.125 0.625
-0.398949564 0 -0.0713806152 -0.682046592 -0.0578646995 -0.729015887 0 0
-0.414825082 0.487419844 4.06765556 -0.00640893495 0.993659616 0.112247922 0.5 0.25
-0.628482461 0.395715117 3.68321419 -0.588554442 0.808137 0.0227669999 0.375 0.25
-0.794104338 0.439343721 3.94461679 -0.594177127 0.786264598 -0.169533819 0.5 0.25
0.170427784 0.332585365 4.12808084 0.510986924 0.635628223 0.578678966 0.625 0.5
0.267739624 0.395970613 3.84689569 0.465779603 0.867103279 0.176582411 0.5 0.5
0.471513718 0 3.92646027 0.813838422 0.238450438 0.529913604 0.625 0.625
0.472451568 0.161851048 3.84245491 0.829050601 0.426504046 0.361620486 0.625 0.5
0.101823606 0.43442902 3.48107529 0.270397604 0.962444603 -0.0242015012 0.375 0.5
0.0995416045 0.316644579 2.91571522 0.638251424 0.769698262 -0.0141304638 0.375 0.5
-0.31134674 0.581727087 2.88441849 0.315447956 0.893514872 0.319568068 0.375 0.5
-0.519245982 0.384950519 4.49690247 -0.113989733 0.662056029 0.740734875 0.875 0.5
0.162162751 0 4.24640942 0.574131548 0.263260603 0.775285065 0.625 0.625
-0.882636487 0 4.30675364 -0.82984364 0.124182038 0.544002175 0.875 0.625
-0.924159288 0.174235836 4.05423737 -0.773056149 0.515808225 0.369223565 0.875 0.5
-0.897018969 0 4.13364887 -0.885263801 0.0715364665 0.459554672 0.875 0.625
-0.467872649 0 4.60396433 -0.0094302455 0.266763031 0.96371609 0.875 0.625
-0.431524694 0.450057477 3.56391764 -0.027345432 0.991851807 0.124427825 0.375 0.25
-0.713710666 0.581200778 3.07474995 -0.087315239 0.950701475 0.297561556 0.375 0.25
0.585627973 0 3.60792112 0.939117491 0.340282053 -0.0476089716 0.5 0.625
0.525320053 0.154674962 3.62649822 0.880805731 0.472981781 -0.0216684137 0.5 0.5
0.353316575 0 2.96325493 0.878161609 0.445001543 -0.175516337 0.5 0.625
0.260066688 0.171248659 2.93401647 0.791787267 0.594817102 -0.13880083 0.5 0.5
-0.640423238 0.16457656 3.64454031 -0.988977849 0.143104985 0.0379965268 0.125 0.5625
-0.73551178 0.182394311 3.74004412 -0.53271997 0.367151022 -0.762502134 0.125 0.5
-0.628482461 0.395715117 3.68321419 -0.588554442 0.808137 0.0227669999 0.125 0.5
-0.817646801 0.247283474 3.88748932 -0.596378803 0.603550851 -0.529205739 0.5 0.25
-0.924159288 0.174235836 4.05423737 -0.773056149 0.515808225 0.369223565 0.625 0.25
-0.880972862 0.227690279 3.95199776 -0.636414945 0.768654227 -0.0643953159 0.556044817 0.25
-1.78148878 0 3.76062298 -0.351461887 0.934444189 -0.0573460311 0.625 0.25
-1.78148878 0 3.76062298 -0.351461887 0.934444189 -0.0573460311 0.875 0.625
0.423469961 0.296860993 3.56753397 0.693169951 0.713525891 -0.10196279 0.375 0.5
-0.869973421 0.320116013 4.21153593 -0.751612842 0.559581816 0.349208355 0.625 0.25
-0.519245982 0.384950519 4.49690247 -0.113989733 0.662056029 0.740734875 0.625 0.25
-0.73551178 0.182394311 3.74004412 -0.53271997 0.367151022 -0.762502134 0.375 0.25
-0.96637845 0.723785222 2.29977131 -0.447537333 0.887261689 0.11170122 0.375 0.25
-0.595891535 0.824304163 2.59638166 -0.107334614 0.922094941 0.371779978 0.375 0.25
-0.683017313 0.957406282 2.03787971 -0.512326598 0.8509987 -0.115423799 0.375 0.25
0.368258655 0 2.13597775 0.897704184 0.415402561 0.146860436 0.5 0.625
0.243191689 0.258853674 2.1247859 0.837489605 0.525182068 0.150980681 0.5 0.5
0.212643415 0.439356476 1.65647531 0.556825221 0.820420682 0.129829243 0.375 0.5
0.495309472 0.251711845 1.38833082 0.781465769 0.555656791 0.283825368 0.5 0.5
0.295125306 0.458465576 1.24090827 0.465663791 0.862964332 0.196086645 0.375 0.5
-0.259674042 0.631531 1.47348785 0.327589095 0.941139698 0.0833164006 0.375 0.5
-0.581641376 0.811328709 0.945628405 -0.105380796 0.992434978 -0.062990427 0.375 0.25
-0.880612671 0.816987574 1.70080769 -0.197181553 0.980353355 -0.00518818479 0.375 0.25
-0.0394097418 0.614372194 0.982635915 0.308732897 0.937399268 0.161141723 0.375 0.5
0.0801708549 0.502455115 2.11209726 0.944345236 0.309674919 0.1109666 0.375 0.5
0.793024123 0.305045098 0.634259284 0.789171875 0.511200786 0.340413928 0.5 0.5
0.628885269 0.52039206 0.48223567 0.530852497 0.826279223 0.188304007 0.375 0.5
-0.13299489 0.781524301 0.227804542 -0.080203332 0.995919049 -0.0413834527 0.375 0.25
0.427574545 0.630763888 0.352581859 0.366999686 0.920108676 0.136789396 0.375 0.5
0.381112218 0.245557949 1.73527837 0.812606633 0.520628631 0.261947066 0.5 0.5
0.563438296 0 1.47543001 0.885349035 0.335279018 0.322094917 0.5 0.625
-0.403228462 0.648689806 2.00730014 0.227278486 0.100531138 -0.968626916 0.375 0.5
0.725803554 0.471269011 0.0470268726 0.509339392 0.648202956 -0.566044569 0.375 0.5
0.527998209 0.573108256 0.011094451 0.466543406 0.634763956 -0.615964234 0.375 0.5
0.863743842 0 0.66631335 0.891082883 0.252428204 0.377162129 0.5 0.625
0.983351231 0.240117982 0.25033164 0.801488817 0.529015601 0.278851718 0.5 0.5
0.485120267 0 -0.101580262 0.27921918 0.110540152 -0.953843653 0.375 0.625
0.128661811 0.201810166 -0.119679332 0.307690889 -0.148687765 -0.939796925 0.125 0.597128034
0.875579417 0 0.125999093 -0.190682977 -0.193521231 -0.962387443 0.375 0.625
1.23745477 0.125559837 -0.244567037 0.235242561 0.630985975 -0.739268303 0.375 0.5
1.30409694 0 -0.299584389 0.431479543 0.544247746 -0.719458044 0.375 0.625
0.139636442 0.809748352 -0.0928230286 0.261429578 0.890069067 -0.373405397 0.375 0.25
1.2909143 0 -0.15654397 0.840372682 0.462668896 0.282331765 0.5 0.625
1.04175258 0 0.249110103 0.876856387 0.238082781 0.41765964 0.5 0.625
1.21579719 0.13010177 -0.15939796 0.733041108 0.633731544 0.247053072 0.5 0.5
0.0554944128 0.492632657 -0.360026836 0.70102787 0.636510134 -0.321581662 0.375 0.25
-0.0878337771 0.565246046 -0.407206774 0.361167252 0.703168273 0.612464428 0.375 0.25
-0.0426873416 0.49512735 -0.305736542 -0.527764142 0.581752181 0.618893743 0.375 0.25
-0.0878337771 0.565246046 -0.407206774 0.361167252 0.703168273 0.612464428 0.125 0.5
-0.32715857 0.498069853 -0.326571941 0.00292981789 0.0181587674 0.999830842 0.125 0.5625
-0.11860691 0.443593889 -0.404534578 -0.299364418 0.0801133215 0.950769663 0.125 0.5625
0.0669840276 0.357378364 -0.362460136 0.651772022 -0.697001755 -0.298967898 0 0
-0.149380043 0.321941733 -0.401862621 0.112218037 -0.78937161 0.603572488 0 0
0.000153616071 0.364078283 -0.536551356 0.507285118 -0.525504827 -0.683012903 0 0
-0.0426873416 0.49512735 -0.305736542 -0.527764142 0.581752181 0.618893743 0.125 0.5
-0.0501229316 0.436247259 -0.303072214 -0.727431476 0.133614227 0.673045814 0.125 0.5625
0.0612392277 0.425005525 -0.361243486 0.907354593 0.0693997592 -0.414597958 0.125 0.5625
0.000153616071 0.364078283 -0.536551356 0.507285118 -0.525504827 -0.683012903 0.125 0.625
0.0124592036 0.434881359 -0.536551356 0.611230254 -0.0875889212 -0.786591232 0.125 0.5625
-0.282331645 0.643974185 -0.329780102 0.126134977 0.553034604 0.823554933 0.375 0.25
-0.629188776 0.696002603 -0.536551356 -0.190316856 0.826486647 -0.529810846 0.375 0.25
-0.633373439 0.659531474 -0.446306467 -0.384754241 0.567899346 0.727636278 0.375 0.25
-0.238407552 0.479110062 -0.536551356 0 0 -1 0.125 0.5625
-0.199805036 0.701218843 -0.536551356 0.29771331 0.809578776 -0.505914271 0.375 0.25
-0.277010083 0.257001311 -0.536551356 -0.0707434267 -0.855543733 -0.512874603 0 0
0.11227379 0.44143647 -0.275468111 0.806840897 0.0241408329 -0.590275347 0.125 0.5625
0.0669840276 0.357378364 -0.362460136 0.651772022 -0.697001755 -0.298967898 0.125 0.625
-0.0268835612 0.443032622 -0.286087751 -0.926926553 0.181466654 -0.328446686 0.125 0.5625
-0.0421834625 0.378142178 -0.284881115 -0.260112792 -0.641874015 -0.721345246 0 0
0.11364729 0.340443075 -0.275468111 0.455227703 -0.502715886 -0.734877169 0 0
-0.0115836598 0.507923067 -0.287294388 -0.184608504 0.536033034 -0.823764741 0.375 0.25
-0.642002225 0.580881298 -0.445557117 -0.469167739 0.0624417663 0.880898833 0.125 0.5625
-0.759627998 0.621421337 -0.536551356 -0.874126613 0.379748523 -0.302809983 0.125 0.5
-0.763712585 0.605374455 -0.536551356 -0.920947015 0.234417871 -0.311295718 0.125 0.5625
-0.371985495 0.35216552 -0.323363781 -0.217660636 -0.539970458 0.81305337 0 0
-0.666123092 0.483492196 -0.536551356 -0.482382804 -0.64312619 -0.594723105 0 0
-0.633373439 0.659531474 -0.446306467 -0.384754241 0.567899346 0.727636278 0.125 0.5
-0.666123092 0.483492196 -0.536551356 -0.482382804 -0.64312619 -0.594723105 0.125 0.625
-0.647655904 0.589747429 -0.536551356 0 0 -1 0.125 0.5625
-0.738470256 0.602467537 -0.536551356 0 0 -1 0.125 0.5625
-0.767797112 0.589327514 -0.536551356 -0.95834142 -0.0305804946 -0.283983529 0.125 0.625
-0.746897697 0.553978324 -0.536551356 -0.71469599 -0.508325934 -0.480431497 0.125 0.625
-0.730042815 0.65095675 -0.536551356 -0.557564318 0.694719851 -0.454407752 0.375 0.25
-0.759627998 0.621421337 -0.536551356 -0.874126613 0.379748523 -0.302809983 0.375 0.25
-0.650631011 0.502231121 -0.444807768 -0.597719252 -0.405234426 0.691749036 0 0
-0.746897697 0.553978324 -0.536551356 -0.71469599 -0.508325934 -0.480431497 0 0
-0.257280558 0.84404397 2.3893888 0.335250705 0.877328336 0.343368769 0.375 0.5
0.132041261 0.718464434 1.90661919 0.824024439 0.458340675 0.333027929 0.375 0.5
-0.232577071 1.00787067 1.89777708 0.223643452 0.950209975 0.216990292 0.375 0.5
-0.235961333 1.0146389 1.37605405 -0.419395387 0.902850688 -0.0947012082 0.375 0.25
-0.447565973 0.782932341 1.53937185 -0.757727027 -0.447012544 -0.47542578 0.375 0.25
0.00277028792 0.630295932 2.4634788 0.736465394 0.617561519 0.276109695 0.375 0.5
0.110870734 1.04774618 1.26119435 0.496019065 0.868224084 -0.0123295207 0.375 0.5
-0.164972723 0.957438529 0.631754398 -0.27174449 0.956568658 -0.105505466 0.375 0.25
-0.290806413 0.890243292 0.706607044 -0.967893362 -0.155923784 -0.19715555 0.375 0.25
0.0294035673 0.720204473 1.41291273 -0.232892856 -0.953758955 -0.190013215 0.375 0.5
0.329387546 0.636054993 1.41958499 0.829889119 -0.554388642 -0.0627483055 0.375 0.5
0.256469786 0.795862615 1.34327447 0.893254638 0.449541867 0.00289928564 0.375 0.5
-0.0553678758 0.856056452 0.635745406 -0.333640724 -0.942293882 0.0276813153 0.375 0.5
-0.17110914 0.843761683 0.290707111 0.568761706 -0.617623448 -0.543186367 0.375 0.5
0.0836160854 0.778875232 0.654028893 0.5495646 -0.740067363 -0.387658685 0.375 0.5
-0.03047527 0.958569825 0.580570936 0.415702105 0.853439033 -0.314378321 0.375 0.5
-0.161903784 0.883426845 0.318604708 0.727270186 0.379901797 -0.571622789 0.375 0.5
-0.194659203 0.903167784 0.295180917 0.235060081 0.816331744 -0.527588129 0.375 0.5
0.0544463918 0.865722477 0.610951662 0.852868557 0.316518128 -0.415248841 0.375 0.5
-0.25173828 0.84542501 0.21164763 -0.271011382 -0.239149228 -0.932395101 0.375 0.5
-0.258993477 0.88868618 0.319586873 -0.441093028 0.868421912 -0.226451963 0.375 0.25
-0.309317827 0.861812949 0.349522471 -0.976585507 -0.196910203 -0.0866441578 0.375 0.25
-0.730042815 0.65095675 -0.536551356 -0.557564318 0.694719851 -0.454407752 0.125 0.5
-0.629188776 0.696002603 -0.536551356 -0.190316856 0.826486647 -0.529810846 0.125 0.5
-0.199805036 0.701218843 -0.536551356 0.29771331 0.809578776 -0.505914271 0.125 0.5
-0.650631011 0.502231121 -0.444807768 -0.597719252 -0.405234426 0.691749036 0.125 0.625
-0.371985495 0.35216552 -0.323363781 -0.217660636 -0.539970458 0.81305337 0.125 0.625
-0.0421834625 0.378142178 -0.284881115 -0.260112792 -0.641874015 -0.721345246 0.125 0.625
-0.0575585216 0.377367169 -0.300407887 -0.562660336 -0.49444893 0.662520647 0.125 0.625
0.0554944128 0.492632657 -0.360026836 0.70102787 0.636510134 -0.321581662 0.125 0.5
0.11090029 0.542429864 -0.275468111 0.502745509 0.334034473 -0.797287941 0.125 0.5
0.0247647911 0.505684495 -0.536551356 0.694854736 0.341994971 -0.632626653 0.125 0.5
-0.149380043 0.321941733 -0.401862621 0.112218037 -0.78937161 0.603572488 0.125 0.625
-0.714208603 0 3.61134958 -0.834219873 0.274736494 0.47811842 0.125 0.625
-0.709101856 0 3.68116856 -0.673317432 0.381430566 -0.633367598 0.125 0.625
-0.869973421 0.320116013 4.21153593 -0.751612842 0.559581816 0.349208355 0.875 0.5
0.458200365 0 1.74312675 0.911945522 0.295395762 0.284775078 0.5 0.625
0.139636442 0.809748352 -0.0928230286 0.261429578 0.890069067 -0.373405397 0.125 0.5
-0.174393252 0 -0.169362187 -0.1115776 0.00711093564 -0.993730366 0.125 0.625
0.0247647911 0.505684495 -0.536551356 0.694854736 0.341994971 -0.632626653 0.375 0.25
-0.282331645 0.643974185 -0.329780102 0.126134977 0.553034604 0.823554933 0.125 0.5
-0.0575585216 0.377367169 -0.300407887 -0.562660336 -0.49444893 0.662520647 0 0
-0.277010083 0.257001311 -0.536551356 -0.0707434267 -0.855543733 -0.512874603 0.125 0.625
0.11364729 0.340443075 -0.275468111 0.455227703 -0.502715886 -0.734877169 0.125 0.625
-0.0115836598 0.507923067 -0.287294388 -0.184608504 0.536033034 -0.823764741 0.125 0.5
0.11090029 0.542429864 -0.275468111 0.502745509 0.334034473 -0.797287941 0.375 0.25
-0.767797112 0.589327514 -0.536551356 -0.95834142 -0.0305804946 -0.283983529 0 0
-1.78148878 0 3.76062298 -0.351461887 0.934444189 -0.0573460311 0.125 0.5
-0.794104338 -0.439343721 3.94461679 -0.594177127 -0.786264598 -0.169533819 0.5 0.25
-0.628482461 -0.395715117 3.68321419 -0.588554442 -0.808137 0.0227669999 0.375 0.25
-0.414825082 -0.487419844 4.06765556 -0.00640893495 -0.993659616 0.112247922 0.5 0.25
0.267739624 -0.395970613 3.84689569 0.465779603 -0.867103279 0.176582411 0.5 0.5
0.170427784 -0.332585365 4.12808084 0.510986924 -0.635628223 0.578678966 0.625 0.5
0.472451568 -0.161851048 3.84245491 0.829050601 -0.426504046 0.361620486 0.625 0.5
0.471513718 0 3.92646027 0.813838422 -0.238450438 0.529913604 0.625 0.625
-0.31134674 -0.581727087 2.88441849 0.315447956 -0.893514872 0.319568068 0.375 0.5
0.0995416045 -0.316644579 2.91571522 0.638251424 -0.769698262 -0.0141304638 0.375 0.5
0.101823606 -0.43442902 3.48107529 0.270397604 -0.962444603 -0.0242015012 0.375 0.5
0.162162751 0 4.24640942 0.574131548 -0.263260603 0.775285065 0.625 0.625
-0.519245982 -0.384950519 4.49690247 -0.113989733 -0.662056029 0.740734875 0.875 0.5
-0.897018969 0 4.13364887 -0.885263801 -0.0715364665 0.459554672 0.875 0.625
-0.924159288 -0.174235836 4.05423737 -0.773056149 -0.515808225 0.369223565 0.875 0.5
-0.882636487 0 4.30675364 -0.82984364 -0.124182038 0.544002175 0.875 0.625
-0.467872649 0 4.60396433 -0.0094302455 -0.266763031 0.96371609 0.875 0.625
-0.713710666 -0.581200778 3.07474995 -0.087315239 -0.950701475 0.297561556 0.375 0.25
-0.431524694 -0.450057477 3.56391764 -0.027345432 -0.991851807 0.124427825 0.375 0.25
0.525320053 -0.154674962 3.62649822 0.880805731 -0.472981781 -0.0216684137 0.5 0.5
0.585627973 0 3.60792112 0.939117491 -0.340282053 -0.0476089716 0.5 0.625
0.260066688 -0.171248659 2.93401647 0.791787267 -0.594817102 -0.13880083 0.5 0.5
0.353316575 0 2.96325493 0.878161609 -0.445001543 -0.175516337 0.5 0.625
-0.628482461 -0.395715117 3.68321419 -0.588554442 -0.808137 0.0227669999 0.125 0.5
-0.73551178 -0.182394311 3.74004412 -0.53271997 -0.367151022 -0.762502134 0.125 0.5
-0.640423238 -0.16457656 3.64454031 -0.988977849 -0.143104985 0.0379965268 0.125 0.5625
-0.817646801 -0.247283474 3.88748932 -0.596378803 -0.603550851 -0.529205739 0.5 0.25
-1.78148878 0 3.76062298 -0.351461887 -0.934444189 -0.0573460311 0.625 0.25
-0.880972862 -0.227690279 3.95199776 -0.636414945 -0.768654227 -0.0643953159 0.556044817 0.25
-0.924159288 -0.174235836 4.05423737 -0.773056149 -0.515808225 0.369223565 0.625 0.25
-1.78148878 0 3.76062298 -0.351461887 -0.934444189 -0.0573460311 0.875 0.625
0.423469961 -0.296860993 3.56753397 0.693169951 -0.713525891 -0.10196279 0.375 0.5
-0.519245982 -0.384950519 4.49690247 -0.113989733 -0.662056029 0.740734875 0.625 0.25
-0.869973421 -0.320116013 4.21153593 -0.751612842 -0.559581816 0.349208355 0.625 0.25
-0.73551178 -0.182394311 3.74004412 -0.53271997 -0.367151022 -0.762502134 0.375 0.25
-0.683017313 -0.957406282 2.03787971 -0.512326598 -0.8509987 -0.115423799 0.375 0.25
-0.595891535 -0.824304163 2.59638166 -0.107334614 -0.922094941 0.371779978 0.375 0.25
-0.96637845 -0.723785222 2.29977131 -0.447537333 -0.887261689 0.11170122 0.375 0.25
0.243191689 -0.258853674 2.1247859 0.837489605 -0.525182068 0.150980681 0.5 0.5
0.368258655 0 2.13597775 0.897704184 -0.415402561 0.146860436 0.5 0.625
0.295125306 -0.458465576 1.24090827 0.465663791 -0.862964332 0.196086645 0.375 0.5
0.495309472 -0.251711845 1.38833082 0.781465769 -0.555656791 0.283825368 0.5 0.5
0.212643415 -0.439356476 1.65647531 0.556825221 -0.820420682 0.129829243 0.375 0.5
-0.880612671 -0.816987574 1.70080769 -0.197181553 -0.980353355 -0.00518818479 0.375 0.25
-0.581641376 -0.811328709 0.945628405 -0.105380796 -0.992434978 -0.062990427 0.375 0.25
-0.259674042 -0.631531 1.47348785 0.327589095 -0.941139698 0.0833164006 0.375 0.5
-0.0394097418 -0.614372194 0.982635915 0.308732897 -0.937399268 0.161141723 0.375 0.5
0.0801708549 -0.502455115 2.11209726 0.944345236 -0.309674919 0.1109666 0.375 0.5
0.628885269 -0.52039206 0.48223567 0.530852497 -0.826279223 0.188304007 0.375 0.5
0.793024123 -0.305045098 0.634259284 0.789171875 -0.511200786 0.340413928 0.5 0.5
-0.13299489 -0.781524301 0.227804542 -0.080203332 -0.995919049 -0.0413834527 0.375 0.25
0.427574545 -0.630763888 0.352581859 0.366999686 -0.920108676 0.136789396 0.375 0.5
0.563438296 0 1.47543001 0.885349035 -0.335279018 0.322094917 0.5 0.625
0.381112218 -0.245557949 1.73527837 0.812606633 -0.520628631 0.261947066 0.5 0.5
-0.403228462 -0.648689806 2.00730014 0.227278486 -0.100531138 -0.968626916 0.375 0.5
0.527998209 -0.573108256 0.011094451 0.466543406 -0.634763956 -0.615964234 0.375 0.5
0.725803554 -0.471269011 0.0470268726 0.509339392 -0.648202956 -0.566044569 0.375 0.5
0.983351231 -0.240117982 0.25033164 0.801488817 -0.529015601 0.278851718 0.5 0.5
0.863743842 0 0.66631335 0.891082883 -0.252428204 0.377162129 0.5 0.625
0.128661811 -0.201810166 -0.119679332 0.307690889 0.148687765 -0.939796925 0.125 0.597128034
0.485120267 0 -0.101580262 0.27921918 -0.110540152 -0.953843653 0.375 0.625
0.875579417 0 0.125999093 -0.190682977 0.193521231 -0.962387443 0.375 0.625
1.30409694 0 -0.299584389 0.431479543 -0.544247746 -0.719458044 0.375 0.625
1.23745477 -0.125559837 -0.244567037 0.235242561 -0.630985975 -0.739268303 0.375 0.5
0.139636442 -0.809748352 -0.0928230286 0.261429578 -0.890069067 -0.373405397 0.375 0.25
1.2909143 0 -0.15654397 0.840372682 -0.462668896 0.282331765 0.5 0.625
1.21579719 -0.13010177 -0.15939796 0.733041108 -0.633731544 0.247053072 0.5 0.5
1.04175258 0 0.249110103 0.876856387 -0.238082781 0.41765964 0.5 0.625
-0.0426873416 -0.49512735 -0.305736542 -0.527764142 -0.581752181 0.618893743 0.375 0.25
-0.0878337771 -0.565246046 -0.407206774 0.361167252 -0.703168273 0.612464428 0.375 0.25
0.0554944128 -0.492632657 -0.360026836 0.70102787 -0.636510134 -0.321581662 0.375 0.25
-0.11860691 -0.443593889 -0.404534578 -0.299364418 -0.0801133215 0.950769663 0.125 0.5625
-0.32715857 -0.498069853 -0.326571941 0.00292981789 -0.0181587674 0.999830842 0.125 0.5625
-0.0878337771 -0.565246046 -0.407206774 0.361167252 -0.703168273 0.612464428 0.125 0.5
0.000153616071 -0.364078283 -0.536551356 0.507285118 0.525504827 -0.683012903 0 0
-0.149380043 -0.321941733 -0.401862621 0.112218037 0.78937161 0.603572488 0 0
0.0669840276 -0.357378364 -0.362460136 0.651772022 0.697001755 -0.298967898 0 0
-0.0501229316 -0.436247259 -0.303072214 -0.727431476 -0.133614227 0.673045814 0.125 0.5625
-0.0426873416 -0.49512735 -0.305736542 -0.527764142 -0.581752181 0.618893743 0.125 0.5
0.0124592036 -0.434881359 -0.536551356 0.611230254 0.0875889212 -0.786591232 0.125 0.5625
0.000153616071 -0.364078283 -0.536551356 0.507285118 0.525504827 -0.683012903 0.125 0.625
0.0612392277 -0.425005525 -0.361243486 0.907354593 -0.0693997592 -0.414597958 0.125 0.5625
-0.633373439 -0.659531474 -0.446306467 -0.384754241 -0.567899346 0.727636278 0.375 0.25
-0.629188776 -0.696002603 -0.536551356 -0.190316856 -0.826486647 -0.529810846 0.375 0.25
-0.282331645 -0.643974185 -0.329780102 0.126134977 -0.553034604 0.823554933 0.375 0.25
-0.238407552 -0.479110062 -0.536551356 0 0 -1 0.125 0.5625
-0.199805036 -0.701218843 -0.536551356 0.29771331 -0.809578776 -0.505914271 0.375 0.25
-0.277010083 -0.257001311 -0.536551356 -0.0707434267 0.855543733 -0.512874603 0 0
0.0669840276 -0.357378364 -0.362460136 0.651772022 0.697001755 -0.298967898 0.125 0.625
0.11227379 -0.44143647 -0.275468111 0.806840897 -0.0241408329 -0.590275347 0.125 0.5625
-0.0268835612 -0.443032622 -0.286087751 -0.926926553 -0.181466654 -0.328446686 0.125 0.5625
0.11364729 -0.340443075 -0.275468111 0.455227703 0.502715886 -0.734877169 0 0
-0.0421834625 -0.378142178 -0.284881115 -0.260112792 0.641874015 -0.721345246 0 0
-0.0115836598 -0.507923067 -0.287294388 -0.184608504 -0.536033034 -0.823764741 0.375 0.25
-0.763712585 -0.605374455 -0.536551356 -0.920947015 -0.234417871 -0.311295718 0.125 0.5625
-0.759627998 -0.621421337 -0.536551356 -0.874126613 -0.379748523 -0.302809983 0.125 0.5
-0.642002225 -0.580881298 -0.445557117 -0.469167739 -0.0624417663 0.880898833 0.125 0.5625
-0.666123092 -0.483492196 -0.536551356 -0.482382804 0.64312619 -0.594723105 0 0
-0.371985495 -0.35216552 -0.323363781 -0.217660636 0.539970458 0.81305337 0 0
-0.633373439 -0.659531474 -0.446306467 -0.384754241 -0.567899346 0.727636278 0.125 0.5
-0.647655904 -0.589747429 -0.536551356 0 0 -1 0.125 0.5625
-0.666123092 -0.483492196 -0.536551356 -0.482382804 0.64312619 -0.594723105 0.125 0.625
-0.767797112 -0.589327514 -0.536551356 -0.95834142 0.0305804946 -0.283983529 0.125 0.625
-0.738470256 -0.602467537 -0.536551356 0 0 -1 0.125 0.5625
-0.746897697 -0.553978324 -0.536551356 -0.71469599 0.508325934 -0.480431497 0.125 0.625
-0.759627998 -0.621421337 -0.536551356 -0.874126613 -0.379748523 -0.302809983 0.375 0.25
-0.730042815 -0.65095675 -0.536551356 -0.557564318 -0.694719851 -0.454407752 0.375 0.25
-0.746897697 -0.553978324 -0.536551356 -0.71469599 0.508325934 -0.480431497 0 0
-0.650631011 -0.502231121 -0.444807768 -0.597719252 0.405234426 0.691749036 0 0
-0.232577071 -1.00787067 1.89777708 0.223643452 -0.950209975 0.216990292 0.375 0.5
0.132041261 -0.718464434 1.90661919 0.824024439 -0.458340675 0.333027929 0.375 0.5
-0.257280558 -0.84404397 2.3893888 0.335250705 -0.877328336 0.343368769 0.375 0.5
-0.235961333 -1.0146389 1.37605405 -0.419395387 -0.902850688 -0.0947012082 0.375 0.25
-0.447565973 -0.782932341 1.53937185 -0.757727027 0.447012544 -0.47542578 0.375 0.25
0.00277028792 -0.630295932 2.4634788 0.736465394 -0.617561519 0.276109695 0.375 0.5
-0.164972723 -0.957438529 0.631754398 -0.27174449 -0.956568658 -0.105505466 0.375 0.25
0.110870734 -1.04774618 1.26119435 0.496019065 -0.868224084 -0.0123295207 0.375 0.5
-0.290806413 -0.890243292 0.706607044 -0.967893362 0.155923784 -0.19715555 0.375 0.25
0.0294035673 -0.720204473 1.41291273 -0.232892856 0.953758955 -0.190013215 0.375 0.5
0.329387546 -0.636054993 1.41958499 0.829889119 0.554388642 -0.0627483055 0.375 0.5
0.256469786 -0.795862615 1.34327447 0.893254638 -0.449541867 0.00289928564 0.375 0.5
0.0836160854 -0.778875232 0.654028893 0.5495646 0.740067363 -0.387658685 0.375 0.5
-0.17110914 -0.843761683 0.290707111 0.568761706 0.617623448 -0.543186367 0.375 0.5
-0.0553678758 -0.856056452 0.635745406 -0.333640724 0.942293882 0.0276813153 0.375 0.5
-0.194659203 -0.903167784 0.295180917 0.235060081 -0.816331744 -0.527588129 0.375 0.5
-0.161903784 -0.883426845 0.318604708 0.727270186 -0.379901797 -0.571622789 0.375 0.5
-0.03047527 -0.958569825 0.580570936 0.415702105 -0.853439033 -0.314378321 0.375 0.5
0.0544463918 -0.865722477 0.610951662 0.852868557 -0.316518128 -0.415248841 0.375 0.5
-0.258993477 -0.88868618 0.319586873 -0.441093028 -0.868421912 -0.226451963 0.375 0.25
-0.25173828 -0.84542501 0.21164763 -0.271011382 0.239149228 -0.932395101 0.375 0.5
-0.309317827 -0.861812949 0.349522471 -0.976585507 0.196910203 -0.0866441578 0.375 0.25
-0.629188776 -0.696002603 -0.536551356 -0.190316856 -0.826486647 -0.529810846 0.125 0.5
-0.730042815 -0.65095675 -0.536551356 -0.557564318 -0.694719851 -0.454407752 0.125 0.5
-0.199805036 -0.701218843 -0.536551356 0.29771331 -0.809578776 -0.505914271 0.125 0.5
-0.371985495 -0.35216552 -0.323363781 -0.217660636 0.539970458 0.81305337 0.125 0.625
-0.650631011 -0.502231121 -0.444807768 -0.597719252 0.405234426 0.691749036 0.125 0.625
-0.0575585216 -0.377367169 -0.300407887 -0.562660336 0.49444893 0.662520647 0.125 0.625
-0.0421834625 -0.378142178 -0.284881115 -0.260112792 0.641874015 -0.721345246 0.125 0.625
0.11090029 -0.542429864 -0.275468111 0.502745509 -0.334034473 -0.797287941 0.125 0.5
0.0554944128 -0.492632657 -0.360026836 0.70102787 -0.636510134 -0.321581662 0.125 0.5
0.0247647911 -0.505684495 -0.536551356 0.694854736 -0.341994971 -0.632626653 0.125 0.5
-0.149380043 -0.321941733 -0.401862621 0.112218037 0.78937161 0.603572488 0.125 0.625
-0.709101856 0 3.68116856 -0.673317432 -0.381430566 -0.633367598 0.125 0.625
-0.714208603 0 3.61134958 -0.834219873 -0.274736494 0.47811842 0.125 0.625
-0.869973421 -0.320116013 4.21153593 -0.751612842 -0.559581816 0.349208355 0.875 0.5
0.458200365 0 1.74312675 0.911945522 -0.295395762 0.284775078 0.5 0.625
0.139636442 -0.809748352 -0.0928230286 0.261429578 -0.890069067 -0.373405397 0.125 0.5
-0.174393252 0 -0.169362187 -0.1115776 -0.00711093564 -0.993730366 0.125 0.625
0.0247647911 -0.505684495 -0.536551356 0.694854736 -0.341994971 -0.632626653 0.375 0.25
-0.282331645 -0.643974185 -0.329780102 0.126134977 -0.553034604 0.823554933 0.125 0.5
-0.0575585216 -0.377367169 -0.300407887 -0.562660336 0.49444893 0.662520647 0 0
-0.277010083 -0.257001311 -0.536551356 -0.0707434267 0.855543733 -0.512874603 0.125 0.625
0.11364729 -0.340443075 -0.275468111 0.455227703 0.502715886 -0.734877169 0.125 0.625
-0.0115836598 -0.507923067 -0.287294388 -0.184608504 -0.536033034 -0.823764741 0.125 0.5
0.11090029 -0.542429864 -0.275468111 0.502745509 -0.334034473 -0.797287941 0.375 0.25
-0.767797112 -0.589327514 -0.536551356 -0.95834142 0.0305804946 -0.283983529 0 0
-1.78148878 0 3.76062298 -0.351461887 -0.934444189 -0.0573460311 0.125 0.5
-1.78148878 0 3.76062298 -0.351461887 0.934444189 -0.0573460311 0.625 0.25
-0.880972862 0.227690279 3.95199776 -0.636414945 0.768654227 -0.0643953159 0.556044817 0.25
-0.817646801 0.247283474 3.88748932 -0.596378803 0.603550851 -0.529205739 0.5 0.25
-0.817646801 -0.247283474 3.88748932 -0.596378803 -0.603550851 -0.529205739 0.5 0.25
-0.880972862 -0.227690279 3.95199776 -0.636414945 -0.768654227 -0.0643953159 0.556044817 0.25
-1.78148878 0 3.76062298 -0.351461887 -0.934444189 -0.0573460311 0.625 0.25
3 0 1 2
3 3 4 5
3 6 7 1
3 8 3 5
3 9 10 11
3 12 13 14
3 15 14 16
3 17 16 7
3 18 11 4
3 19 20 21
3 22 23 13
3 24 21 10
3 25 26 27
3 28 29 30
3 31 32 33
3 34 35 36
3 37 38 28
3 32 39 40
3 36 41 42
3 26 43 44
3 45 37 46
3 47 48 34
3 49 33 20
3 50 27 23
3 23 51 52
3 26 53 54
3 37 55 46
3 28 56 55
3 27 54 51
3 13 52 57
3 7 58 59
3 16 60 58
3 14 57 60
3 1 59 61
3 62 1 61
3 0 6 1
3 3 18 4
3 6 17 7
3 8 63 3
3 9 24 10
3 12 22 13
3 15 12 14
3 17 15 16
3 18 9 11
3 19 49 20
3 22 50 23
3 24 19 21
3 25 64 26
3 28 38 29
3 31 65 32
3 34 48 35
3 37 66 38
3 32 65 39
3 36 35 41
3 26 64 43
3 45 66 37
3 47 67 48
3 49 31 33
3 50 25 27
3 23 27 51
3 26 44 53
3 37 28 55
3 28 30 56
3 27 26 54
3 13 23 52
3 7 16 58
3 16 14 60
3 14 13 57
3 1 7 59
3 62 2 1
3 68 69 70
3 71 72 73
3 69 74 75
3 71 73 76
3 77 78 79
3 80 81 82
3 83 80 84
3 74 83 85
3 72 77 86
3 87 88 89
3 81 90 91
3 78 87 92
3 93 94 95
3 96 97 98
3 99 100 101
3 102 103 104
3 98 105 106
3 107 108 100
3 109 110 102
3 111 112 94
3 113 106 114
3 104 115 116
3 88 99 117
3 90 93 118
3 119 120 90
3 121 122 94
3 113 123 106
3 123 124 98
3 120 121 93
3 125 119 81
3 126 127 74
3 127 128 83
3 128 125 80
3 129 126 69
3 129 69 130
3 69 75 70
3 72 86 73
3 74 85 75
3 73 131 76
3 78 92 79
3 81 91 82
3 80 82 84
3 83 84 85
3 77 79 86
3 88 117 89
3 90 118 91
3 87 89 92
3 94 132 95
3 97 105 98
3 100 133 101
3 103 115 104
3 105 134 106
3 108 133 100
3 110 103 102
3 112 132 94
3 106 134 114
3 115 135 116
3 99 101 117
3 93 95 118
3 120 93 90
3 122 111 94
3 123 98 106
3 124 96 98
3 121 94 93
3 119 90 81
3 127 83 74
3 128 80 83
3 125 81 80
3 126 74 69
3 69 68 130
3 136 137 138
3 136 139 140
3 139 141 142
3 143 144 145
3 146 147 139
3 148 149 150
3 146 148 151
3 152 145 153
3 142 154 155
3 155 156 157
3 140 142 155
3 158 159 160
3 137 161 138
3 162 163 164
3 150 149 165
3 138 161 163
3 140 166 143
3 152 140 143
3 136 167 168
3 164 161 169
3 170 171 172
3 157 173 174
3 166 157 144
3 175 176 177
3 178 179 180
3 178 177 181
3 145 171 153
3 144 174 182
3 177 183 184
3 181 185 179
3 181 184 186
3 187 188 176
3 173 187 174
3 182 178 189
3 189 180 170
3 174 175 182
3 186 190 191
3 192 193 183
3 176 192 183
3 191 194 195
3 194 190 196
3 196 197 198
3 184 193 190
3 186 199 185
3 197 200 198
3 193 197 190
3 201 202 193
3 203 204 205
3 206 207 208
3 209 210 211
3 212 208 213
3 214 215 216
3 217 218 219
3 215 220 216
3 204 221 217
3 210 222 211
3 223 224 214
3 225 212 213
3 226 209 227
3 228 203 205
3 229 230 231
3 232 233 222
3 207 234 229
3 220 235 236
3 237 238 231
3 236 239 237
3 219 240 241
3 242 243 233
3 244 245 246
3 244 172 171
3 246 247 172
3 172 248 170
3 182 249 144
3 145 249 244
3 250 251 247
3 247 252 248
3 189 248 253
3 182 253 254
3 245 250 246
3 245 254 255
3 256 257 258
3 259 260 261
3 253 252 256
3 250 262 259
3 253 258 254
3 255 258 262
3 263 264 261
3 257 261 260
3 262 257 260
3 251 265 252
3 251 261 264
3 256 265 263
3 236 266 267
3 237 230 266
3 220 267 268
3 207 269 270
3 229 238 269
3 271 213 272
3 223 273 274
3 275 220 268
3 273 216 275
3 272 208 276
3 276 207 270
3 158 277 278
3 136 152 137
3 136 168 139
3 139 147 141
3 143 166 144
3 146 151 147
3 148 279 149
3 146 279 148
3 152 143 145
3 142 141 154
3 155 154 156
3 140 139 142
3 137 169 161
3 162 167 163
3 167 138 163
3 140 155 166
3 152 136 140
3 136 138 167
3 170 153 171
3 157 156 173
3 166 155 157
3 175 187 176
3 178 181 179
3 178 175 177
3 145 244 171
3 144 157 174
3 177 176 183
3 181 186 185
3 181 177 184
3 187 280 188
3 173 280 187
3 182 175 178
3 189 178 180
3 174 187 175
3 186 184 190
3 192 201 193
3 176 188 192
3 195 281 191
3 194 282 195
3 194 191 190
3 196 190 197
3 184 183 193
3 186 191 199
3 197 202 200
3 193 202 197
3 201 200 202
3 203 283 204
3 206 284 207
3 209 285 210
3 212 206 208
3 214 224 215
3 217 221 218
3 215 286 220
3 204 283 221
3 210 232 222
3 223 287 224
3 225 288 212
3 226 285 209
3 228 289 203
3 229 234 230
3 232 242 233
3 207 284 234
3 220 286 235
3 237 239 238
3 236 235 239
3 219 218 240
3 242 290 243
3 244 249 245
3 244 246 172
3 246 250 247
3 172 247 248
3 182 245 249
3 145 144 249
3 250 259 251
3 247 251 252
3 189 170 248
3 182 189 253
3 245 255 250
3 245 182 254
3 256 263 257
3 259 262 260
3 253 248 252
3 250 255 262
3 253 256 258
3 255 254 258
3 263 265 264
3 257 263 261
3 262 258 257
3 251 264 265
3 251 259 261
3 256 252 265
3 236 237 266
3 237 231 230
3 220 236 267
3 207 229 269
3 229 231 238
3 271 225 213
3 223 214 273
3 275 216 220
3 273 214 216
3 272 213 208
3 276 208 207
3 291 159 278
3 159 158 278
3 292 293 294
3 295 296 294
3 297 298 296
3 299 300 301
3 296 302 303
3 304 305 306
3 307 306 303
3 308 299 309
3 310 311 297
3 312 313 310
3 310 297 295
3 314 315 316
3 292 317 293
3 318 319 320
3 321 305 304
3 319 317 292
3 301 322 295
3 301 295 309
3 323 324 294
3 325 317 318
3 326 327 328
3 329 330 312
3 300 312 322
3 331 332 333
3 334 335 336
3 337 331 336
3 308 327 299
3 338 329 300
3 339 340 331
3 335 341 337
3 342 339 337
3 332 343 344
3 329 344 330
3 345 336 338
3 328 334 345
3 338 333 329
3 346 347 342
3 340 348 349
3 340 349 332
3 350 351 346
3 352 347 351
3 353 354 352
3 347 348 339
3 341 355 342
3 353 356 354
3 347 354 348
3 348 357 358
3 359 360 361
3 362 363 364
3 365 366 367
3 368 362 369
3 370 371 372
3 373 374 375
3 370 376 371
3 375 377 360
3 365 378 366
3 372 379 380
3 368 369 381
3 382 367 383
3 359 361 384
3 385 386 387
3 378 388 389
3 387 390 363
3 391 392 376
3 385 393 394
3 394 395 391
3 396 397 373
3 388 398 399
3 400 401 402
3 327 326 402
3 326 403 400
3 328 404 326
3 300 405 338
3 402 405 299
3 403 406 407
3 404 408 403
3 409 404 345
3 410 409 338
3 400 407 401
3 411 410 401
3 412 413 414
3 415 416 417
3 414 408 409
3 417 418 407
3 410 412 409
3 418 412 411
3 415 419 420
3 416 415 413
3 416 413 418
3 408 421 406
3 419 415 406
3 420 421 414
3 422 423 391
3 423 386 394
3 424 422 376
3 425 426 363
3 426 393 387
3 427 368 428
3 429 430 380
3 424 376 431
3 431 370 430
3 432 362 427
3 425 363 432
3 433 434 316
3 293 309 294
3 296 323 294
3 298 302 296
3 300 322 301
3 302 307 303
3 305 435 306
3 306 435 303
3 299 301 309
3 311 298 297
3 313 311 310
3 297 296 295
3 317 325 293
3 319 324 320
3 319 292 324
3 322 310 295
3 295 294 309
3 324 292 294
3 327 308 328
3 330 313 312
3 312 310 322
3 332 344 333
3 335 337 336
3 331 333 336
3 327 402 299
3 329 312 300
3 340 332 331
3 341 342 337
3 339 331 337
3 343 436 344
3 344 436 330
3 336 333 338
3 334 336 345
3 333 344 329
3 347 339 342
3 348 358 349
3 349 343 332
3 346 437 350
3 350 438 351
3 347 346 351
3 354 347 352
3 348 340 339
3 355 346 342
3 356 357 354
3 354 357 348
3 357 356 358
3 360 439 361
3 363 440 364
3 366 441 367
3 362 364 369
3 371 379 372
3 374 377 375
3 376 442 371
3 377 439 360
3 378 389 366
3 379 443 380
3 369 444 381
3 367 441 383
3 361 445 384
3 386 390 387
3 388 399 389
3 390 440 363
3 392 442 376
3 393 395 394
3 395 392 391
3 397 374 373
3 398 446 399
3 401 405 402
3 326 400 402
3 403 407 400
3 404 403 326
3 405 401 338
3 405 300 299
3 406 417 407
3 408 406 403
3 404 328 345
3 409 345 338
3 407 411 401
3 410 338 401
3 413 420 414
3 416 418 417
3 408 404 409
3 418 411 407
3 412 414 409
3 412 410 411
3 419 421 420
3 415 420 413
3 413 412 418
3 421 419 406
3 415 417 406
3 421 408 414
3 423 394 391
3 386 385 394
3 422 391 376
3 426 387 363
3 393 385 387
3 368 381 428
3 430 372 380
3 376 370 431
3 370 372 430
3 362 368 427
3 363 362 432
3 433 315 447
3 433 316 315
3 448 449 450
3 451 452 453
