ply
format ascii 1.0
comment Created in Blender version 4.3.2
element vertex 454
property float x
property float y
property float z
element face 556
property list uchar uint vertex_indices
end_header
-0.2822231 0.29273504 0.29706913
-0.19180277 0.16846871 0.20720749
-0.30257314 0.28113288 0.23068416
-0.23916468 0.110195816 0.34061402
-0.09557405 -0.02933669 0.2864277
-0.18502122 0.14912361 0.29469234
-0.18502122 0.14912361 0.29469234
-0.11451864 -0.0041478276 0.19790776
-0.2822231 0.29273504 0.29706913
-0.16792056 -0.30198687 0.38995898
-0.17174393 -0.49544036 0.33111635
-0.06590283 -0.1961832 0.25348356
-0.17174393 -0.49544036 0.33111635
-0.28131023 -0.691893 0.274335
-0.13687846 -0.48060566 0.21441588
-0.06590283 -0.1961832 0.25348356
-0.0660896 -0.16617256 0.17123383
-0.09557405 -0.02933669 0.2864277
-0.15330565 -0.12229782 0.35488445
-0.3823186 -0.74388784 0.4566717
-0.35704693 -0.84958273 0.39451998
-0.2783088 -0.716223 0.37717414
-0.2783088 -0.716223 0.37717414
-0.37228996 -0.84161305 0.30179268
-0.25278354 -0.5285407 0.41903996
-0.38727283 -0.8837024 0.41392204
-0.42623845 -0.8981688 0.36454877
-0.40536785 -0.8728807 0.34580502
-0.49800736 -0.8790841 0.39405775
-0.49710655 -0.8948697 0.35763445
-0.4863568 -0.8948697 0.38596433
-0.47021738 -0.8711811 0.46829474
-0.42372334 -0.8978441 0.40481317
-0.38727283 -0.8837024 0.41392204
-0.51556385 -0.848133 0.32009333
-0.42875355 -0.8984935 0.32428437
-0.5151403 -0.8805954 0.34741312
-0.4928906 -0.85965705 0.39419404
-0.5151403 -0.8805954 0.34741312
-0.47560707 -0.8948697 0.41429424
-0.4446185 -0.89841753 0.39199895
-0.44930848 -0.8976936 0.35227296
-0.49710655 -0.8948697 0.35763445
-0.4446185 -0.89841753 0.39199895
-0.4469635 -0.89805555 0.37213594
-0.45627952 -0.84007615 0.49260193
-0.47021738 -0.8711811 0.46829474
-0.4508372 -0.8630379 0.2321062
-0.4234629 -0.86205906 0.27768797
-0.45627952 -0.84007615 0.49260193
-0.35704693 -0.84958273 0.39451998
-0.4234629 -0.86205906 0.27768797
-0.387533 -0.8336434 0.20906536
-0.44930848 -0.8976936 0.35227296
-0.42875355 -0.8984935 0.32428437
-0.4808744 -0.87757283 0.44070232
-0.47560707 -0.8948697 0.41429424
-0.28431162 -0.66756284 0.17149585
-0.07286662 -0.14184886 0.094536185
-0.13817695 0.018404365 0.1183072
-0.13258633 -0.4419307 0.116272375
-0.21166205 0.1797769 0.1450536
-0.29865903 0.27117568 0.17671792
-0.3321712 0.25694615 0.33259773
-0.42372334 -0.8978441 0.40481317
-0.4808744 -0.87757283 0.44070232
-0.51556385 -0.848133 0.32009333
-0.387533 -0.8336434 0.20906536
-0.3363462 0.28113288 0.13789333
-0.2364007 0.16846871 0.08467567
-0.36342865 0.29273504 0.07395877
-0.28743988 0.14912361 0.013299286
-0.21360698 -0.02933669 -0.03786519
-0.35843408 0.110195816 0.012923971
-0.17121989 -0.0041478276 0.042122394
-0.28743988 0.14912361 0.013299286
-0.36342865 0.29273504 0.07395877
-0.16970146 -0.1961832 -0.03170082
-0.30068183 -0.49544036 -0.023137659
-0.3355763 -0.30198687 -0.07067132
-0.19895974 -0.48060566 0.043849036
-0.34811616 -0.6918929 0.09078723
-0.30068183 -0.49544036 -0.023137659
-0.1169754 -0.16617256 0.03142619
-0.16970146 -0.1961832 -0.03170082
-0.21360698 -0.02933669 -0.03786519
-0.30183512 -0.12229782 -0.053196937
-0.41192067 -0.716223 0.010078594
-0.48338726 -0.84958273 0.047402814
-0.54269683 -0.74388784 0.016036123
-0.43546012 -0.84161305 0.12823409
-0.41192067 -0.716223 0.010078594
-0.419278 -0.5285407 -0.038399816
-0.48908985 -0.8728807 0.115780726
-0.5171259 -0.89816874 0.11483753
-0.51901305 -0.8837024 0.051968783
-0.5769449 -0.8948696 0.13707559
-0.5669696 -0.8948696 0.16568734
-0.5910721 -0.8790841 0.13836452
-0.51901305 -0.8837024 0.051968783
-0.54108065 -0.897844 0.082376555
-0.61750233 -0.8711811 0.06363265
-0.5742141 -0.8805954 0.18510923
-0.49317116 -0.8984935 0.14729853
-0.5569777 -0.848133 0.20630962
-0.5742141 -0.8805954 0.18510923
-0.58724004 -0.85965705 0.13497114
-0.5488505 -0.89841753 0.105623975
-0.58692026 -0.8948696 0.108463824
-0.5669696 -0.8948696 0.16568734
-0.52690786 -0.8976935 0.13907048
-0.53787917 -0.89805555 0.122347236
-0.5488505 -0.89841753 0.105623975
-0.61750233 -0.8711811 0.06363265
-0.6224497 -0.8400761 0.036053166
-0.45916668 -0.86205906 0.17959267
-0.4508372 -0.8630379 0.2321062
-0.6224497 -0.8400761 0.036053166
-0.48338726 -0.84958273 0.047402814
-0.387533 -0.8336434 0.20906536
-0.45916668 -0.86205906 0.17959267
-0.49317116 -0.8984935 0.14729853
-0.52690786 -0.8976935 0.13907048
-0.60793006 -0.8775728 0.09161985
-0.58692026 -0.8948696 0.108463824
-0.28431162 -0.66756284 0.17149585
-0.13817695 0.018404365 0.1183072
-0.07286662 -0.14184886 0.094536185
-0.13258633 -0.4419307 0.116272375
-0.21166205 0.1797769 0.1450536
-0.29865903 0.27117568 0.17671792
-0.42452842 0.25694615 0.07884829
-0.54108065 -0.897844 0.082376555
-0.60793006 -0.8775728 0.09161985
-0.5569777 -0.848133 0.20630962
-0.387533 -0.8336434 0.20906536
-0.33304533 0.40806752 0.34484392
-0.2822231 0.29273504 0.29706913
-0.23105645 0.37115592 0.29237455
-0.51391965 0.42619509 0.3612454
-0.53484887 0.3418395 0.38909894
-0.63292336 0.3657089 0.2983802
-0.61658084 0.34050733 0.34410352
-0.48412982 0.2320934 0.3829167
-0.49557188 0.062485397 0.3494782
-0.3525402 0.053096354 0.38204736
-0.31412226 0.5368416 0.30524284
-0.5457149 0.4616937 0.26663893
-0.25117788 0.47979695 0.15943621
-0.22159463 0.40404207 0.20429415
-0.24712333 0.42786545 0.15796047
-0.36810303 0.56896013 0.2019935
-0.3321712 0.25694615 0.33259773
-0.23916468 0.110195816 0.34061402
-0.66509306 0.27014714 0.31008902
-0.6322212 0.2757203 0.34750515
-0.5996027 0.0767473 0.28625244
-0.5557437 0.06797576 0.32496077
-0.30257314 0.28113288 0.23068416
-0.27393872 0.3097841 0.22595046
-0.2822231 0.29273504 0.29706913
-0.24412617 0.35401767 0.23581567
-0.22159463 0.40404207 0.20429415
-0.22828445 0.3733701 0.22379456
0.0022155643 0.31595773 0.06720851
0.0022155643 0.31595773 0.06720851
-0.58891976 0.25803107 0.37713808
-0.22190183 0.45123166 0.2509787
-0.31412226 0.5368416 0.30524284
-0.27393872 0.3097841 0.22595046
-0.15330565 -0.12229782 0.35488445
-0.24743494 -0.033314705 0.42123574
-0.20921642 -0.20086527 0.4498186
-0.60381496 -0.1714359 0.2877856
-0.5419977 -0.17479342 0.34792584
-0.5148652 -0.3152866 0.39567655
-0.61380446 -0.39572996 0.3717813
-0.5361568 -0.43995672 0.4095267
-0.36199695 -0.37018284 0.40138942
-0.25278354 -0.5285407 0.41903996
-0.16792056 -0.30198687 0.38995898
-0.42585176 -0.5174384 0.41915265
-0.47104585 -0.17860001 0.39987206
-0.6922602 -0.6219514 0.4173637
-0.6238923 -0.6675585 0.46123
-0.3823186 -0.74388784 0.4566717
-0.5558164 -0.70645463 0.471689
-0.5822428 -0.2916457 0.35832915
-0.6588377 -0.3696002 0.30781218
-0.31976724 -0.21003914 0.39149708
-0.65625465 -0.79812115 0.45732623
-0.5900424 -0.8089009 0.4657395
-0.7434961 -0.6123352 0.33862534
-0.7525768 -0.7371297 0.41858894
-0.63675916 -0.8427033 0.2997763
-0.51556385 -0.848133 0.32009333
-0.74683267 -0.7744295 0.33983976
-0.8359649 -0.8855993 0.41236663
-0.86763513 -0.90210456 0.38380826
-0.45627952 -0.84007615 0.49260193
-0.8639188 -0.85919243 0.38245562
-0.79367816 -0.7374962 0.3568901
-0.8293935 -0.8600486 0.41142485
-0.46509722 -0.9202373 0.39457107
-0.4172413 -0.93439126 0.40033498
-0.43716305 -0.9039502 0.3852003
-0.4172413 -0.93439126 0.40033498
-0.35666645 -0.91020083 0.35684133
-0.42104837 -0.9335896 0.3628828
-0.48221415 -0.9209673 0.35762072
-0.4248554 -0.932788 0.32543057
-0.4626867 -0.9731946 0.35265225
-0.43716305 -0.9039502 0.3852003
-0.44110835 -0.9031509 0.3678386
-0.47365567 -0.92060226 0.3760959
-0.4626867 -0.9731946 0.35265225
-0.4588909 -0.9731946 0.37387484
-0.35433286 -0.9111633 0.4025724
-0.25121272 -0.97319466 0.38165
-0.25377518 -0.94612116 0.3709391
-0.38363147 -0.9731946 0.3606028
-0.3717241 -0.97319466 0.42717785
-0.3955388 -0.9731946 0.29402775
-0.4863568 -0.8948697 0.38596433
-0.48221415 -0.9209673 0.35762072
-0.4469635 -0.89805555 0.37213594
-0.44930848 -0.8976936 0.35227296
-0.49710655 -0.8948697 0.35763445
-0.4446185 -0.89841753 0.39199895
-0.25941265 -0.9458964 0.34788164
-0.22209334 -0.97319466 0.34724107
-0.22258839 -0.97319466 0.34229824
-0.3590001 -0.90923834 0.31111023
-0.2626055 -0.9731946 0.31795195
-0.25377518 -0.94612116 0.3709391
-0.2626055 -0.9731946 0.31795195
-0.2569091 -0.97319466 0.34980097
-0.23000267 -0.97319466 0.34406877
-0.22308344 -0.97319466 0.33735538
-0.23260218 -0.9731946 0.3295346
-0.22740313 -0.97319466 0.35860297
-0.22209334 -0.97319466 0.34724107
-0.26505008 -0.94567156 0.32482418
-0.23260218 -0.9731946 0.3295346
-0.34086657 -0.09541255 0.46154407
-0.46350464 -0.24024343 0.46608898
-0.33102107 -0.24289608 0.51026285
-0.32937258 -0.399413 0.5118236
-0.29349408 -0.35041764 0.42479175
-0.43610877 -0.07318556 0.42796963
-0.42375022 -0.43387088 0.55674386
-0.3552539 -0.6227029 0.50298214
-0.32667506 -0.60024714 0.47112805
-0.43439174 -0.38835537 0.45604825
-0.5275938 -0.3863537 0.46310604
-0.4906405 -0.40924686 0.50067526
-0.3965548 -0.6215056 0.48564792
-0.36518794 -0.7250171 0.47030616
-0.44365472 -0.61602056 0.47815055
-0.3930537 -0.63805795 0.51710135
-0.36371312 -0.7166478 0.4824326
-0.3524536 -0.72367495 0.4846368
-0.4265205 -0.62894374 0.49964046
-0.3422873 -0.74873495 0.46250203
-0.33580315 -0.7163532 0.47395325
-0.32437366 -0.7073725 0.46121392
-0.22740313 -0.97319466 0.35860297
-0.25121272 -0.97319466 0.38165
-0.3717241 -0.97319466 0.42717785
-0.26505008 -0.94567156 0.32482418
-0.3590001 -0.90923834 0.31111023
-0.44930848 -0.8976936 0.35227296
-0.44505364 -0.9023516 0.3504769
-0.46509722 -0.9202373 0.39457107
-0.47560707 -0.8948697 0.41429424
-0.4550951 -0.9731946 0.39509743
-0.4248554 -0.932788 0.32543057
-0.29865903 0.27117568 0.17671792
-0.30009866 0.29212135 0.1772419
-0.22190183 0.45123166 0.2509787
-0.62917024 -0.28929114 0.29701415
-0.45627952 -0.84007615 0.49260193
-0.4508372 -0.8630379 0.2321062
-0.4550951 -0.9731946 0.39509743
-0.35433286 -0.9111633 0.4025724
-0.44505364 -0.9023516 0.3504769
-0.3955388 -0.9731946 0.29402775
-0.49710655 -0.8948697 0.35763445
-0.4446185 -0.89841753 0.39199895
-0.47560707 -0.8948697 0.41429424
-0.22308344 -0.97319466 0.33735538
0.0022155643 0.31595773 0.06720851
-0.3212151 0.37115592 0.04466571
-0.36342865 0.29273504 0.07395877
-0.43306977 0.40806752 0.070029035
-0.61610687 0.3418395 0.16584454
-0.5821702 0.42619509 0.17372857
-0.6497947 0.34050733 0.25284937
-0.63292336 0.3657089 0.2983802
-0.47191763 0.053096354 0.054060563
-0.56055117 0.062485397 0.17094903
-0.5732799 0.2320934 0.13797884
-0.5457149 0.4616937 0.26663893
-0.39311874 0.5368416 0.08820173
-0.24712333 0.42786545 0.15796047
-0.25734994 0.40404207 0.10605727
-0.25117788 0.47979695 0.15943621
-0.36810303 0.56896013 0.2019935
-0.35843408 0.110195816 0.012923971
-0.42452842 0.25694615 0.07884829
-0.66396236 0.2757203 0.26029697
-0.66509306 0.27014714 0.31008902
-0.590886 0.06797576 0.22840813
-0.5996027 0.0767473 0.28625244
-0.36342865 0.29273504 0.07395877
-0.31136823 0.3097841 0.12311371
-0.3363462 0.28113288 0.13789333
-0.29487175 0.35401767 0.09639339
0.0022155643 0.31595773 0.06720851
-0.27500927 0.3733701 0.09541923
-0.25734994 0.40404207 0.10605727
0.0022155643 0.31595773 0.06720851
-0.6498392 0.25803107 0.2097632
-0.39311874 0.5368416 0.08820173
-0.28759354 0.45123166 0.07049231
-0.31136823 0.3097841 0.12311371
-0.40568775 -0.20086527 -0.08998197
-0.41659212 -0.033314705 -0.043519825
-0.30183512 -0.12229782 -0.053196937
-0.59511757 -0.17479342 0.2019801
-0.60381496 -0.1714359 0.2877856
-0.6302395 -0.43995672 0.15103662
-0.66545874 -0.39572996 0.22986223
-0.6050265 -0.3152866 0.14796051
-0.3355763 -0.30198687 -0.07067132
-0.419278 -0.5285407 -0.038399816
-0.49159476 -0.37018284 0.045322374
-0.5519284 -0.5174384 0.072760016
-0.5741557 -0.17860001 0.11658004
-0.730683 -0.6675585 0.16782486
-0.75485915 -0.6219514 0.24537449
-0.54269683 -0.74388784 0.016036123
-0.6852568 -0.70645463 0.116054475
-0.6588377 -0.3696002 0.30781218
-0.6326342 -0.2916457 0.21987975
-0.45288625 -0.21003914 0.025755629
-0.7076512 -0.8089009 0.14261213
-0.75296474 -0.79812115 0.19161743
-0.8018519 -0.7371297 0.28320667
-0.7434961 -0.6123352 0.33862534
-0.5569777 -0.848133 0.20630962
-0.63675916 -0.8427033 0.2997763
-0.74683267 -0.7744295 0.33983976
-0.86763513 -0.90210456 0.38380826
-0.8617313 -0.8855993 0.34157407
-0.6224497 -0.8400761 0.036053166
-0.8639188 -0.85919243 0.38245562
-0.856092 -0.8600486 0.33807144
-0.79367816 -0.7374962 0.3568901
-0.5387692 -0.90395015 0.10603976
-0.5332366 -0.93439126 0.08164045
-0.56619143 -0.92023724 0.11681707
-0.5120792 -0.9335896 0.112777635
-0.45887643 -0.9102008 0.07602179
-0.5332366 -0.93439126 0.08164045
-0.53739995 -0.9731946 0.14737925
-0.49092177 -0.932788 0.14391482
-0.5555525 -0.9209672 0.15612522
-0.53063154 -0.90315086 0.121875584
-0.5387692 -0.90395015 0.10603976
-0.5481338 -0.9731946 0.12868194
-0.53739995 -0.9731946 0.14737925
-0.56087196 -0.92060226 0.13647114
-0.389119 -0.94612116 -0.0009150207
-0.39404085 -0.9731946 -0.010767132
-0.48648417 -0.9111632 0.03948973
-0.48195064 -0.9731946 0.090473086
-0.5156227 -0.9731946 0.03181973
-0.4482786 -0.9731946 0.14912641
-0.5555525 -0.9209672 0.15612522
-0.5769449 -0.8948696 0.13707559
-0.53787917 -0.89805555 0.122347236
-0.5669696 -0.8948696 0.16568734
-0.52690786 -0.8976935 0.13907048
-0.5488505 -0.89841753 0.105623975
-0.34681854 -0.9731946 0.0009786785
-0.34961653 -0.9731946 -0.0031259656
-0.3786165 -0.9458963 0.02037172
-0.36182392 -0.9731946 0.04535152
-0.4312687 -0.90923834 0.112553835
-0.389119 -0.94612116 -0.0009150207
-0.3779324 -0.9731946 0.017292187
-0.36182392 -0.9731946 0.04535152
-0.34402058 -0.9731946 0.0050833523
-0.3536363 -0.9731946 0.0043881834
-0.34628522 -0.9731946 0.01719296
-0.34961653 -0.9731946 -0.0031259656
-0.36098734 -0.9731946 -0.008416593
-0.34628522 -0.9731946 0.01719296
-0.368114 -0.94567156 0.04165846
-0.53784835 -0.24289608 -0.057990402
-0.61094224 -0.24024343 0.06100753
-0.5140746 -0.09541255 -0.014341086
-0.5375887 -0.399413 -0.060245633
-0.45416126 -0.35041764 -0.016637683
-0.5654531 -0.07318556 0.07259895
-0.5517319 -0.62270284 -0.036836594
-0.63876045 -0.43387088 -0.033991784
-0.5093638 -0.6002471 -0.030805022
-0.5821864 -0.38835537 0.049985737
-0.65812004 -0.3863537 0.10448831
-0.6539612 -0.40924686 0.05195549
-0.60348934 -0.61602056 0.039008543
-0.53833807 -0.7250171 -0.0054198503
-0.57222795 -0.62150556 0.0029899478
-0.53779453 -0.7236749 -0.02458325
-0.545003 -0.7166478 -0.015657216
-0.5897639 -0.63805795 -0.023355246
-0.60417724 -0.6289437 0.0115326345
-0.5181723 -0.7163531 -0.027101845
-0.5157787 -0.7487349 -0.014161766
-0.5012281 -0.7073724 -0.024689674
-0.39404085 -0.9731946 -0.010767132
-0.36098734 -0.9731946 -0.008416593
-0.5156227 -0.9731946 0.03181973
-0.4312687 -0.90923834 0.112553835
-0.368114 -0.94567156 0.04165846
-0.52249396 -0.90235156 0.1377114
-0.52690786 -0.8976935 0.13907048
-0.58692026 -0.8948696 0.108463824
-0.56619143 -0.92023724 0.11681707
-0.5588677 -0.9731946 0.10998462
-0.49092177 -0.932788 0.14391482
-0.30009866 0.29212135 0.1772419
-0.29865903 0.27117568 0.17671792
-0.28759354 0.45123166 0.07049231
-0.62917024 -0.28929114 0.29701415
-0.6224497 -0.8400761 0.036053166
-0.4508372 -0.8630379 0.2321062
-0.5588677 -0.9731946 0.10998462
-0.48648417 -0.9111632 0.03948973
-0.52249396 -0.90235156 0.1377114
-0.4482786 -0.9731946 0.14912641
-0.5669696 -0.8948696 0.16568734
-0.5488505 -0.89841753 0.105623975
-0.58692026 -0.8948696 0.108463824
-0.34402058 -0.9731946 0.0050833523
0.0022155643 0.31595773 0.06720851
0.0022155643 0.31595773 0.06720851
-0.22828445 0.3733701 0.22379456
-0.24412617 0.35401767 0.23581567
-0.29487175 0.35401767 0.09639339
-0.27500927 0.3733701 0.09541923
0.0022155643 0.31595773 0.06720851
3 0 1 2
3 3 4 5
3 6 7 1
3 8 3 5
3 9 10 11
3 12 13 14
3 15 14 16
3 17 16 7
3 18 11 4
3 19 20 21
3 22 23 13
3 24 21 10
3 25 26 27
3 28 29 30
3 31 32 33
3 34 35 36
3 37 38 28
3 32 39 40
3 36 41 42
3 26 43 44
3 45 37 46
3 47 48 34
3 49 33 20
3 50 27 23
3 23 51 52
3 26 53 54
3 37 55 46
3 28 56 55
3 27 54 51
3 13 52 57
3 7 58 59
3 16 60 58
3 14 57 60
3 1 59 61
3 62 1 61
3 0 6 1
3 3 18 4
3 6 17 7
3 8 63 3
3 9 24 10
3 12 22 13
3 15 12 14
3 17 15 16
3 18 9 11
3 19 49 20
3 22 50 23
3 24 19 21
3 25 64 26
3 28 38 29
3 31 65 32
3 34 48 35
3 37 66 38
3 32 65 39
3 36 35 41
3 26 64 43
3 45 66 37
3 47 67 48
3 49 31 33
3 50 25 27
3 23 27 51
3 26 44 53
3 37 28 55
3 28 30 56
3 27 26 54
3 13 23 52
3 7 16 58
3 16 14 60
3 14 13 57
3 1 7 59
3 62 2 1
3 68 69 70
3 71 72 73
3 69 74 75
3 71 73 76
3 77 78 79
3 80 81 82
3 83 80 84
3 74 83 85
3 72 77 86
3 87 88 89
3 81 90 91
3 78 87 92
3 93 94 95
3 96 97 98
3 99 100 101
3 102 103 104
3 98 105 106
3 107 108 100
3 109 110 102
3 111 112 94
3 113 106 114
3 104 115 116
3 88 99 117
3 90 93 118
3 119 120 90
3 121 122 94
3 113 123 106
3 123 124 98
3 120 121 93
3 125 119 81
3 126 127 74
3 127 128 83
3 128 125 80
3 129 126 69
3 129 69 130
3 69 75 70
3 72 86 73
3 74 85 75
3 73 131 76
3 78 92 79
3 81 91 82
3 80 82 84
3 83 84 85
3 77 79 86
3 88 117 89
3 90 118 91
3 87 89 92
3 94 132 95
3 97 105 98
3 100 133 101
3 103 115 104
3 105 134 106
3 108 133 100
3 110 103 102
3 112 132 94
3 106 134 114
3 115 135 116
3 99 101 117
3 93 95 118
3 120 93 90
3 122 111 94
3 123 98 106
3 124 96 98
3 121 94 93
3 119 90 81
3 127 83 74
3 128 80 83
3 125 81 80
3 126 74 69
3 69 68 130
3 136 137 138
3 136 139 140
3 139 141 142
3 143 144 145
3 146 147 139
3 148 149 150
3 146 148 151
3 152 145 153
3 142 154 155
3 155 156 157
3 140 142 155
3 158 159 160
3 137 161 138
3 162 163 164
3 150 149 165
3 138 161 163
3 140 166 143
3 152 140 143
3 136 167 168
3 164 161 169
3 170 171 172
3 157 173 174
3 166 157 144
3 175 176 177
3 178 179 180
3 178 177 181
3 145 171 153
3 144 174 182
3 177 183 184
3 181 185 179
3 181 184 186
3 187 188 176
3 173 187 174
3 182 178 189
3 189 180 170
3 174 175 182
3 186 190 191
3 192 193 183
3 176 192 183
3 191 194 195
3 194 190 196
3 196 197 198
3 184 193 190
3 186 199 185
3 197 200 198
3 193 197 190
3 201 202 193
3 203 204 205
3 206 207 208
3 209 210 211
3 212 208 213
3 214 215 216
3 217 218 219
3 215 220 216
3 204 221 217
3 210 222 211
3 223 224 214
3 225 212 213
3 226 209 227
3 228 203 205
3 229 230 231
3 232 233 222
3 207 234 229
3 220 235 236
3 237 238 231
3 236 239 237
3 219 240 241
3 242 243 233
3 244 245 246
3 244 172 171
3 246 247 172
3 172 248 170
3 182 249 144
3 145 249 244
3 250 251 247
3 247 252 248
3 189 248 253
3 182 253 254
3 245 250 246
3 245 254 255
3 256 257 258
3 259 260 261
3 253 252 256
3 250 262 259
3 253 258 254
3 255 258 262
3 263 264 261
3 257 261 260
3 262 257 260
3 251 265 252
3 251 261 264
3 256 265 263
3 236 266 267
3 237 230 266
3 220 267 268
3 207 269 270
3 229 238 269
3 271 213 272
3 223 273 274
3 275 220 268
3 273 216 275
3 272 208 276
3 276 207 270
3 158 277 278
3 136 152 137
3 136 168 139
3 139 147 141
3 143 166 144
3 146 151 147
3 148 279 149
3 146 279 148
3 152 143 145
3 142 141 154
3 155 154 156
3 140 139 142
3 137 169 161
3 162 167 163
3 167 138 163
3 140 155 166
3 152 136 140
3 136 138 167
3 170 153 171
3 157 156 173
3 166 155 157
3 175 187 176
3 178 181 179
3 178 175 177
3 145 244 171
3 144 157 174
3 177 176 183
3 181 186 185
3 181 177 184
3 187 280 188
3 173 280 187
3 182 175 178
3 189 178 180
3 174 187 175
3 186 184 190
3 192 201 193
3 176 188 192
3 195 281 191
3 194 282 195
3 194 191 190
3 196 190 197
3 184 183 193
3 186 191 199
3 197 202 200
3 193 202 197
3 201 200 202
3 203 283 204
3 206 284 207
3 209 285 210
3 212 206 208
3 214 224 215
3 217 221 218
3 215 286 220
3 204 283 221
3 210 232 222
3 223 287 224
3 225 288 212
3 226 285 209
3 228 289 203
3 229 234 230
3 232 242 233
3 207 284 234
3 220 286 235
3 237 239 238
3 236 235 239
3 219 218 240
3 242 290 243
3 244 249 245
3 244 246 172
3 246 250 247
3 172 247 248
3 182 245 249
3 145 144 249
3 250 259 251
3 247 251 252
3 189 170 248
3 182 189 253
3 245 255 250
3 245 182 254
3 256 263 257
3 259 262 260
3 253 248 252
3 250 255 262
3 253 256 258
3 255 254 258
3 263 265 264
3 257 263 261
3 262 258 257
3 251 264 265
3 251 259 261
3 256 252 265
3 236 237 266
3 237 231 230
3 220 236 267
3 207 229 269
3 229 231 238
3 271 225 213
3 223 214 273
3 275 216 220
3 273 214 216
3 272 213 208
3 276 208 207
3 291 159 278
3 159 158 278
3 292 293 294
3 295 296 294
3 297 298 296
3 299 300 301
3 296 302 303
3 304 305 306
3 307 306 303
3 308 299 309
3 310 311 297
3 312 313 310
3 310 297 295
3 314 315 316
3 292 317 293
3 318 319 320
3 321 305 304
3 319 317 292
3 301 322 295
3 301 295 309
3 323 324 294
3 325 317 318
3 326 327 328
3 329 330 312
3 300 312 322
3 331 332 333
3 334 335 336
3 337 331 336
3 308 327 299
3 338 329 300
3 339 340 331
3 335 341 337
3 342 339 337
3 332 343 344
3 329 344 330
3 345 336 338
3 328 334 345
3 338 333 329
3 346 347 342
3 340 348 349
3 340 349 332
3 350 351 346
3 352 347 351
3 353 354 352
3 347 348 339
3 341 355 342
3 353 356 354
3 347 354 348
3 348 357 358
3 359 360 361
3 362 363 364
3 365 366 367
3 368 362 369
3 370 371 372
3 373 374 375
3 370 376 371
3 375 377 360
3 365 378 366
3 372 379 380
3 368 369 381
3 382 367 383
3 359 361 384
3 385 386 387
3 378 388 389
3 387 390 363
3 391 392 376
3 385 393 394
3 394 395 391
3 396 397 373
3 388 398 399
3 400 401 402
3 327 326 402
3 326 403 400
3 328 404 326
3 300 405 338
3 402 405 299
3 403 406 407
3 404 408 403
3 409 404 345
3 410 409 338
3 400 407 401
3 411 410 401
3 412 413 414
3 415 416 417
3 414 408 409
3 417 418 407
3 410 412 409
3 418 412 411
3 415 419 420
3 416 415 413
3 416 413 418
3 408 421 406
3 419 415 406
3 420 421 414
3 422 423 391
3 423 386 394
3 424 422 376
3 425 426 363
3 426 393 387
3 427 368 428
3 429 430 380
3 424 376 431
3 431 370 430
3 432 362 427
3 425 363 432
3 433 434 316
3 293 309 294
3 296 323 294
3 298 302 296
3 300 322 301
3 302 307 303
3 305 435 306
3 306 435 303
3 299 301 309
3 311 298 297
3 313 311 310
3 297 296 295
3 317 325 293
3 319 324 320
3 319 292 324
3 322 310 295
3 295 294 309
3 324 292 294
3 327 308 328
3 330 313 312
3 312 310 322
3 332 344 333
3 335 337 336
3 331 333 336
3 327 402 299
3 329 312 300
3 340 332 331
3 341 342 337
3 339 331 337
3 343 436 344
3 344 436 330
3 336 333 338
3 334 336 345
3 333 344 329
3 347 339 342
3 348 358 349
3 349 343 332
3 346 437 350
3 350 438 351
3 347 346 351
3 354 347 352
3 348 340 339
3 355 346 342
3 356 357 354
3 354 357 348
3 357 356 358
3 360 439 361
3 363 440 364
3 366 441 367
3 362 364 369
3 371 379 372
3 374 377 375
3 376 442 371
3 377 439 360
3 378 389 366
3 379 443 380
3 369 444 381
3 367 441 383
3 361 445 384
3 386 390 387
3 388 399 389
3 390 440 363
3 392 442 376
3 393 395 394
3 395 392 391
3 397 374 373
3 398 446 399
3 401 405 402
3 326 400 402
3 403 407 400
3 404 403 326
3 405 401 338
3 405 300 299
3 406 417 407
3 408 406 403
3 404 328 345
3 409 345 338
3 407 411 401
3 410 338 401
3 413 420 414
3 416 418 417
3 408 404 409
3 418 411 407
3 412 414 409
3 412 410 411
3 419 421 420
3 415 420 413
3 413 412 418
3 421 419 406
3 415 417 406
3 421 408 414
3 423 394 391
3 386 385 394
3 422 391 376
3 426 387 363
3 393 385 387
3 368 381 428
3 430 372 380
3 376 370 431
3 370 372 430
3 362 368 427
3 363 362 432
3 433 315 447
3 433 316 315
3 448 449 450
3 451 452 453
